InterAlia-ExtraLight.ufo
<glyph name="exclam" format="2">
  <advance height="2479.0" width="546.6666666666666"/>
  <unicode hex="0021"/>
  <outline>
    <contour>
      <point x="322.0" y="1489.0" type="line"/>
      <point x="224.66666666666666" y="1489.0" type="line"/>
      <point x="229.66666666666666" y="434.3333333333333" type="line"/>
      <point x="317.0" y="434.3333333333333" type="line"/>
    </contour>
    <component base="period" xOffset="7.0"/>
  </outline>
</glyph>
<glyph name="numbersign" format="2">
  <advance height="2479.0" width="1295.3333333333333"/>
  <unicode hex="0023"/>
  <outline>
    <contour>
      <point x="747.6666666666666" y="0.0" type="line"/>
      <point x="827.3333333333334" y="0.0" type="line"/>
      <point x="1071.6666666666667" y="1489.0" type="line"/>
      <point x="991.6666666666666" y="1489.0" type="line"/>
    </contour>
    <contour>
      <point x="43.0" y="446.3333333333333" type="line"/>
      <point x="1154.0" y="446.3333333333333" type="line"/>
      <point x="1167.6666666666667" y="525.6666666666666" type="line"/>
      <point x="56.0" y="525.6666666666666" type="line"/>
    </contour>
    <contour>
      <point x="223.66666666666666" y="0.0" type="line"/>
      <point x="303.6666666666667" y="0.0" type="line"/>
      <point x="547.6666666666666" y="1489.0" type="line"/>
      <point x="468.3333333333333" y="1489.0" type="line"/>
    </contour>
    <contour>
      <point x="128.0" y="963.6666666666666" type="line"/>
      <point x="1239.0" y="963.6666666666666" type="line"/>
      <point x="1253.0" y="1043.3333333333333" type="line"/>
      <point x="141.66666666666666" y="1043.3333333333333" type="line"/>
    </contour>
  </outline>
</glyph>
<glyph name="dollar" format="2">
  <advance height="2479.0" width="1271.3333333333333"/>
  <unicode hex="0024"/>
  <anchor x="637.0" y="-24.0" name="bottom"/>
  <anchor x="637.0" y="0.0" name="cedilla"/>
  <anchor x="636.0" y="1676.0" name="top"/>
  <outline>
    <contour>
      <point x="601.0" y="-186.0" type="line"/>
      <point x="672.3333333333334" y="-186.0" type="line"/>
      <point x="672.3333333333334" y="1676.0" type="line"/>
      <point x="601.0" y="1676.0" type="line"/>
    </contour>
    <component base="S"/>
  </outline>
</glyph>
<glyph name="percent" format="2">
  <advance height="2479.0" width="1610.0"/>
  <unicode hex="0025"/>
  <anchor x="1034.6666666666667" y="791.0" name="dnom"/>
  <anchor x="569.3333333333334" y="698.0" name="numr"/>
  <outline>
    <contour>
      <point x="925.0" y="273.6666666666667" type="line" smooth="yes"/>
      <point x="925.0" y="103.33333333333333"/>
      <point x="1029.6666666666667" y="-20.0"/>
      <point x="1184.6666666666667" y="-20.0" type="curve" smooth="yes"/>
      <point x="1339.0" y="-20.0"/>
      <point x="1444.0" y="103.33333333333333"/>
      <point x="1444.0" y="273.6666666666667" type="curve" smooth="yes"/>
      <point x="1444.0" y="330.6666666666667" type="line" smooth="yes"/>
      <point x="1444.0" y="501.0"/>
      <point x="1339.6666666666667" y="624.3333333333334"/>
      <point x="1184.6666666666667" y="624.3333333333334" type="curve" smooth="yes"/>
      <point x="1030.6666666666667" y="624.3333333333334"/>
      <point x="925.0" y="501.0"/>
      <point x="925.0" y="330.6666666666667" type="curve" smooth="yes"/>
    </contour>
    <contour>
      <point x="1005.3333333333334" y="330.6666666666667" type="line" smooth="yes"/>
      <point x="1005.3333333333334" y="459.3333333333333"/>
      <point x="1077.0" y="551.3333333333334"/>
      <point x="1184.6666666666667" y="551.3333333333334" type="curve" smooth="yes"/>
      <point x="1294.3333333333333" y="551.3333333333334"/>
      <point x="1363.3333333333333" y="459.3333333333333"/>
      <point x="1363.3333333333333" y="330.6666666666667" type="curve" smooth="yes"/>
      <point x="1363.3333333333333" y="273.6666666666667" type="line" smooth="yes"/>
      <point x="1363.3333333333333" y="144.33333333333334"/>
      <point x="1293.3333333333333" y="52.333333333333336"/>
      <point x="1184.6666666666667" y="52.333333333333336" type="curve" smooth="yes"/>
      <point x="1076.0" y="52.333333333333336"/>
      <point x="1005.3333333333334" y="144.33333333333334"/>
      <point x="1005.3333333333334" y="273.6666666666667" type="curve" smooth="yes"/>
    </contour>
    <contour>
      <point x="166.0" y="1158.6666666666667" type="line" smooth="yes"/>
      <point x="166.0" y="989.0"/>
      <point x="270.3333333333333" y="864.6666666666666"/>
      <point x="425.6666666666667" y="864.6666666666666" type="curve" smooth="yes"/>
      <point x="579.6666666666666" y="864.6666666666666"/>
      <point x="685.0" y="989.0"/>
      <point x="685.0" y="1158.6666666666667" type="curve" smooth="yes"/>
      <point x="685.0" y="1216.0" type="line" smooth="yes"/>
      <point x="685.0" y="1386.3333333333333"/>
      <point x="580.6666666666666" y="1510.0"/>
      <point x="425.6666666666667" y="1510.0" type="curve" smooth="yes"/>
      <point x="271.3333333333333" y="1510.0"/>
      <point x="166.0" y="1386.3333333333333"/>
      <point x="166.0" y="1216.0" type="curve" smooth="yes"/>
    </contour>
    <contour>
      <point x="246.0" y="1216.0" type="line" smooth="yes"/>
      <point x="246.0" y="1344.6666666666667"/>
      <point x="317.6666666666667" y="1437.0"/>
      <point x="425.6666666666667" y="1437.0" type="curve" smooth="yes"/>
      <point x="535.0" y="1437.0"/>
      <point x="604.0" y="1344.6666666666667"/>
      <point x="604.0" y="1216.0" type="curve" smooth="yes"/>
      <point x="604.0" y="1158.6666666666667" type="line" smooth="yes"/>
      <point x="604.0" y="1029.6666666666667"/>
      <point x="534.0" y="937.6666666666666"/>
      <point x="425.6666666666667" y="937.6666666666666" type="curve" smooth="yes"/>
      <point x="316.6666666666667" y="937.6666666666666"/>
      <point x="246.0" y="1029.6666666666667"/>
      <point x="246.0" y="1158.6666666666667" type="curve" smooth="yes"/>
    </contour>
    <component base="fraction" xOffset="521.6666666666666"/>
  </outline>
</glyph>
<glyph name="ampersand" format="2">
  <advance height="2479.0" width="1233.6666666666667"/>
  <unicode hex="0026"/>
  <outline>
    <contour>
      <point x="559.6666666666666" y="-20.0" type="curve"/>
      <point x="703.6666666666666" y="-20.0"/>
      <point x="856.3333333333334" y="40.0"/>
      <point x="954.3333333333334" y="145.33333333333334" type="curve"/>
      <point x="966.3333333333334" y="158.66666666666666"/>
      <point x="977.3333333333334" y="173.66666666666666"/>
      <point x="987.6666666666666" y="189.0" type="curve"/>
      <point x="1048.0" y="266.3333333333333"/>
      <point x="1126.0" y="391.6666666666667"/>
      <point x="1139.3333333333333" y="574.0" type="curve"/>
      <point x="1053.3333333333333" y="578.0" type="line"/>
      <point x="1019.3333333333334" y="271.3333333333333"/>
      <point x="826.3333333333334" y="65.66666666666667"/>
      <point x="557.6666666666666" y="61.0" type="curve" smooth="yes"/>
      <point x="358.6666666666667" y="63.0"/>
      <point x="211.0" y="205.33333333333334"/>
      <point x="211.0" y="380.0" type="curve"/>
      <point x="211.0" y="473.3333333333333"/>
      <point x="265.0" y="564.3333333333334"/>
      <point x="427.6666666666667" y="688.6666666666666" type="curve" smooth="yes"/>
      <point x="672.0" y="871.0" type="line" smooth="yes"/>
      <point x="813.3333333333334" y="980.3333333333334"/>
      <point x="879.6666666666666" y="1075.3333333333333"/>
      <point x="879.6666666666666" y="1202.3333333333333" type="curve"/>
      <point x="879.6666666666666" y="1374.3333333333333"/>
      <point x="750.3333333333334" y="1508.0"/>
      <point x="563.6666666666666" y="1508.0" type="curve" smooth="yes"/>
      <point x="376.3333333333333" y="1508.0"/>
      <point x="232.0" y="1365.0"/>
      <point x="232.0" y="1186.3333333333333" type="curve" smooth="yes"/>
      <point x="232.0" y="1052.0"/>
      <point x="321.6666666666667" y="953.3333333333334"/>
      <point x="465.3333333333333" y="775.6666666666666" type="curve" smooth="yes"/>
      <point x="1088.3333333333333" y="0.0" type="line"/>
      <point x="1195.6666666666667" y="0.0" type="line"/>
      <point x="517.6666666666666" y="846.3333333333334" type="line" smooth="yes"/>
      <point x="394.33333333333337" y="999.6666666666666"/>
      <point x="321.0" y="1086.3333333333333"/>
      <point x="321.0" y="1185.3333333333333" type="curve" smooth="yes"/>
      <point x="321.0" y="1311.0"/>
      <point x="430.3333333333333" y="1427.3333333333333"/>
      <point x="565.6666666666666" y="1427.3333333333333" type="curve" smooth="yes"/>
      <point x="696.0" y="1427.3333333333333"/>
      <point x="790.3333333333334" y="1326.6666666666667"/>
      <point x="790.3333333333334" y="1202.3333333333333" type="curve"/>
      <point x="790.3333333333334" y="1098.3333333333333"/>
      <point x="735.3333333333334" y="1027.3333333333333"/>
      <point x="613.6666666666666" y="935.3333333333334" type="curve"/>
      <point x="396.6666666666667" y="774.0" type="line"/>
      <point x="209.66666666666666" y="635.0"/>
      <point x="122.33333333333333" y="531.3333333333334"/>
      <point x="122.33333333333333" y="380.0" type="curve"/>
      <point x="122.33333333333333" y="154.0"/>
      <point x="304.3333333333333" y="-20.0"/>
    </contour>
  </outline>
</glyph>
<glyph name="quotesingle" format="2">
  <advance height="2479.0" width="301.6666666666667"/>
  <unicode hex="0027"/>
  <outline>
    <contour>
      <point x="200.66666666666669" y="1489.0" type="line"/>
      <point x="101.0" y="1489.0" type="line"/>
      <point x="118.66666666666667" y="1008.3333333333334" type="line"/>
      <point x="183.0" y="1008.3333333333334" type="line"/>
    </contour>
  </outline>
</glyph>
<glyph name="parenleft" format="2">
  <advance height="2479.0" width="678.0"/>
  <unicode hex="0028"/>
  <outline>
    <contour>
      <point x="232.0" y="628.0" type="curve" smooth="yes"/>
      <point x="232.0" y="298.6666666666667"/>
      <point x="315.0" y="-16.666666666666668"/>
      <point x="467.6666666666667" y="-303.0" type="curve"/>
      <point x="550.6666666666666" y="-303.0" type="line"/>
      <point x="408.6666666666667" y="-39.0"/>
      <point x="322.0" y="303.3333333333333"/>
      <point x="322.0" y="628.0" type="curve" smooth="yes"/>
      <point x="322.0" y="951.6666666666666"/>
      <point x="408.0" y="1294.3333333333333"/>
      <point x="550.6666666666666" y="1559.0" type="curve"/>
      <point x="467.6666666666667" y="1559.0" type="line"/>
      <point x="315.0" y="1275.3333333333333"/>
      <point x="232.0" y="960.3333333333334"/>
    </contour>
  </outline>
</glyph>
<glyph name="asterisk" format="2">
  <advance height="2479.0" width="1024.0"/>
  <unicode hex="002A"/>
  <outline>
    <contour>
      <point x="473.3333333333333" y="652.0" type="line"/>
      <point x="550.6666666666666" y="652.0" type="line"/>
      <point x="546.6666666666666" y="1010.6666666666666" type="line"/>
      <point x="856.3333333333334" y="827.3333333333334" type="line"/>
      <point x="895.0" y="894.6666666666666" type="line"/>
      <point x="581.0" y="1071.0" type="line"/>
      <point x="895.0" y="1246.3333333333333" type="line"/>
      <point x="856.3333333333334" y="1313.6666666666667" type="line"/>
      <point x="546.6666666666666" y="1130.3333333333333" type="line"/>
      <point x="550.6666666666666" y="1489.0" type="line"/>
      <point x="473.3333333333333" y="1489.0" type="line"/>
      <point x="477.3333333333333" y="1130.3333333333333" type="line"/>
      <point x="167.66666666666666" y="1313.6666666666667" type="line"/>
      <point x="129.0" y="1246.3333333333333" type="line"/>
      <point x="443.0" y="1071.0" type="line"/>
      <point x="129.0" y="894.6666666666666" type="line"/>
      <point x="167.66666666666666" y="827.3333333333334" type="line"/>
      <point x="477.3333333333333" y="1010.6666666666666" type="line"/>
    </contour>
  </outline>
</glyph>
<glyph name="plus" format="2">
  <advance height="2479.0" width="1318.6666666666667"/>
  <unicode hex="002B"/>
  <outline>
    <contour>
      <point x="616.3333333333334" y="140.66666666666666" type="line"/>
      <point x="702.0" y="140.66666666666666" type="line"/>
      <point x="702.0" y="1023.3333333333334" type="line"/>
      <point x="616.3333333333334" y="1023.3333333333334" type="line"/>
    </contour>
    <contour>
      <point x="218.33333333333334" y="539.3333333333334" type="line"/>
      <point x="1100.3333333333333" y="539.3333333333334" type="line"/>
      <point x="1100.3333333333333" y="624.3333333333334" type="line"/>
      <point x="218.33333333333334" y="624.3333333333334" type="line"/>
    </contour>
  </outline>
</glyph>
<glyph name="comma" format="2">
  <advance height="2479.0" width="541.6666666666666"/>
  <unicode hex="002C"/>
  <outline>
    <contour>
      <point x="359.0" y="204.0" type="line"/>
      <point x="263.6666666666667" y="204.0" type="line"/>
      <point x="251.33333333333331" y="122.0" type="line" smooth="yes"/>
      <point x="221.0" y="-74.33333333333333"/>
      <point x="184.0" y="-259.0"/>
      <point x="163.66666666666666" y="-364.0" type="curve"/>
      <point x="232.66666666666669" y="-364.0" type="line"/>
      <point x="267.0" y="-257.6666666666667"/>
      <point x="319.0" y="-22.333333333333336"/>
      <point x="345.0" y="127.0" type="curve" smooth="yes"/>
    </contour>
  </outline>
</glyph>
<glyph name="hyphen" format="2">
  <advance height="2479.0" width="913.6666666666666"/>
  <unicode hex="002D"/>
  <outline>
    <contour>
      <point x="750.3333333333334" y="681.0" type="line"/>
      <point x="163.0" y="681.0" type="line"/>
      <point x="163.0" y="596.3333333333334" type="line"/>
      <point x="750.3333333333334" y="596.3333333333334" type="line"/>
    </contour>
  </outline>
</glyph>
<glyph name="period" format="2">
  <advance height="2479.0" width="533.3333333333334"/>
  <unicode hex="002E"/>
  <outline>
    <contour>
      <point x="266.6666666666667" y="-10.0" type="curve" smooth="yes"/>
      <point x="310.0" y="-10.0"/>
      <point x="345.0" y="25.666666666666668"/>
      <point x="345.0" y="69.0" type="curve" smooth="yes"/>
      <point x="345.0" y="112.33333333333334"/>
      <point x="310.0" y="147.33333333333334"/>
      <point x="266.6666666666667" y="147.33333333333334" type="curve" smooth="yes"/>
      <point x="223.33333333333334" y="147.33333333333334"/>
      <point x="188.33333333333331" y="112.33333333333334"/>
      <point x="188.33333333333331" y="69.0" type="curve" smooth="yes"/>
      <point x="188.33333333333331" y="25.666666666666668"/>
      <point x="223.33333333333334" y="-10.0"/>
    </contour>
  </outline>
</glyph>
<glyph name="slash" format="2">
  <advance height="2479.0" width="684.6666666666666"/>
  <unicode hex="002F"/>
  <outline>
    <contour>
      <point x="625.3333333333334" y="1559.0" type="line"/>
      <point x="540.3333333333334" y="1559.0" type="line"/>
      <point x="60.33333333333333" y="-224.0" type="line"/>
      <point x="145.33333333333334" y="-224.0" type="line"/>
    </contour>
  </outline>
</glyph>
<glyph name="zero" format="2">
  <advance height="2479.0" width="1233.3333333333333"/>
  <unicode hex="0030"/>
  <outline>
    <contour>
      <point x="616.6666666666666" y="-20.0" type="curve" smooth="yes"/>
      <point x="915.6666666666666" y="-20.0"/>
      <point x="1094.0" y="266.6666666666667"/>
      <point x="1094.0" y="745.0" type="curve" smooth="yes"/>
      <point x="1094.0" y="1222.0"/>
      <point x="914.6666666666666" y="1510.0"/>
      <point x="616.6666666666666" y="1510.0" type="curve" smooth="yes"/>
      <point x="318.6666666666667" y="1510.0"/>
      <point x="139.33333333333334" y="1222.0"/>
      <point x="139.33333333333334" y="745.0" type="curve" smooth="yes"/>
      <point x="139.33333333333334" y="266.6666666666667"/>
      <point x="317.6666666666667" y="-20.0"/>
    </contour>
    <contour>
      <point x="616.6666666666666" y="64.0" type="curve" smooth="yes"/>
      <point x="375.0" y="64.0"/>
      <point x="229.0" y="317.0"/>
      <point x="229.0" y="745.0" type="curve" smooth="yes"/>
      <point x="229.0" y="1172.6666666666667"/>
      <point x="375.6666666666667" y="1426.3333333333333"/>
      <point x="616.6666666666666" y="1426.3333333333333" type="curve" smooth="yes"/>
      <point x="857.6666666666666" y="1426.3333333333333"/>
      <point x="1004.3333333333334" y="1172.6666666666667"/>
      <point x="1004.3333333333334" y="745.0" type="curve" smooth="yes"/>
      <point x="1004.3333333333334" y="317.0"/>
      <point x="858.3333333333334" y="64.0"/>
    </contour>
  </outline>
</glyph>
<glyph name="one" format="2">
  <advance height="2479.0" width="873.6666666666666"/>
  <unicode hex="0031"/>
  <outline>
    <contour>
      <point x="573.3333333333334" y="1489.0" type="line"/>
      <point x="470.3333333333333" y="1489.0" type="line"/>
      <point x="138.33333333333334" y="1269.3333333333333" type="line"/>
      <point x="138.33333333333334" y="1171.6666666666667" type="line"/>
      <point x="473.0" y="1393.3333333333333" type="line"/>
      <point x="481.6666666666667" y="1393.3333333333333" type="line"/>
      <point x="481.6666666666667" y="0.0" type="line"/>
      <point x="573.3333333333334" y="0.0" type="line"/>
    </contour>
  </outline>
</glyph>
<glyph name="two" format="2">
  <advance height="2479.0" width="1260.3333333333333"/>
  <unicode hex="0032"/>
  <anchor x="823.0" y="752.6666666666666" name="cross"/>
  <outline>
    <contour>
      <point x="177.33333333333334" y="0.0" type="line"/>
      <point x="1090.0" y="0.0" type="line"/>
      <point x="1090.0" y="84.66666666666667" type="line"/>
      <point x="308.33333333333337" y="84.66666666666667" type="line"/>
      <point x="308.33333333333337" y="92.0" type="line"/>
      <point x="712.6666666666666" y="558.3333333333334" type="line" smooth="yes"/>
      <point x="950.6666666666666" y="830.6666666666666"/>
      <point x="1023.3333333333334" y="951.3333333333334"/>
      <point x="1023.3333333333334" y="1116.3333333333333" type="curve" smooth="yes"/>
      <point x="1023.3333333333334" y="1340.3333333333333"/>
      <point x="850.3333333333334" y="1510.0"/>
      <point x="614.0" y="1510.0" type="curve" smooth="yes"/>
      <point x="371.6666666666667" y="1510.0"/>
      <point x="196.66666666666666" y="1332.6666666666667"/>
      <point x="196.66666666666666" y="1101.6666666666667" type="curve"/>
      <point x="285.3333333333333" y="1101.6666666666667" type="line"/>
      <point x="285.3333333333333" y="1284.6666666666667"/>
      <point x="416.3333333333333" y="1426.3333333333333"/>
      <point x="612.0" y="1426.3333333333333" type="curve" smooth="yes"/>
      <point x="797.6666666666666" y="1426.3333333333333"/>
      <point x="935.6666666666666" y="1298.6666666666667"/>
      <point x="935.6666666666666" y="1116.3333333333333" type="curve" smooth="yes"/>
      <point x="935.6666666666666" y="971.0"/>
      <point x="866.0" y="863.6666666666666"/>
      <point x="659.3333333333334" y="624.3333333333334" type="curve" smooth="yes"/>
      <point x="177.33333333333334" y="69.0" type="line"/>
    </contour>
  </outline>
</glyph>
<glyph name="three" format="2">
  <advance height="2479.0" width="1272.3333333333333"/>
  <unicode hex="0033"/>
  <outline>
    <contour>
      <point x="641.6666666666666" y="-20.0" type="curve" smooth="yes"/>
      <point x="912.0" y="-20.0"/>
      <point x="1104.3333333333333" y="159.0"/>
      <point x="1104.3333333333333" y="392.6666666666667" type="curve" smooth="yes"/>
      <point x="1104.3333333333333" y="581.6666666666666"/>
      <point x="983.6666666666666" y="723.0"/>
      <point x="791.0" y="766.0" type="curve"/>
      <point x="791.0" y="774.0" type="line"/>
      <point x="954.0" y="821.3333333333334"/>
      <point x="1057.0" y="950.3333333333334"/>
      <point x="1057.0" y="1123.0" type="curve" smooth="yes"/>
      <point x="1057.0" y="1338.6666666666667"/>
      <point x="889.6666666666666" y="1510.0"/>
      <point x="641.6666666666666" y="1510.0" type="curve" smooth="yes"/>
      <point x="400.0" y="1510.0"/>
      <point x="215.33333333333334" y="1348.3333333333333"/>
      <point x="212.33333333333334" y="1117.0" type="curve"/>
      <point x="301.3333333333333" y="1117.0" type="line"/>
      <point x="303.3333333333333" y="1302.3333333333333"/>
      <point x="450.3333333333333" y="1426.3333333333333"/>
      <point x="640.6666666666666" y="1426.3333333333333" type="curve" smooth="yes"/>
      <point x="835.6666666666666" y="1426.3333333333333"/>
      <point x="967.6666666666666" y="1297.6666666666667"/>
      <point x="967.6666666666666" y="1120.3333333333333" type="curve" smooth="yes"/>
      <point x="967.6666666666666" y="929.6666666666666"/>
      <point x="812.0" y="808.6666666666666"/>
      <point x="604.3333333333334" y="808.6666666666666" type="curve" smooth="yes"/>
      <point x="548.6666666666666" y="808.6666666666666" type="line"/>
      <point x="548.6666666666666" y="724.6666666666666" type="line"/>
      <point x="604.3333333333334" y="724.6666666666666" type="line" smooth="yes"/>
      <point x="849.0" y="724.6666666666666"/>
      <point x="1014.3333333333334" y="590.3333333333334"/>
      <point x="1014.3333333333334" y="392.6666666666667" type="curve" smooth="yes"/>
      <point x="1014.3333333333334" y="207.66666666666669"/>
      <point x="862.6666666666666" y="64.0"/>
      <point x="641.0" y="64.0" type="curve" smooth="yes"/>
      <point x="434.6666666666667" y="64.0"/>
      <point x="274.33333333333337" y="190.66666666666669"/>
      <point x="271.0" y="372.0" type="curve"/>
      <point x="178.33333333333334" y="372.0" type="line"/>
      <point x="182.0" y="142.66666666666666"/>
      <point x="378.3333333333333" y="-20.0"/>
    </contour>
  </outline>
</glyph>
<glyph name="four" format="2">
  <advance height="2479.0" width="1251.0"/>
  <unicode hex="0034"/>
  <outline>
    <contour>
      <point x="140.33333333333334" y="334.3333333333333" type="line"/>
      <point x="1110.6666666666667" y="334.3333333333333" type="line"/>
      <point x="1110.6666666666667" y="419.0" type="line"/>
      <point x="250.0" y="419.0" type="line"/>
      <point x="250.0" y="426.3333333333333" type="line"/>
      <point x="822.3333333333334" y="1348.6666666666667" type="line"/>
      <point x="869.6666666666666" y="1348.6666666666667" type="line"/>
      <point x="869.6666666666666" y="1489.0" type="line"/>
      <point x="814.6666666666666" y="1489.0" type="line"/>
      <point x="140.33333333333334" y="407.3333333333333" type="line"/>
    </contour>
    <contour>
      <point x="830.0" y="0.0" type="line"/>
      <point x="918.0" y="0.0" type="line"/>
      <point x="918.0" y="1489.0" type="line"/>
      <point x="830.0" y="1489.0" type="line"/>
      <point x="830.0" y="392.0" type="line"/>
      <point x="830.0" y="359.6666666666667" type="line"/>
    </contour>
  </outline>
</glyph>
<glyph name="five" format="2">
  <advance height="2479.0" width="1194.3333333333333"/>
  <unicode hex="0035"/>
  <outline>
    <contour>
      <point x="582.6666666666666" y="-20.0" type="curve" smooth="yes"/>
      <point x="849.0" y="-20.0"/>
      <point x="1040.3333333333333" y="187.0"/>
      <point x="1041.6666666666667" y="466.6666666666667" type="curve" smooth="yes"/>
      <point x="1042.3333333333333" y="755.0"/>
      <point x="837.6666666666666" y="951.6666666666666"/>
      <point x="586.3333333333334" y="951.6666666666666" type="curve" smooth="yes"/>
      <point x="473.6666666666667" y="951.6666666666666"/>
      <point x="374.33333333333337" y="909.6666666666666"/>
      <point x="304.6666666666667" y="847.3333333333334" type="curve"/>
      <point x="297.6666666666667" y="847.3333333333334" type="line"/>
      <point x="365.3333333333333" y="1405.0" type="line"/>
      <point x="986.0" y="1405.0" type="line"/>
      <point x="986.0" y="1489.0" type="line"/>
      <point x="288.3333333333333" y="1489.0" type="line"/>
      <point x="199.33333333333334" y="775.3333333333334" type="line"/>
      <point x="302.3333333333333" y="761.3333333333334" type="line"/>
      <point x="369.0" y="822.6666666666666"/>
      <point x="468.0" y="866.0"/>
      <point x="576.6666666666666" y="866.0" type="curve" smooth="yes"/>
      <point x="782.6666666666666" y="865.3333333333334"/>
      <point x="951.6666666666666" y="706.6666666666666"/>
      <point x="952.3333333333334" y="465.6666666666667" type="curve" smooth="yes"/>
      <point x="953.0" y="236.66666666666669"/>
      <point x="800.3333333333334" y="64.0"/>
      <point x="582.6666666666666" y="64.0" type="curve" smooth="yes"/>
      <point x="393.0" y="64.0"/>
      <point x="259.6666666666667" y="192.0"/>
      <point x="256.0" y="372.0" type="curve"/>
      <point x="167.0" y="372.0" type="line"/>
      <point x="169.33333333333334" y="143.66666666666666"/>
      <point x="343.3333333333333" y="-20.0"/>
    </contour>
  </outline>
</glyph>
<glyph name="six" format="2">
  <advance height="2479.0" width="1221.0"/>
  <unicode hex="0036"/>
  <outline>
    <contour>
      <point x="621.6666666666666" y="-20.0" type="curve" smooth="yes"/>
      <point x="888.6666666666666" y="-21.333333333333332"/>
      <point x="1066.6666666666667" y="199.66666666666666"/>
      <point x="1066.6666666666667" y="456.6666666666667" type="curve" smooth="yes"/>
      <point x="1066.6666666666667" y="729.3333333333334"/>
      <point x="866.3333333333334" y="932.3333333333334"/>
      <point x="625.3333333333334" y="932.3333333333334" type="curve" smooth="yes"/>
      <point x="459.33333333333337" y="932.3333333333334"/>
      <point x="307.6666666666667" y="835.3333333333334"/>
      <point x="249.0" y="695.6666666666666" type="curve"/>
      <point x="241.33333333333334" y="695.6666666666666" type="line"/>
      <point x="241.33333333333334" y="1164.6666666666667"/>
      <point x="381.0" y="1425.3333333333333"/>
      <point x="639.3333333333334" y="1425.3333333333333" type="curve" smooth="yes"/>
      <point x="821.6666666666666" y="1425.3333333333333"/>
      <point x="934.6666666666666" y="1297.6666666666667"/>
      <point x="955.0" y="1117.0" type="curve"/>
      <point x="1045.6666666666667" y="1117.0" type="line"/>
      <point x="1023.3333333333334" y="1349.3333333333333"/>
      <point x="870.0" y="1510.0"/>
      <point x="639.3333333333334" y="1510.0" type="curve" smooth="yes"/>
      <point x="288.3333333333333" y="1510.0"/>
      <point x="154.33333333333334" y="1121.6666666666667"/>
      <point x="154.33333333333334" y="679.0" type="curve" smooth="yes"/>
      <point x="154.33333333333334" y="183.33333333333331"/>
      <point x="371.3333333333333" y="-19.0"/>
    </contour>
    <contour>
      <point x="621.6666666666666" y="64.0" type="curve" smooth="yes"/>
      <point x="436.6666666666667" y="64.0"/>
      <point x="298.3333333333333" y="208.33333333333334"/>
      <point x="266.0" y="442.3333333333333" type="curve" smooth="yes"/>
      <point x="237.0" y="657.0"/>
      <point x="402.6666666666667" y="847.6666666666666"/>
      <point x="615.6666666666666" y="847.6666666666666" type="curve" smooth="yes"/>
      <point x="820.3333333333334" y="847.6666666666666"/>
      <point x="977.3333333333334" y="675.6666666666666"/>
      <point x="977.3333333333334" y="456.6666666666667" type="curve" smooth="yes"/>
      <point x="977.3333333333334" y="240.33333333333334"/>
      <point x="825.6666666666666" y="64.0"/>
    </contour>
  </outline>
</glyph>
<glyph name="seven" format="2">
  <advance height="2479.0" width="1137.0"/>
  <unicode hex="0037"/>
  <outline>
    <contour>
      <point x="216.33333333333334" y="0.0" type="line"/>
      <point x="314.0" y="0.0" type="line"/>
      <point x="1006.3333333333334" y="1402.3333333333333" type="line"/>
      <point x="1006.3333333333334" y="1489.0" type="line"/>
      <point x="112.33333333333333" y="1489.0" type="line"/>
      <point x="112.33333333333333" y="1405.0" type="line"/>
      <point x="907.6666666666666" y="1405.0" type="line"/>
      <point x="907.6666666666666" y="1397.3333333333333" type="line"/>
    </contour>
  </outline>
</glyph>
<glyph name="eight" format="2">
  <advance height="2479.0" width="1243.0"/>
  <unicode hex="0038"/>
  <outline>
    <contour>
      <point x="621.6666666666666" y="-20.0" type="curve" smooth="yes"/>
      <point x="891.6666666666666" y="-20.0"/>
      <point x="1098.0" y="157.66666666666666"/>
      <point x="1098.3333333333333" y="388.0" type="curve" smooth="yes"/>
      <point x="1098.0" y="568.6666666666666"/>
      <point x="968.6666666666666" y="733.3333333333334"/>
      <point x="793.0" y="770.0" type="curve"/>
      <point x="793.0" y="777.0" type="line"/>
      <point x="944.3333333333334" y="823.6666666666666"/>
      <point x="1047.0" y="964.6666666666666"/>
      <point x="1047.3333333333333" y="1126.0" type="curve" smooth="yes"/>
      <point x="1047.0" y="1343.6666666666667"/>
      <point x="858.0" y="1510.0"/>
      <point x="621.6666666666666" y="1510.0" type="curve" smooth="yes"/>
      <point x="381.6666666666667" y="1510.0"/>
      <point x="195.66666666666666" y="1342.3333333333333"/>
      <point x="196.0" y="1126.0" type="curve" smooth="yes"/>
      <point x="195.66666666666666" y="964.0"/>
      <point x="299.6666666666667" y="824.3333333333334"/>
      <point x="449.6666666666667" y="777.0" type="curve"/>
      <point x="449.6666666666667" y="770.0" type="line"/>
      <point x="273.0" y="732.0"/>
      <point x="144.0" y="568.6666666666666"/>
      <point x="144.33333333333334" y="388.0" type="curve" smooth="yes"/>
      <point x="144.0" y="157.66666666666666"/>
      <point x="351.0" y="-20.0"/>
    </contour>
    <contour>
      <point x="621.6666666666666" y="64.0" type="curve" smooth="yes"/>
      <point x="399.0" y="64.0"/>
      <point x="234.33333333333334" y="207.33333333333334"/>
      <point x="235.0" y="392.6666666666667" type="curve" smooth="yes"/>
      <point x="234.33333333333334" y="580.6666666666666"/>
      <point x="402.6666666666667" y="729.3333333333334"/>
      <point x="621.6666666666666" y="729.3333333333334" type="curve" smooth="yes"/>
      <point x="839.3333333333334" y="729.3333333333334"/>
      <point x="1008.3333333333334" y="580.6666666666666"/>
      <point x="1008.6666666666666" y="392.6666666666667" type="curve" smooth="yes"/>
      <point x="1008.3333333333334" y="207.33333333333334"/>
      <point x="843.6666666666666" y="64.0"/>
    </contour>
    <contour>
      <point x="621.6666666666666" y="807.6666666666666" type="curve" smooth="yes"/>
      <point x="432.6666666666667" y="807.6666666666666"/>
      <point x="284.33333333333337" y="946.6666666666666"/>
      <point x="285.0" y="1122.3333333333333" type="curve" smooth="yes"/>
      <point x="284.33333333333337" y="1296.6666666666667"/>
      <point x="431.3333333333333" y="1426.3333333333333"/>
      <point x="621.6666666666666" y="1426.3333333333333" type="curve" smooth="yes"/>
      <point x="810.6666666666666" y="1426.3333333333333"/>
      <point x="957.3333333333334" y="1296.6666666666667"/>
      <point x="958.0" y="1122.3333333333333" type="curve" smooth="yes"/>
      <point x="957.3333333333334" y="946.6666666666666"/>
      <point x="809.0" y="807.6666666666666"/>
    </contour>
  </outline>
</glyph>
<glyph name="nine" format="2">
  <advance height="2479.0" width="1221.0"/>
  <unicode hex="0039"/>
  <outline>
    <contour>
      <point x="599.3333333333334" y="1510.0" type="curve" smooth="yes"/>
      <point x="332.0" y="1511.0"/>
      <point x="154.33333333333334" y="1292.0"/>
      <point x="154.33333333333334" y="1035.3333333333333" type="curve" smooth="yes"/>
      <point x="154.33333333333334" y="763.3333333333334"/>
      <point x="353.0" y="560.6666666666666"/>
      <point x="595.0" y="560.6666666666666" type="curve" smooth="yes"/>
      <point x="761.0" y="560.6666666666666"/>
      <point x="913.3333333333334" y="657.0"/>
      <point x="972.0" y="797.3333333333334" type="curve"/>
      <point x="979.0" y="797.3333333333334" type="line"/>
      <point x="979.0" y="325.6666666666667"/>
      <point x="839.0" y="64.0"/>
      <point x="581.6666666666666" y="64.0" type="curve" smooth="yes"/>
      <point x="399.3333333333333" y="64.0"/>
      <point x="286.0" y="194.33333333333334"/>
      <point x="266.0" y="375.0" type="curve"/>
      <point x="175.66666666666666" y="375.0" type="line"/>
      <point x="197.0" y="142.0"/>
      <point x="351.0" y="-20.0"/>
      <point x="581.6666666666666" y="-20.0" type="curve" smooth="yes"/>
      <point x="934.0" y="-20.0"/>
      <point x="1066.6666666666667" y="369.3333333333333"/>
      <point x="1066.6666666666667" y="813.3333333333334" type="curve" smooth="yes"/>
      <point x="1066.6666666666667" y="1308.3333333333333"/>
      <point x="849.6666666666666" y="1509.0"/>
    </contour>
    <contour>
      <point x="599.3333333333334" y="1425.3333333333333" type="curve" smooth="yes"/>
      <point x="783.6666666666666" y="1425.3333333333333"/>
      <point x="922.3333333333334" y="1282.6666666666667"/>
      <point x="955.0" y="1050.3333333333333" type="curve" smooth="yes"/>
      <point x="984.3333333333334" y="836.0"/>
      <point x="817.3333333333334" y="644.6666666666666"/>
      <point x="605.0" y="644.6666666666666" type="curve" smooth="yes"/>
      <point x="400.3333333333333" y="644.6666666666666"/>
      <point x="243.0" y="816.6666666666666"/>
      <point x="243.0" y="1035.3333333333333" type="curve" smooth="yes"/>
      <point x="243.0" y="1251.0"/>
      <point x="394.3333333333333" y="1425.3333333333333"/>
    </contour>
  </outline>
</glyph>
<glyph name="equal" format="2">
  <advance height="2479.0" width="1318.6666666666667"/>
  <unicode hex="003D"/>
  <outline>
    <contour>
      <point x="279.0" y="741.6666666666666" type="line"/>
      <point x="1039.6666666666667" y="741.6666666666666" type="line"/>
      <point x="1039.6666666666667" y="825.3333333333334" type="line"/>
      <point x="279.0" y="825.3333333333334" type="line"/>
    </contour>
    <contour>
      <point x="279.0" y="338.6666666666667" type="line"/>
      <point x="1039.6666666666667" y="338.6666666666667" type="line"/>
      <point x="1039.6666666666667" y="421.6666666666667" type="line"/>
      <point x="279.0" y="421.6666666666667" type="line"/>
    </contour>
  </outline>
</glyph>
<glyph name="question" format="2">
  <advance height="2479.0" width="999.6666666666666"/>
  <unicode hex="003F"/>
  <outline>
    <contour>
      <point x="410.3333333333333" y="434.3333333333333" type="line"/>
      <point x="499.3333333333333" y="434.3333333333333" type="line"/>
      <point x="499.3333333333333" y="505.3333333333333" type="line" smooth="yes"/>
      <point x="500.3333333333333" y="644.0"/>
      <point x="541.6666666666666" y="711.0"/>
      <point x="677.0" y="804.3333333333334" type="curve" smooth="yes"/>
      <point x="825.0" y="906.0"/>
      <point x="888.3333333333334" y="1000.6666666666666"/>
      <point x="888.3333333333334" y="1136.3333333333333" type="curve" smooth="yes"/>
      <point x="888.3333333333334" y="1352.0"/>
      <point x="723.0" y="1510.0"/>
      <point x="495.6666666666667" y="1510.0" type="curve" smooth="yes"/>
      <point x="268.3333333333333" y="1510.0"/>
      <point x="94.66666666666667" y="1348.6666666666667"/>
      <point x="91.0" y="1117.0" type="curve"/>
      <point x="183.66666666666669" y="1117.0" type="line"/>
      <point x="187.33333333333334" y="1306.3333333333333"/>
      <point x="324.0" y="1428.3333333333333"/>
      <point x="495.6666666666667" y="1428.3333333333333" type="curve" smooth="yes"/>
      <point x="666.0" y="1428.3333333333333"/>
      <point x="798.6666666666666" y="1310.0"/>
      <point x="798.6666666666666" y="1139.3333333333333" type="curve" smooth="yes"/>
      <point x="798.6666666666666" y="1030.6666666666667"/>
      <point x="745.3333333333334" y="952.3333333333334"/>
      <point x="619.0" y="866.0" type="curve" smooth="yes"/>
      <point x="471.3333333333333" y="767.0"/>
      <point x="411.0" y="687.0"/>
      <point x="410.3333333333333" y="505.3333333333333" type="curve" smooth="yes"/>
    </contour>
    <component base="period" xOffset="190.0"/>
  </outline>
</glyph>
<glyph name="at" format="2">
  <advance height="2479.0" width="1917.0"/>
  <unicode hex="0040"/>
  <outline>
    <contour>
      <point x="978.3333333333334" y="-395.0" type="curve" smooth="yes"/>
      <point x="1140.6666666666667" y="-395.0"/>
      <point x="1312.3333333333333" y="-345.0"/>
      <point x="1435.0" y="-266.3333333333333" type="curve"/>
      <point x="1402.0" y="-197.0" type="line"/>
      <point x="1297.3333333333333" y="-265.0"/>
      <point x="1140.3333333333333" y="-317.0"/>
      <point x="980.3333333333334" y="-317.0" type="curve" smooth="yes"/>
      <point x="516.0" y="-317.0"/>
      <point x="185.0" y="34.0"/>
      <point x="185.0" y="519.0" type="curve" smooth="yes"/>
      <point x="185.0" y="1001.0"/>
      <point x="517.6666666666666" y="1355.6666666666667"/>
      <point x="968.6666666666666" y="1355.6666666666667" type="curve" smooth="yes"/>
      <point x="1419.6666666666667" y="1355.6666666666667"/>
      <point x="1735.0" y="989.3333333333334"/>
      <point x="1735.0" y="560.6666666666666" type="curve" smooth="yes"/>
      <point x="1735.0" y="290.6666666666667"/>
      <point x="1636.0" y="123.33333333333334"/>
      <point x="1468.0" y="123.33333333333334" type="curve" smooth="yes"/>
      <point x="1380.6666666666667" y="123.33333333333334"/>
      <point x="1350.0" y="171.0"/>
      <point x="1350.0" y="292.6666666666667" type="curve" smooth="yes"/>
      <point x="1350.0" y="983.0" type="line"/>
      <point x="1267.3333333333333" y="983.0" type="line"/>
      <point x="1267.3333333333333" y="800.6666666666666" type="line"/>
      <point x="1260.3333333333333" y="800.6666666666666" type="line"/>
      <point x="1207.6666666666667" y="921.3333333333334"/>
      <point x="1080.3333333333333" y="1005.6666666666666"/>
      <point x="929.3333333333334" y="1001.0" type="curve" smooth="yes"/>
      <point x="703.0" y="993.0"/>
      <point x="526.0" y="789.0"/>
      <point x="526.0" y="523.6666666666666" type="curve" smooth="yes"/>
      <point x="526.0" y="253.0"/>
      <point x="691.6666666666666" y="39.0"/>
      <point x="929.3333333333334" y="36.0" type="curve" smooth="yes"/>
      <point x="1087.0" y="34.0"/>
      <point x="1205.6666666666667" y="127.0"/>
      <point x="1263.3333333333333" y="252.0" type="curve"/>
      <point x="1270.0" y="252.0" type="line"/>
      <point x="1276.0" y="99.66666666666666"/>
      <point x="1355.6666666666667" y="46.33333333333333"/>
      <point x="1467.0" y="46.33333333333333" type="curve" smooth="yes"/>
      <point x="1707.6666666666667" y="46.33333333333333"/>
      <point x="1816.0" y="289.0"/>
      <point x="1816.0" y="559.6666666666666" type="curve" smooth="yes"/>
      <point x="1816.0" y="1029.6666666666667"/>
      <point x="1467.0" y="1432.0"/>
      <point x="971.6666666666666" y="1432.0" type="curve" smooth="yes"/>
      <point x="468.3333333333333" y="1432.0"/>
      <point x="101.0" y="1047.3333333333333"/>
      <point x="101.0" y="521.0" type="curve" smooth="yes"/>
      <point x="101.0" y="-10.333333333333336"/>
      <point x="464.6666666666667" y="-395.0"/>
    </contour>
    <contour>
      <point x="937.0" y="116.0" type="curve" smooth="yes"/>
      <point x="740.0" y="116.0"/>
      <point x="607.0" y="303.3333333333333"/>
      <point x="607.0" y="526.6666666666666" type="curve" smooth="yes"/>
      <point x="607.0" y="743.6666666666666"/>
      <point x="749.6666666666666" y="922.0"/>
      <point x="939.0" y="922.0" type="curve" smooth="yes"/>
      <point x="1130.3333333333333" y="922.0"/>
      <point x="1270.0" y="768.6666666666666"/>
      <point x="1270.0" y="526.6666666666666" type="curve" smooth="yes"/>
      <point x="1270.0" y="284.3333333333333"/>
      <point x="1136.0" y="116.0"/>
    </contour>
  </outline>
</glyph>
<glyph name="A" format="2">
  <advance height="2479.0" width="1303.6666666666667"/>
  <unicode hex="0041"/>
  <anchor x="651.3333333333334" y="0.0" name="bottom"/>
  <anchor x="1241.3333333333333" y="0.0" name="ogonek"/>
  <anchor x="516.3333333333334" y="1489.0" name="tonos"/>
  <anchor x="651.3333333333334" y="1676.0" name="top"/>
  <outline>
    <contour>
      <point x="157.66666666666669" y="0.0" type="line"/>
      <point x="647.6666666666666" y="1372.0" type="line"/>
      <point x="655.3333333333334" y="1372.0" type="line"/>
      <point x="1145.0" y="0.0" type="line"/>
      <point x="1241.3333333333333" y="0.0" type="line"/>
      <point x="703.6666666666666" y="1489.0" type="line"/>
      <point x="599.0" y="1489.0" type="line"/>
      <point x="62.0" y="0.0" type="line"/>
    </contour>
    <contour>
      <point x="293.6666666666667" y="560.6666666666666" type="line"/>
      <point x="293.6666666666667" y="476.0" type="line"/>
      <point x="1009.0" y="476.0" type="line"/>
      <point x="1009.0" y="560.6666666666666" type="line"/>
    </contour>
  </outline>
</glyph>
<glyph name="B" format="2">
  <advance height="2479.0" width="1318.6666666666667"/>
  <unicode hex="0042"/>
  <anchor x="640.0" y="0.0" name="bottom"/>
  <anchor x="625.6666666666666" y="1676.0" name="top"/>
  <outline>
    <contour>
      <point x="215.33333333333331" y="0.0" type="line"/>
      <point x="738.3333333333334" y="0.0" type="line" smooth="yes"/>
      <point x="1026.3333333333333" y="0.0"/>
      <point x="1175.3333333333333" y="158.0"/>
      <point x="1175.3333333333333" y="386.0" type="curve" smooth="yes"/>
      <point x="1175.3333333333333" y="602.3333333333334"/>
      <point x="1038.3333333333333" y="746.3333333333334"/>
      <point x="885.3333333333334" y="758.0" type="curve"/>
      <point x="885.3333333333334" y="767.0" type="line"/>
      <point x="1024.0" y="803.0"/>
      <point x="1117.3333333333333" y="924.6666666666666"/>
      <point x="1117.3333333333333" y="1105.3333333333333" type="curve" smooth="yes"/>
      <point x="1117.3333333333333" y="1334.6666666666667"/>
      <point x="969.3333333333334" y="1489.0"/>
      <point x="699.0" y="1489.0" type="curve" smooth="yes"/>
      <point x="215.33333333333331" y="1489.0" type="line"/>
    </contour>
    <contour>
      <point x="306.3333333333333" y="84.66666666666667" type="line"/>
      <point x="306.3333333333333" y="714.6666666666666" type="line"/>
      <point x="741.0" y="714.6666666666666" type="line" smooth="yes"/>
      <point x="946.0" y="714.6666666666666"/>
      <point x="1086.6666666666667" y="574.3333333333334"/>
      <point x="1086.6666666666667" y="386.0" type="curve" smooth="yes"/>
      <point x="1086.6666666666667" y="208.33333333333334"/>
      <point x="962.0" y="84.66666666666667"/>
      <point x="738.3333333333334" y="84.66666666666667" type="curve" smooth="yes"/>
    </contour>
    <contour>
      <point x="306.3333333333333" y="798.3333333333334" type="line"/>
      <point x="306.3333333333333" y="1405.0" type="line"/>
      <point x="699.0" y="1405.0" type="line" smooth="yes"/>
      <point x="909.6666666666666" y="1405.0"/>
      <point x="1028.6666666666667" y="1290.3333333333333"/>
      <point x="1028.6666666666667" y="1105.3333333333333" type="curve" smooth="yes"/>
      <point x="1028.6666666666667" y="935.0"/>
      <point x="920.0" y="798.3333333333334"/>
      <point x="730.3333333333334" y="798.3333333333334" type="curve" smooth="yes"/>
    </contour>
  </outline>
</glyph>
<glyph name="C" format="2">
  <advance height="2479.0" width="1483.6666666666667"/>
  <unicode hex="0043"/>
  <anchor x="770.0" y="-4.0" name="cedilla"/>
  <anchor x="770.0" y="1676.0" name="top"/>
  <outline>
    <contour>
      <point x="1349.6666666666667" y="1024.0" type="line"/>
      <point x="1307.3333333333333" y="1267.0"/>
      <point x="1103.6666666666667" y="1510.0"/>
      <point x="770.0" y="1510.0" type="curve" smooth="yes"/>
      <point x="399.0" y="1510.0"/>
      <point x="139.33333333333334" y="1206.0"/>
      <point x="139.33333333333334" y="745.0" type="curve"/>
      <point x="139.33333333333334" y="283.0"/>
      <point x="399.0" y="-20.0"/>
      <point x="770.0" y="-20.0" type="curve" smooth="yes"/>
      <point x="1103.6666666666667" y="-20.0"/>
      <point x="1307.3333333333333" y="224.0"/>
      <point x="1349.6666666666667" y="465.0" type="curve"/>
      <point x="1257.0" y="465.0" type="line"/>
      <point x="1217.6666666666667" y="263.0"/>
      <point x="1038.3333333333333" y="66.66666666666667"/>
      <point x="770.0" y="66.66666666666667" type="curve" smooth="yes"/>
      <point x="476.3333333333333" y="66.66666666666667"/>
      <point x="229.0" y="303.3333333333333"/>
      <point x="229.0" y="745.0" type="curve"/>
      <point x="229.0" y="1182.0"/>
      <point x="476.3333333333333" y="1422.3333333333333"/>
      <point x="770.0" y="1422.3333333333333" type="curve" smooth="yes"/>
      <point x="1038.3333333333333" y="1422.3333333333333"/>
      <point x="1217.6666666666667" y="1225.0"/>
      <point x="1257.0" y="1024.0" type="curve"/>
    </contour>
  </outline>
</glyph>
<glyph name="D" format="2">
  <advance height="2479.0" width="1466.0"/>
  <unicode hex="0044"/>
  <anchor x="601.6666666666666" y="0.0" name="bottom"/>
  <anchor x="261.0" y="760.0" name="cross"/>
  <anchor x="626.3333333333334" y="1676.0" name="top"/>
  <outline>
    <contour>
      <point x="628.6666666666666" y="0.0" type="line" smooth="yes"/>
      <point x="1071.3333333333333" y="0.0"/>
      <point x="1325.3333333333333" y="277.3333333333333"/>
      <point x="1326.6666666666667" y="750.0" type="curve" smooth="yes"/>
      <point x="1327.3333333333333" y="1212.6666666666667"/>
      <point x="1078.6666666666667" y="1489.0"/>
      <point x="660.0" y="1489.0" type="curve" smooth="yes"/>
      <point x="261.6666666666667" y="1489.0" type="line"/>
      <point x="261.6666666666667" y="1405.0" type="line"/>
      <point x="656.3333333333334" y="1405.0" type="line" smooth="yes"/>
      <point x="1030.6666666666667" y="1405.0"/>
      <point x="1236.3333333333333" y="1159.3333333333333"/>
      <point x="1237.0" y="750.0" type="curve" smooth="yes"/>
      <point x="1238.3333333333333" y="334.0"/>
      <point x="1023.3333333333334" y="84.66666666666667"/>
      <point x="624.6666666666666" y="84.66666666666667" type="curve" smooth="yes"/>
      <point x="264.6666666666667" y="84.66666666666667" type="line"/>
      <point x="264.6666666666667" y="0.0" type="line"/>
    </contour>
    <contour>
      <point x="306.3333333333333" y="1489.0" type="line"/>
      <point x="215.33333333333331" y="1489.0" type="line"/>
      <point x="215.33333333333331" y="0.0" type="line"/>
      <point x="306.3333333333333" y="0.0" type="line"/>
    </contour>
  </outline>
</glyph>
<glyph name="E" format="2">
  <advance height="2479.0" width="1205.6666666666667"/>
  <unicode hex="0045"/>
  <anchor x="604.0" y="0.0" name="bottom"/>
  <anchor x="607.0" y="0.0" name="cedilla"/>
  <anchor x="1061.6666666666667" y="0.0" name="ogonek"/>
  <anchor x="164.66666666666666" y="1489.0" name="tonos"/>
  <anchor x="632.0" y="1676.0" name="top"/>
  <outline>
    <contour>
      <point x="215.33333333333331" y="0.0" type="line"/>
      <point x="1061.6666666666667" y="0.0" type="line"/>
      <point x="1061.6666666666667" y="84.66666666666667" type="line"/>
      <point x="306.3333333333333" y="84.66666666666667" type="line"/>
      <point x="306.3333333333333" y="702.6666666666666" type="line"/>
      <point x="999.6666666666666" y="702.6666666666666" type="line"/>
      <point x="999.6666666666666" y="787.3333333333334" type="line"/>
      <point x="306.3333333333333" y="787.3333333333334" type="line"/>
      <point x="306.3333333333333" y="1405.0" type="line"/>
      <point x="1044.3333333333333" y="1405.0" type="line"/>
      <point x="1044.3333333333333" y="1489.0" type="line"/>
      <point x="215.33333333333331" y="1489.0" type="line"/>
    </contour>
  </outline>
</glyph>
<glyph name="F" format="2">
  <advance height="2479.0" width="1199.6666666666667"/>
  <unicode hex="0046"/>
  <anchor x="525.6666666666666" y="12.0" name="bottom"/>
  <anchor x="261.0" y="389.6666666666667" name="cross"/>
  <anchor x="638.0" y="1676.0" name="top"/>
  <outline>
    <contour>
      <point x="215.33333333333331" y="0.0" type="line"/>
      <point x="306.3333333333333" y="0.0" type="line"/>
      <point x="306.3333333333333" y="702.6666666666666" type="line"/>
      <point x="977.6666666666666" y="702.6666666666666" type="line"/>
      <point x="977.6666666666666" y="787.3333333333334" type="line"/>
      <point x="306.3333333333333" y="787.3333333333334" type="line"/>
      <point x="306.3333333333333" y="1405.0" type="line"/>
      <point x="1046.3333333333333" y="1405.0" type="line"/>
      <point x="1046.3333333333333" y="1489.0" type="line"/>
      <point x="215.33333333333331" y="1489.0" type="line"/>
    </contour>
  </outline>
</glyph>
<glyph name="G" format="2">
  <advance height="2479.0" width="1515.6666666666667"/>
  <unicode hex="0047"/>
  <anchor x="761.0" y="0.0" name="bottom"/>
  <anchor x="762.0" y="1676.0" name="top"/>
  <outline>
    <contour>
      <point x="1259.0" y="1024.0" type="curve"/>
      <point x="1351.6666666666667" y="1024.0" type="line"/>
      <point x="1309.6666666666667" y="1261.3333333333333"/>
      <point x="1104.6666666666667" y="1510.0"/>
      <point x="768.0" y="1510.0" type="curve" smooth="yes"/>
      <point x="394.6666666666667" y="1510.0"/>
      <point x="139.33333333333334" y="1207.3333333333333"/>
      <point x="139.33333333333334" y="745.0" type="curve" smooth="yes"/>
      <point x="139.33333333333334" y="283.6666666666667"/>
      <point x="392.0" y="-20.0"/>
      <point x="775.6666666666666" y="-20.0" type="curve" smooth="yes"/>
      <point x="1116.6666666666667" y="-20.0"/>
      <point x="1362.3333333333333" y="219.33333333333334"/>
      <point x="1362.3333333333333" y="613.6666666666666" type="curve" smooth="yes"/>
      <point x="1362.3333333333333" y="698.3333333333334" type="line"/>
      <point x="798.6666666666666" y="698.3333333333334" type="line"/>
      <point x="798.6666666666666" y="613.6666666666666" type="line"/>
      <point x="1305.3333333333333" y="613.6666666666666" type="line"/>
      <point x="1273.0" y="629.3333333333334" type="line"/>
      <point x="1277.0" y="278.0"/>
      <point x="1068.3333333333333" y="66.66666666666667"/>
      <point x="775.6666666666666" y="66.66666666666667" type="curve" smooth="yes"/>
      <point x="449.0" y="66.66666666666667"/>
      <point x="229.0" y="332.0"/>
      <point x="229.0" y="745.0" type="curve" smooth="yes"/>
      <point x="229.0" y="1160.6666666666667"/>
      <point x="451.6666666666667" y="1422.3333333333333"/>
      <point x="768.0" y="1422.3333333333333" type="curve" smooth="yes"/>
      <point x="1043.6666666666667" y="1422.3333333333333"/>
      <point x="1213.6666666666667" y="1224.6666666666667"/>
    </contour>
  </outline>
</glyph>
<glyph name="J" format="2">
  <advance height="2479.0" width="1080.6666666666667"/>
  <unicode hex="004A"/>
  <anchor x="819.6666666666666" y="884.0" name="cross"/>
  <anchor x="819.6666666666666" y="1676.0" name="top"/>
  <outline>
    <contour>
      <point x="773.6666666666666" y="1489.0" type="line"/>
      <point x="773.6666666666666" y="405.6666666666667" type="line"/>
      <point x="773.0" y="159.0"/>
      <point x="643.3333333333334" y="64.0"/>
      <point x="482.6666666666667" y="64.0" type="curve" smooth="yes"/>
      <point x="317.3333333333333" y="64.0"/>
      <point x="191.33333333333334" y="163.66666666666669"/>
      <point x="192.0" y="302.3333333333333" type="curve"/>
      <point x="102.0" y="302.3333333333333" type="line"/>
      <point x="100.66666666666666" y="112.0"/>
      <point x="264.6666666666667" y="-20.0"/>
      <point x="482.6666666666667" y="-20.0" type="curve" smooth="yes"/>
      <point x="696.3333333333334" y="-20.0"/>
      <point x="864.3333333333334" y="108.33333333333334"/>
      <point x="865.0" y="405.6666666666667" type="curve"/>
      <point x="865.0" y="1489.0" type="line"/>
    </contour>
  </outline>
</glyph>
<glyph name="K" format="2">
  <advance height="2479.0" width="1287.0"/>
  <unicode hex="004B"/>
  <anchor x="645.6666666666666" y="0.0" name="bottom"/>
  <anchor x="649.6666666666666" y="1676.0" name="top"/>
  <outline>
    <contour>
      <point x="215.33333333333331" y="0.0" type="line"/>
      <point x="306.3333333333333" y="0.0" type="line"/>
      <point x="306.3333333333333" y="485.0" type="line"/>
      <point x="517.6666666666666" y="719.3333333333334" type="line"/>
      <point x="1103.6666666666667" y="0.0" type="line"/>
      <point x="1217.0" y="0.0" type="line"/>
      <point x="575.6666666666666" y="784.3333333333334" type="line"/>
      <point x="1223.0" y="1489.0" type="line"/>
      <point x="1101.6666666666667" y="1489.0" type="line"/>
      <point x="316.0" y="624.3333333333334" type="line"/>
      <point x="306.3333333333333" y="624.3333333333334" type="line"/>
      <point x="306.3333333333333" y="1489.0" type="line"/>
      <point x="215.33333333333331" y="1489.0" type="line"/>
    </contour>
  </outline>
</glyph>
<glyph name="L" format="2">
  <advance height="2479.0" width="1152.0"/>
  <unicode hex="004C"/>
  <anchor x="624.3333333333334" y="0.0" name="bottom"/>
  <anchor x="261.0" y="768.0" name="cross"/>
  <anchor x="605.0" y="763.3333333333334" name="dot"/>
  <anchor x="621.3333333333334" y="1489.0" name="raccent"/>
  <anchor x="261.0" y="1676.0" name="top"/>
  <outline>
    <contour>
      <point x="215.33333333333331" y="0.0" type="line"/>
      <point x="1033.6666666666667" y="0.0" type="line"/>
      <point x="1033.6666666666667" y="84.66666666666667" type="line"/>
      <point x="306.3333333333333" y="84.66666666666667" type="line"/>
      <point x="306.3333333333333" y="1489.0" type="line"/>
      <point x="215.33333333333331" y="1489.0" type="line"/>
    </contour>
  </outline>
</glyph>
<glyph name="M" format="2">
  <advance height="2479.0" width="1786.6666666666667"/>
  <unicode hex="004D"/>
  <anchor x="893.0" y="0.0" name="bottom"/>
  <anchor x="1571.0" y="0.0" name="right"/>
  <anchor x="893.0" y="1676.0" name="top"/>
  <outline>
    <contour>
      <point x="215.33333333333331" y="1489.0" type="line"/>
      <point x="215.33333333333331" y="0.0" type="line"/>
      <point x="302.3333333333333" y="0.0" type="line"/>
      <point x="302.3333333333333" y="1273.3333333333333" type="line"/>
      <point x="311.3333333333333" y="1273.3333333333333" type="line"/>
      <point x="850.3333333333334" y="0.0" type="line"/>
      <point x="936.0" y="0.0" type="line"/>
      <point x="1475.0" y="1273.3333333333333" type="line"/>
      <point x="1483.3333333333333" y="1273.3333333333333" type="line"/>
      <point x="1483.3333333333333" y="0.0" type="line"/>
      <point x="1571.0" y="0.0" type="line"/>
      <point x="1571.0" y="1489.0" type="line"/>
      <point x="1471.6666666666667" y="1489.0" type="line"/>
      <point x="897.6666666666666" y="131.0" type="line"/>
      <point x="888.0" y="131.0" type="line"/>
      <point x="314.0" y="1489.0" type="line"/>
    </contour>
  </outline>
</glyph>
<glyph name="N" format="2">
  <advance height="2479.0" width="1569.3333333333333"/>
  <unicode hex="004E"/>
  <anchor x="784.3333333333334" y="0.0" name="bottom"/>
  <anchor x="1319.6666666666667" y="0.0" name="right"/>
  <anchor x="784.3333333333334" y="1676.0" name="top"/>
  <outline>
    <contour>
      <point x="1353.6666666666667" y="1489.0" type="line"/>
      <point x="1263.3333333333333" y="1489.0" type="line"/>
      <point x="1263.3333333333333" y="163.66666666666669" type="line"/>
      <point x="1254.3333333333333" y="163.66666666666669" type="line"/>
      <point x="304.3333333333333" y="1489.0" type="line"/>
      <point x="215.33333333333331" y="1489.0" type="line"/>
      <point x="215.33333333333331" y="0.0" type="line"/>
      <point x="306.3333333333333" y="0.0" type="line"/>
      <point x="306.3333333333333" y="1324.3333333333333" type="line"/>
      <point x="315.0" y="1324.3333333333333" type="line"/>
      <point x="1264.3333333333333" y="0.0" type="line"/>
      <point x="1353.6666666666667" y="0.0" type="line"/>
    </contour>
  </outline>
</glyph>
<glyph name="O" format="2">
  <advance height="2479.0" width="1539.6666666666667"/>
  <unicode hex="004F"/>
  <anchor x="770.0" y="0.0" name="bottom"/>
  <anchor x="840.6666666666666" y="-2.0" name="ogonek"/>
  <anchor x="213.33333333333334" y="1489.0" name="tonos"/>
  <anchor x="770.0" y="1676.0" name="top"/>
  <outline>
    <contour>
      <point x="1400.3333333333333" y="745.0" type="curve"/>
      <point x="1400.3333333333333" y="1205.3333333333333"/>
      <point x="1141.6666666666667" y="1510.0"/>
      <point x="770.0" y="1510.0" type="curve" smooth="yes"/>
      <point x="398.3333333333333" y="1510.0"/>
      <point x="139.33333333333334" y="1204.6666666666667"/>
      <point x="139.33333333333334" y="745.0" type="curve"/>
      <point x="139.33333333333334" y="285.0"/>
      <point x="397.6666666666667" y="-20.0"/>
      <point x="770.0" y="-20.0" type="curve" smooth="yes"/>
      <point x="1141.6666666666667" y="-20.0"/>
      <point x="1400.3333333333333" y="283.6666666666667"/>
    </contour>
    <contour>
      <point x="1311.0" y="745.0" type="curve"/>
      <point x="1311.6666666666667" y="330.6666666666667"/>
      <point x="1086.0" y="66.66666666666667"/>
      <point x="770.0" y="66.66666666666667" type="curve" smooth="yes"/>
      <point x="451.6666666666667" y="66.66666666666667"/>
      <point x="229.0" y="332.6666666666667"/>
      <point x="229.0" y="745.0" type="curve"/>
      <point x="229.0" y="1160.6666666666667"/>
      <point x="455.0" y="1422.3333333333333"/>
      <point x="770.0" y="1422.3333333333333" type="curve" smooth="yes"/>
      <point x="1086.0" y="1422.3333333333333"/>
      <point x="1311.0" y="1158.6666666666667"/>
    </contour>
  </outline>
</glyph>
<glyph name="P" format="2">
  <advance height="2479.0" width="1261.3333333333333"/>
  <unicode hex="0050"/>
  <anchor x="174.33333333333334" y="1489.0" name="tonos"/>
  <anchor x="641.0" y="1676.0" name="top"/>
  <outline>
    <contour>
      <point x="215.33333333333331" y="0.0" type="line"/>
      <point x="306.3333333333333" y="0.0" type="line"/>
      <point x="306.3333333333333" y="1405.0" type="line"/>
      <point x="672.0" y="1405.0" type="line" smooth="yes"/>
      <point x="901.3333333333334" y="1405.0"/>
      <point x="1037.3333333333333" y="1253.0"/>
      <point x="1037.3333333333333" y="1041.3333333333333" type="curve" smooth="yes"/>
      <point x="1037.3333333333333" y="830.3333333333334"/>
      <point x="901.3333333333334" y="678.6666666666666"/>
      <point x="673.0" y="678.6666666666666" type="curve" smooth="yes"/>
      <point x="279.3333333333333" y="678.6666666666666" type="line"/>
      <point x="279.3333333333333" y="594.6666666666666" type="line"/>
      <point x="675.0" y="594.6666666666666" type="line" smooth="yes"/>
      <point x="957.0" y="594.6666666666666"/>
      <point x="1128.0" y="784.3333333333334"/>
      <point x="1128.0" y="1041.3333333333333" type="curve" smooth="yes"/>
      <point x="1128.0" y="1299.0"/>
      <point x="957.0" y="1489.0"/>
      <point x="674.0" y="1489.0" type="curve" smooth="yes"/>
      <point x="215.33333333333331" y="1489.0" type="line"/>
    </contour>
  </outline>
</glyph>
<glyph name="Q" format="2">
  <advance height="2479.0" width="1539.6666666666667"/>
  <unicode hex="0051"/>
  <anchor x="770.0" y="0.0" name="bottom"/>
  <anchor x="840.6666666666666" y="-2.0" name="ogonek"/>
  <anchor x="213.33333333333334" y="1489.0" name="tonos"/>
  <anchor x="770.0" y="1676.0" name="top"/>
  <outline>
    <contour>
      <point x="789.0" y="465.0" type="line"/>
      <point x="1046.3333333333333" y="126.0" type="line"/>
      <point x="1065.6666666666667" y="100.33333333333333" type="line"/>
      <point x="1246.0" y="-140.0" type="line"/>
      <point x="1350.6666666666667" y="-140.0" type="line"/>
      <point x="1131.0" y="152.33333333333334" type="line"/>
      <point x="1110.3333333333333" y="179.0" type="line"/>
      <point x="893.6666666666666" y="465.0" type="line"/>
    </contour>
    <component base="O"/>
  </outline>
</glyph>
<glyph name="R" format="2">
  <advance height="2479.0" width="1276.3333333333333"/>
  <unicode hex="0052"/>
  <anchor x="654.6666666666666" y="0.0" name="bottom"/>
  <anchor x="632.0" y="1676.0" name="top"/>
  <outline>
    <contour>
      <point x="215.33333333333331" y="0.0" type="line"/>
      <point x="306.3333333333333" y="0.0" type="line"/>
      <point x="306.3333333333333" y="1405.0" type="line"/>
      <point x="672.0" y="1405.0" type="line" smooth="yes"/>
      <point x="901.0" y="1405.0"/>
      <point x="1037.3333333333333" y="1266.0"/>
      <point x="1037.3333333333333" y="1054.3333333333333" type="curve" smooth="yes"/>
      <point x="1037.3333333333333" y="843.3333333333334"/>
      <point x="901.0" y="707.6666666666666"/>
      <point x="673.0" y="707.6666666666666" type="curve" smooth="yes"/>
      <point x="263.6666666666667" y="707.6666666666666" type="line"/>
      <point x="263.6666666666667" y="622.6666666666666" type="line"/>
      <point x="675.0" y="622.6666666666666" type="line" smooth="yes"/>
      <point x="957.0" y="622.6666666666666"/>
      <point x="1128.0" y="797.0"/>
      <point x="1128.0" y="1054.3333333333333" type="curve" smooth="yes"/>
      <point x="1128.0" y="1312.0"/>
      <point x="957.0" y="1489.0"/>
      <point x="674.0" y="1489.0" type="curve" smooth="yes"/>
      <point x="215.33333333333331" y="1489.0" type="line"/>
    </contour>
    <contour>
      <point x="827.0" y="675.0" type="line"/>
      <point x="724.6666666666666" y="675.0" type="line"/>
      <point x="1089.0" y="0.0" type="line"/>
      <point x="1194.0" y="0.0" type="line"/>
    </contour>
  </outline>
</glyph>
<glyph name="S" format="2">
  <advance height="2479.0" width="1271.3333333333333"/>
  <unicode hex="0053"/>
  <anchor x="637.0" y="-24.0" name="bottom"/>
  <anchor x="637.0" y="0.0" name="cedilla"/>
  <anchor x="636.0" y="1676.0" name="top"/>
  <outline>
    <contour>
      <point x="1018.3333333333334" y="1117.0" type="curve"/>
      <point x="1107.0" y="1117.0" type="line"/>
      <point x="1095.0" y="1345.3333333333333"/>
      <point x="910.6666666666666" y="1512.0"/>
      <point x="644.6666666666666" y="1512.0" type="curve" smooth="yes"/>
      <point x="380.3333333333333" y="1512.0"/>
      <point x="180.33333333333334" y="1346.6666666666667"/>
      <point x="180.33333333333334" y="1117.3333333333333" type="curve" smooth="yes"/>
      <point x="180.33333333333334" y="935.0"/>
      <point x="305.6666666666667" y="815.3333333333334"/>
      <point x="539.0" y="743.6666666666666" type="curve" smooth="yes"/>
      <point x="713.0" y="691.6666666666666" type="line" smooth="yes"/>
      <point x="926.0" y="627.0"/>
      <point x="1038.3333333333333" y="544.0"/>
      <point x="1038.3333333333333" y="387.6666666666667" type="curve" smooth="yes"/>
      <point x="1038.3333333333333" y="192.66666666666669"/>
      <point x="872.0" y="61.0"/>
      <point x="632.6666666666666" y="61.0" type="curve" smooth="yes"/>
      <point x="409.33333333333337" y="61.0"/>
      <point x="251.0" y="175.66666666666669"/>
      <point x="237.0" y="360.6666666666667" type="curve"/>
      <point x="143.33333333333334" y="360.6666666666667" type="line"/>
      <point x="159.33333333333334" y="133.33333333333334"/>
      <point x="344.6666666666667" y="-24.0"/>
      <point x="632.6666666666666" y="-24.0" type="curve" smooth="yes"/>
      <point x="935.0" y="-24.0"/>
      <point x="1128.0" y="151.0"/>
      <point x="1128.0" y="386.6666666666667" type="curve" smooth="yes"/>
      <point x="1128.0" y="602.0"/>
      <point x="961.0" y="709.3333333333334"/>
      <point x="737.6666666666666" y="775.6666666666666" type="curve" smooth="yes"/>
      <point x="575.3333333333334" y="824.3333333333334" type="line" smooth="yes"/>
      <point x="395.6666666666667" y="877.3333333333334"/>
      <point x="270.0" y="965.6666666666666"/>
      <point x="270.0" y="1120.3333333333333" type="curve" smooth="yes"/>
      <point x="270.0" y="1297.6666666666667"/>
      <point x="425.6666666666667" y="1427.3333333333333"/>
      <point x="642.6666666666666" y="1427.3333333333333" type="curve" smooth="yes"/>
      <point x="857.0" y="1427.3333333333333"/>
      <point x="1002.3333333333334" y="1302.0"/>
    </contour>
  </outline>
</glyph>
<glyph name="T" format="2">
  <advance height="2479.0" width="1276.3333333333333"/>
  <unicode hex="0054"/>
  <anchor x="637.6666666666666" y="0.0" name="bottom"/>
  <anchor x="645.6666666666666" y="-4.0" name="cedilla"/>
  <anchor x="637.6666666666666" y="768.0" name="cross"/>
  <anchor x="724.3333333333334" y="25.333333333333336" name="cyrtic"/>
  <anchor x="659.3333333333334" y="0.0" name="right"/>
  <anchor x="637.6666666666666" y="1676.0" name="top"/>
  <outline>
    <contour>
      <point x="116.33333333333333" y="1405.0" type="line"/>
      <point x="592.3333333333334" y="1405.0" type="line"/>
      <point x="592.3333333333334" y="0.0" type="line"/>
      <point x="684.0" y="0.0" type="line"/>
      <point x="684.0" y="1405.0" type="line"/>
      <point x="1160.0" y="1405.0" type="line"/>
      <point x="1160.0" y="1489.0" type="line"/>
      <point x="116.33333333333333" y="1489.0" type="line"/>
    </contour>
  </outline>
</glyph>
<glyph name="U" format="2">
  <advance height="2479.0" width="1530.3333333333333"/>
  <unicode hex="0055"/>
  <anchor x="765.0" y="-22.0" name="bottom"/>
  <anchor x="854.6666666666666" y="0.0" name="ogonek"/>
  <anchor x="834.0" y="0.0" name="right"/>
  <anchor x="765.0" y="1676.0" name="top"/>
  <outline>
    <contour>
      <point x="1224.0" y="1489.0" type="line"/>
      <point x="1224.0" y="508.0" type="line" smooth="yes"/>
      <point x="1224.0" y="252.0"/>
      <point x="1035.3333333333333" y="63.0"/>
      <point x="765.0" y="63.0" type="curve" smooth="yes"/>
      <point x="495.0" y="63.0"/>
      <point x="306.3333333333333" y="252.0"/>
      <point x="306.3333333333333" y="508.0" type="curve" smooth="yes"/>
      <point x="306.3333333333333" y="1489.0" type="line"/>
      <point x="215.33333333333331" y="1489.0" type="line"/>
      <point x="215.33333333333331" y="503.0" type="line" smooth="yes"/>
      <point x="214.0" y="200.66666666666666"/>
      <point x="445.0" y="-24.0"/>
      <point x="765.0" y="-24.0" type="curve" smooth="yes"/>
      <point x="1086.0" y="-24.0"/>
      <point x="1314.6666666666667" y="200.0"/>
      <point x="1314.6666666666667" y="503.0" type="curve" smooth="yes"/>
      <point x="1314.6666666666667" y="1489.0" type="line"/>
    </contour>
  </outline>
</glyph>
<glyph name="V" format="2">
  <advance height="2479.0" width="1303.6666666666667"/>
  <unicode hex="0056"/>
  <anchor x="651.3333333333334" y="0.0" name="bottom"/>
  <anchor x="651.3333333333334" y="1676.0" name="top"/>
  <outline>
    <contour>
      <point x="157.66666666666669" y="1489.0" type="line"/>
      <point x="62.0" y="1489.0" type="line"/>
      <point x="599.0" y="0.0" type="line"/>
      <point x="703.6666666666666" y="0.0" type="line"/>
      <point x="1241.3333333333333" y="1489.0" type="line"/>
      <point x="1145.0" y="1489.0" type="line"/>
      <point x="656.3333333333334" y="117.33333333333334" type="line"/>
      <point x="646.6666666666666" y="117.33333333333334" type="line"/>
    </contour>
  </outline>
</glyph>
<glyph name="W" format="2">
  <advance height="2479.0" width="1861.6666666666667"/>
  <unicode hex="0057"/>
  <anchor x="930.6666666666666" y="12.0" name="bottom"/>
  <anchor x="930.6666666666666" y="1676.0" name="top"/>
  <outline>
    <contour>
      <point x="460.3333333333333" y="0.0" type="line"/>
      <point x="565.0" y="0.0" type="line"/>
      <point x="927.3333333333334" y="1340.3333333333333" type="line"/>
      <point x="934.3333333333334" y="1340.3333333333333" type="line"/>
      <point x="1296.6666666666667" y="0.0" type="line"/>
      <point x="1401.3333333333333" y="0.0" type="line"/>
      <point x="1810.6666666666667" y="1489.0" type="line"/>
      <point x="1716.0" y="1489.0" type="line"/>
      <point x="1352.3333333333333" y="140.66666666666669" type="line"/>
      <point x="1344.3333333333333" y="140.66666666666669" type="line"/>
      <point x="985.6666666666666" y="1489.0" type="line"/>
      <point x="875.3333333333334" y="1489.0" type="line"/>
      <point x="517.6666666666666" y="140.66666666666669" type="line"/>
      <point x="508.6666666666667" y="140.66666666666669" type="line"/>
      <point x="145.66666666666669" y="1489.0" type="line"/>
      <point x="51.333333333333336" y="1489.0" type="line"/>
    </contour>
  </outline>
</glyph>
<glyph name="X" format="2">
  <advance height="2479.0" width="1237.6666666666667"/>
  <unicode hex="0058"/>
  <anchor x="618.3333333333334" y="12.0" name="bottom"/>
  <anchor x="618.3333333333334" y="745.0" name="cross"/>
  <anchor x="1160.0" y="25.333333333333336" name="cyrtic"/>
  <anchor x="1095.6666666666667" y="0.0" name="right"/>
  <anchor x="618.3333333333334" y="1676.0" name="top"/>
  <outline>
    <contour>
      <point x="174.66666666666669" y="1489.0" type="line"/>
      <point x="65.0" y="1489.0" type="line"/>
      <point x="558.3333333333334" y="745.0" type="line"/>
      <point x="65.0" y="0.0" type="line"/>
      <point x="174.66666666666669" y="0.0" type="line"/>
      <point x="614.6666666666666" y="670.0" type="line"/>
      <point x="622.3333333333334" y="670.0" type="line"/>
      <point x="1063.0" y="0.0" type="line"/>
      <point x="1172.6666666666667" y="0.0" type="line"/>
      <point x="682.3333333333334" y="745.0" type="line"/>
      <point x="1172.6666666666667" y="1489.0" type="line"/>
      <point x="1063.0" y="1489.0" type="line"/>
      <point x="622.3333333333334" y="815.3333333333334" type="line"/>
      <point x="614.6666666666666" y="815.3333333333334" type="line"/>
    </contour>
  </outline>
</glyph>
<glyph name="Y" format="2">
  <advance height="2479.0" width="1291.6666666666667"/>
  <unicode hex="0059"/>
  <anchor x="643.6666666666666" y="0.0" name="bottom"/>
  <anchor x="645.6666666666666" y="601.0" name="cross"/>
  <anchor x="691.6666666666666" y="0.0" name="ogonek"/>
  <anchor x="28.333333333333332" y="1489.0" name="tonos"/>
  <anchor x="645.6666666666666" y="1676.0" name="top"/>
  <outline>
    <contour>
      <point x="64.0" y="1489.0" type="line"/>
      <point x="600.3333333333334" y="676.0" type="line"/>
      <point x="600.3333333333334" y="0.0" type="line"/>
      <point x="691.6666666666666" y="0.0" type="line"/>
      <point x="691.6666666666666" y="676.0" type="line"/>
      <point x="1227.6666666666667" y="1489.0" type="line"/>
      <point x="1120.3333333333333" y="1489.0" type="line"/>
      <point x="650.3333333333334" y="770.6666666666666" type="line"/>
      <point x="640.6666666666666" y="770.6666666666666" type="line"/>
      <point x="171.66666666666669" y="1489.0" type="line"/>
    </contour>
  </outline>
</glyph>
<glyph name="Z" format="2">
  <advance height="2479.0" width="1252.6666666666667"/>
  <unicode hex="005A"/>
  <anchor x="624.6666666666666" y="0.0" name="bottom"/>
  <anchor x="631.6666666666666" y="752.6666666666666" name="cross"/>
  <anchor x="626.6666666666666" y="1676.0" name="top"/>
  <outline>
    <contour>
      <point x="146.33333333333334" y="0.0" type="line"/>
      <point x="1113.3333333333333" y="0.0" type="line"/>
      <point x="1113.3333333333333" y="84.66666666666667" type="line"/>
      <point x="254.66666666666669" y="84.66666666666667" type="line"/>
      <point x="1106.3333333333333" y="1415.0" type="line"/>
      <point x="1106.3333333333333" y="1489.0" type="line"/>
      <point x="147.33333333333334" y="1489.0" type="line"/>
      <point x="147.33333333333334" y="1405.0" type="line"/>
      <point x="998.0" y="1405.0" type="line"/>
      <point x="146.33333333333334" y="75.0" type="line"/>
    </contour>
  </outline>
</glyph>
<glyph name="bracketleft" format="2">
  <advance height="2479.0" width="678.0"/>
  <unicode hex="005B"/>
  <outline>
    <contour>
      <point x="251.0" y="-303.0" type="line"/>
      <point x="565.3333333333334" y="-303.0" type="line"/>
      <point x="565.3333333333334" y="-224.0" type="line"/>
      <point x="336.6666666666667" y="-224.0" type="line"/>
      <point x="336.6666666666667" y="1481.0" type="line"/>
      <point x="565.3333333333334" y="1481.0" type="line"/>
      <point x="565.3333333333334" y="1559.0" type="line"/>
      <point x="251.0" y="1559.0" type="line"/>
    </contour>
  </outline>
</glyph>
<glyph name="backslash" format="2">
  <advance height="2479.0" width="685.3333333333334"/>
  <unicode hex="005C"/>
  <outline>
    <contour>
      <point x="539.3333333333334" y="-224.0" type="line"/>
      <point x="625.0" y="-224.0" type="line"/>
      <point x="145.0" y="1559.0" type="line"/>
      <point x="59.33333333333333" y="1559.0" type="line"/>
    </contour>
  </outline>
</glyph>
<glyph name="asciicircum" format="2">
  <advance height="2479.0" width="866.6666666666666"/>
  <unicode hex="005E"/>
  <outline>
    <contour>
      <point x="415.3333333333333" y="1396.3333333333333" type="line"/>
      <point x="415.3333333333333" y="1341.0" type="line"/>
      <point x="452.0" y="1341.0" type="line"/>
      <point x="452.0" y="1396.3333333333333" type="line"/>
    </contour>
    <contour>
      <point x="91.0" y="815.0" type="line"/>
      <point x="184.0" y="815.0" type="line"/>
      <point x="444.3333333333333" y="1370.0" type="line"/>
      <point x="423.0" y="1370.0" type="line"/>
      <point x="683.6666666666666" y="815.0" type="line"/>
      <point x="775.6666666666666" y="815.0" type="line"/>
      <point x="478.33333333333337" y="1443.0" type="line"/>
      <point x="389.0" y="1443.0" type="line"/>
    </contour>
  </outline>
</glyph>
<glyph name="underscore" format="2">
  <advance height="2479.0" width="891.0"/>
  <unicode hex="005F"/>
  <anchor x="442.0" y="170.33333333333334" name="_bottom"/>
  <outline>
    <contour>
      <point x="895.3333333333334" y="0.0" type="line"/>
      <point x="-5.0" y="0.0" type="line"/>
      <point x="-5.0" y="-84.66666666666667" type="line"/>
      <point x="895.3333333333334" y="-84.66666666666667" type="line"/>
    </contour>
  </outline>
</glyph>
<glyph name="grave" format="2">
  <advance height="2479.0" width="1018.0"/>
  <unicode hex="0060"/>
  <anchor x="610.0" y="1303.0" name="_top"/>
  <anchor x="600.0" y="1676.0" name="top"/>
  <outline>
    <contour>
      <point x="571.0" y="1276.0" type="line"/>
      <point x="652.6666666666666" y="1276.0" type="line"/>
      <point x="457.6666666666667" y="1598.0" type="line"/>
      <point x="352.0" y="1598.0" type="line"/>
    </contour>
  </outline>
</glyph>
<glyph name="a" format="2">
  <advance height="2479.0" width="1123.6666666666667"/>
  <unicode hex="0061"/>
  <anchor x="566.6666666666666" y="0.0" name="bottom"/>
  <anchor x="936.0" y="0.0" name="ogonek"/>
  <anchor x="565.6666666666666" y="1303.0" name="rhalfring"/>
  <anchor x="567.3333333333334" y="1303.0" name="top"/>
  <outline>
    <contour>
      <point x="480.0" y="-23.666666666666668" type="curve" smooth="yes"/>
      <point x="657.6666666666666" y="-23.666666666666668"/>
      <point x="783.0" y="77.0"/>
      <point x="840.3333333333334" y="201.66666666666666" type="curve"/>
      <point x="847.3333333333334" y="201.66666666666666" type="line"/>
      <point x="847.3333333333334" y="0.0" type="line"/>
      <point x="936.0" y="0.0" type="line"/>
      <point x="936.0" y="780.6666666666666" type="line" smooth="yes"/>
      <point x="936.0" y="1025.0"/>
      <point x="754.3333333333334" y="1134.0"/>
      <point x="555.6666666666666" y="1134.0" type="curve" smooth="yes"/>
      <point x="383.3333333333333" y="1134.0"/>
      <point x="222.0" y="1055.6666666666667"/>
      <point x="158.33333333333334" y="895.3333333333334" type="curve"/>
      <point x="241.33333333333334" y="864.0" type="line"/>
      <point x="285.0" y="974.3333333333334"/>
      <point x="398.3333333333333" y="1052.0"/>
      <point x="557.6666666666666" y="1052.0" type="curve" smooth="yes"/>
      <point x="738.0" y="1052.0"/>
      <point x="847.3333333333334" y="949.0"/>
      <point x="847.3333333333334" y="786.3333333333334" type="curve" smooth="yes"/>
      <point x="847.3333333333334" y="740.0" type="line" smooth="yes"/>
      <point x="847.3333333333334" y="654.3333333333334"/>
      <point x="722.6666666666666" y="644.6666666666666"/>
      <point x="552.0" y="624.6666666666666" type="curve" smooth="yes"/>
      <point x="253.66666666666669" y="588.3333333333334"/>
      <point x="126.33333333333333" y="493.6666666666667"/>
      <point x="126.33333333333333" y="307.6666666666667" type="curve" smooth="yes"/>
      <point x="126.33333333333333" y="95.0"/>
      <point x="287.0" y="-23.666666666666668"/>
    </contour>
    <contour>
      <point x="488.6666666666667" y="58.33333333333334" type="curve" smooth="yes"/>
      <point x="332.3333333333333" y="58.33333333333334"/>
      <point x="214.0" y="152.33333333333334"/>
      <point x="214.0" y="304.6666666666667" type="curve" smooth="yes"/>
      <point x="214.0" y="443.0"/>
      <point x="316.0" y="516.6666666666666"/>
      <point x="560.3333333333334" y="545.6666666666666" type="curve" smooth="yes"/>
      <point x="670.0" y="558.6666666666666"/>
      <point x="801.0" y="579.0"/>
      <point x="847.3333333333334" y="617.6666666666666" type="curve"/>
      <point x="847.3333333333334" y="452.6666666666667" type="line" smooth="yes"/>
      <point x="847.3333333333334" y="226.33333333333334"/>
      <point x="698.0" y="58.33333333333334"/>
    </contour>
  </outline>
</glyph>
<glyph name="b" format="2">
  <advance height="2479.0" width="1240.3333333333333"/>
  <unicode hex="0062"/>
  <anchor x="671.6666666666666" y="0.0" name="bottom"/>
  <anchor x="260.0" y="1280.0" name="cross"/>
  <anchor x="671.0" y="1303.0" name="top"/>
  <outline>
    <contour>
      <point x="215.33333333333331" y="0.0" type="line"/>
      <point x="301.3333333333333" y="0.0" type="line"/>
      <point x="301.3333333333333" y="243.33333333333331" type="line"/>
      <point x="312.3333333333333" y="243.33333333333331" type="line"/>
      <point x="364.6666666666667" y="99.66666666666667"/>
      <point x="481.6666666666667" y="-23.0"/>
      <point x="672.6666666666666" y="-23.0" type="curve" smooth="yes"/>
      <point x="942.0" y="-23.0"/>
      <point x="1118.3333333333333" y="217.0"/>
      <point x="1118.3333333333333" y="556.0" type="curve" smooth="yes"/>
      <point x="1118.3333333333333" y="892.0"/>
      <point x="940.6666666666666" y="1134.0"/>
      <point x="671.6666666666666" y="1134.0" type="curve" smooth="yes"/>
      <point x="481.0" y="1134.0"/>
      <point x="363.3333333333333" y="1011.3333333333334"/>
      <point x="312.3333333333333" y="868.0" type="curve"/>
      <point x="303.3333333333333" y="868.0" type="line"/>
      <point x="303.3333333333333" y="1489.0" type="line"/>
      <point x="215.33333333333331" y="1489.0" type="line"/>
    </contour>
    <contour>
      <point x="302.3333333333333" y="557.0" type="curve" smooth="yes"/>
      <point x="302.3333333333333" y="841.6666666666666"/>
      <point x="438.6666666666667" y="1051.0"/>
      <point x="665.0" y="1051.0" type="curve" smooth="yes"/>
      <point x="895.0" y="1051.0"/>
      <point x="1029.6666666666667" y="836.6666666666666"/>
      <point x="1029.6666666666667" y="557.0" type="curve" smooth="yes"/>
      <point x="1029.6666666666667" y="275.3333333333333"/>
      <point x="894.6666666666666" y="59.0"/>
      <point x="665.0" y="59.0" type="curve" smooth="yes"/>
      <point x="438.3333333333333" y="59.0"/>
      <point x="302.3333333333333" y="270.3333333333333"/>
    </contour>
  </outline>
</glyph>
<glyph name="c" format="2">
  <advance height="2479.0" width="1135.6666666666667"/>
  <unicode hex="0063"/>
  <anchor x="593.6666666666666" y="0.0" name="cedilla"/>
  <anchor x="593.6666666666666" y="1303.0" name="top"/>
  <outline>
    <contour>
      <point x="603.0" y="-23.0" type="curve" smooth="yes"/>
      <point x="821.3333333333334" y="-23.0"/>
      <point x="985.6666666666666" y="119.33333333333333"/>
      <point x="1017.3333333333334" y="326.0" type="curve"/>
      <point x="927.0" y="326.0" type="line"/>
      <point x="898.3333333333334" y="163.33333333333334"/>
      <point x="766.3333333333334" y="59.0"/>
      <point x="603.0" y="59.0" type="curve" smooth="yes"/>
      <point x="369.6666666666667" y="59.0"/>
      <point x="210.0" y="272.0"/>
      <point x="210.0" y="557.0" type="curve" smooth="yes"/>
      <point x="210.0" y="844.6666666666666"/>
      <point x="376.0" y="1051.0"/>
      <point x="603.0" y="1051.0" type="curve" smooth="yes"/>
      <point x="770.6666666666666" y="1051.0"/>
      <point x="896.6666666666666" y="939.3333333333334"/>
      <point x="925.0" y="788.3333333333334" type="curve"/>
      <point x="1015.3333333333334" y="788.3333333333334" type="line"/>
      <point x="983.0" y="994.0"/>
      <point x="814.0" y="1134.0"/>
      <point x="602.0" y="1134.0" type="curve" smooth="yes"/>
      <point x="319.6666666666667" y="1134.0"/>
      <point x="122.33333333333333" y="886.3333333333334"/>
      <point x="122.33333333333333" y="555.0" type="curve" smooth="yes"/>
      <point x="122.33333333333333" y="222.66666666666666"/>
      <point x="317.6666666666667" y="-23.0"/>
    </contour>
  </outline>
</glyph>
<glyph name="d" format="2">
  <advance height="2479.0" width="1240.6666666666667"/>
  <unicode hex="0064"/>
  <anchor x="602.3333333333334" y="0.0" name="bottom"/>
  <anchor x="981.0" y="1280.0" name="cross"/>
  <anchor x="1159.6666666666667" y="1489.0" name="raccent"/>
  <anchor x="583.6666666666666" y="1489.0" name="top"/>
  <outline>
    <contour>
      <point x="567.0" y="-23.0" type="curve" smooth="yes"/>
      <point x="758.0" y="-23.0"/>
      <point x="875.0" y="100.33333333333333"/>
      <point x="928.3333333333334" y="243.33333333333331" type="curve"/>
      <point x="938.3333333333334" y="243.33333333333331" type="line"/>
      <point x="938.3333333333334" y="0.0" type="line"/>
      <point x="1025.0" y="0.0" type="line"/>
      <point x="1025.0" y="1489.0" type="line"/>
      <point x="936.3333333333334" y="1489.0" type="line"/>
      <point x="936.3333333333334" y="868.0" type="line"/>
      <point x="928.3333333333334" y="868.0" type="line"/>
      <point x="876.3333333333334" y="1011.3333333333334"/>
      <point x="759.3333333333334" y="1134.0"/>
      <point x="568.0" y="1134.0" type="curve" smooth="yes"/>
      <point x="300.0" y="1134.0"/>
      <point x="122.33333333333333" y="892.0"/>
      <point x="122.33333333333333" y="556.0" type="curve" smooth="yes"/>
      <point x="122.33333333333333" y="217.0"/>
      <point x="298.0" y="-23.0"/>
    </contour>
    <contour>
      <point x="574.6666666666666" y="59.0" type="curve" smooth="yes"/>
      <point x="345.0" y="59.0"/>
      <point x="210.0" y="275.3333333333333"/>
      <point x="210.0" y="557.0" type="curve" smooth="yes"/>
      <point x="210.0" y="836.6666666666666"/>
      <point x="345.3333333333333" y="1051.0"/>
      <point x="574.6666666666666" y="1051.0" type="curve" smooth="yes"/>
      <point x="802.0" y="1051.0"/>
      <point x="937.3333333333334" y="841.6666666666666"/>
      <point x="937.3333333333334" y="557.0" type="curve" smooth="yes"/>
      <point x="937.3333333333334" y="270.3333333333333"/>
      <point x="802.3333333333334" y="59.0"/>
    </contour>
  </outline>
</glyph>
<glyph name="e" format="2">
  <advance height="2479.0" width="1185.0"/>
  <unicode hex="0065"/>
  <anchor x="593.6666666666666" y="0.0" name="bottom"/>
  <anchor x="596.0" y="0.0" name="cedilla"/>
  <anchor x="682.6666666666666" y="0.0" name="ogonek"/>
  <anchor x="593.6666666666666" y="1303.0" name="top"/>
  <outline>
    <contour>
      <point x="619.6666666666666" y="-23.0" type="curve"/>
      <point x="840.0" y="-23.0"/>
      <point x="975.3333333333334" y="105.33333333333333"/>
      <point x="1026.3333333333333" y="218.33333333333334" type="curve"/>
      <point x="945.6666666666666" y="251.0" type="line"/>
      <point x="903.6666666666666" y="167.66666666666666"/>
      <point x="802.0" y="59.0"/>
      <point x="619.6666666666666" y="59.0" type="curve" smooth="yes"/>
      <point x="362.3333333333333" y="59.0"/>
      <point x="210.0" y="268.6666666666667"/>
      <point x="210.0" y="548.6666666666666" type="curve" smooth="yes"/>
      <point x="210.0" y="585.6666666666666" type="line" smooth="yes"/>
      <point x="214.0" y="845.0"/>
      <point x="376.6666666666667" y="1051.0"/>
      <point x="598.0" y="1051.0" type="curve"/>
      <point x="811.3333333333334" y="1051.0"/>
      <point x="973.6666666666666" y="861.3333333333334"/>
      <point x="973.6666666666666" y="619.6666666666666" type="curve"/>
      <point x="178.33333333333334" y="619.6666666666666" type="line"/>
      <point x="178.33333333333334" y="539.3333333333334" type="line"/>
      <point x="1062.6666666666667" y="539.3333333333334" type="line"/>
      <point x="1062.6666666666667" y="594.3333333333334" type="line" smooth="yes"/>
      <point x="1062.6666666666667" y="925.6666666666666"/>
      <point x="849.0" y="1134.0"/>
      <point x="598.0" y="1134.0" type="curve" smooth="yes"/>
      <point x="321.0" y="1134.0"/>
      <point x="122.33333333333333" y="887.0"/>
      <point x="122.33333333333333" y="554.0" type="curve" smooth="yes"/>
      <point x="122.33333333333333" y="220.33333333333334"/>
      <point x="317.0" y="-23.0"/>
    </contour>
  </outline>
</glyph>
<glyph name="f" format="2">
  <advance height="2479.0" width="698.3333333333334"/>
  <unicode hex="0066"/>
  <anchor x="318.0" y="0.0" name="bottom"/>
  <anchor x="317.6666666666667" y="649.0" name="cross"/>
  <anchor x="349.3333333333333" y="1676.0" name="top"/>
  <outline>
    <contour>
      <point x="606.3333333333334" y="1117.0" type="line"/>
      <point x="110.66666666666666" y="1117.0" type="line"/>
      <point x="110.66666666666666" y="1038.0" type="line"/>
      <point x="606.3333333333334" y="1038.0" type="line"/>
    </contour>
    <component base="_part.f_base"/>
  </outline>
</glyph>
<glyph name="g" format="2">
  <advance height="2479.0" width="1213.3333333333333"/>
  <unicode hex="0067"/>
  <anchor x="581.6666666666666" y="-438.0" name="bottom"/>
  <anchor x="982.3333333333334" y="560.6666666666666" name="cross"/>
  <anchor x="605.6666666666666" y="1303.0" name="top"/>
  <outline>
    <contour>
      <point x="586.6666666666666" y="-442.0" type="curve" smooth="yes"/>
      <point x="848.0" y="-442.0"/>
      <point x="1025.0" y="-306.0"/>
      <point x="1025.0" y="-26.0" type="curve" smooth="yes"/>
      <point x="1025.0" y="1117.0" type="line"/>
      <point x="938.3333333333334" y="1117.0" type="line"/>
      <point x="938.3333333333334" y="868.0" type="line"/>
      <point x="929.3333333333334" y="868.0" type="line"/>
      <point x="876.0" y="1011.3333333333334"/>
      <point x="761.3333333333334" y="1134.0"/>
      <point x="568.0" y="1134.0" type="curve" smooth="yes"/>
      <point x="298.0" y="1134.0"/>
      <point x="122.33333333333333" y="894.0"/>
      <point x="122.33333333333333" y="558.6666666666666" type="curve" smooth="yes"/>
      <point x="122.33333333333333" y="223.0"/>
      <point x="302.6666666666667" y="5.666666666666668"/>
      <point x="567.0" y="5.666666666666668" type="curve" smooth="yes"/>
      <point x="750.3333333333334" y="5.666666666666668"/>
      <point x="876.3333333333334" y="110.33333333333334"/>
      <point x="928.3333333333334" y="255.0" type="curve"/>
      <point x="936.3333333333334" y="255.0" type="line"/>
      <point x="936.3333333333334" y="-22.0" type="line" smooth="yes"/>
      <point x="936.3333333333334" y="-251.66666666666666"/>
      <point x="802.0" y="-361.0"/>
      <point x="586.6666666666666" y="-361.0" type="curve" smooth="yes"/>
      <point x="407.0" y="-361.0"/>
      <point x="294.0" y="-282.66666666666663"/>
      <point x="245.33333333333334" y="-174.66666666666666" type="curve"/>
      <point x="170.33333333333334" y="-218.0" type="line"/>
      <point x="231.66666666666666" y="-356.3333333333333"/>
      <point x="378.3333333333333" y="-442.0"/>
    </contour>
    <contour>
      <point x="574.6666666666666" y="88.66666666666667" type="curve" smooth="yes"/>
      <point x="346.3333333333333" y="88.66666666666667"/>
      <point x="210.0" y="280.3333333333333"/>
      <point x="210.0" y="559.6666666666666" type="curve" smooth="yes"/>
      <point x="210.0" y="836.6666666666666"/>
      <point x="344.0" y="1051.0"/>
      <point x="574.6666666666666" y="1051.0" type="curve" smooth="yes"/>
      <point x="803.3333333333334" y="1051.0"/>
      <point x="937.3333333333334" y="841.6666666666666"/>
      <point x="937.3333333333334" y="559.6666666666666" type="curve" smooth="yes"/>
      <point x="937.3333333333334" y="268.0"/>
      <point x="799.0" y="88.66666666666667"/>
    </contour>
  </outline>
</glyph>
<glyph name="h" format="2">
  <advance height="2479.0" width="1179.3333333333333"/>
  <unicode hex="0068"/>
  <anchor x="588.6666666666666" y="0.0" name="bottom"/>
  <anchor x="234.66666666666666" y="-4.0" name="cedilla"/>
  <anchor x="228.66666666666666" y="1317.0" name="cross"/>
  <anchor x="228.66666666666666" y="1676.0" name="top"/>
  <outline>
    <contour>
      <point x="272.3333333333333" y="724.6666666666666" type="line" smooth="yes"/>
      <point x="272.3333333333333" y="919.0"/>
      <point x="409.0" y="1049.0"/>
      <point x="597.6666666666666" y="1049.0" type="curve" smooth="yes"/>
      <point x="783.3333333333334" y="1049.0"/>
      <point x="906.3333333333334" y="924.0"/>
      <point x="906.3333333333334" y="733.3333333333334" type="curve" smooth="yes"/>
      <point x="906.3333333333334" y="0.0" type="line"/>
      <point x="995.0" y="0.0" type="line"/>
      <point x="995.0" y="737.3333333333334" type="line" smooth="yes"/>
      <point x="995.0" y="982.3333333333334"/>
      <point x="839.3333333333334" y="1132.0"/>
      <point x="614.0" y="1132.0" type="curve" smooth="yes"/>
      <point x="452.6666666666667" y="1132.0"/>
      <point x="334.0" y="1056.6666666666667"/>
      <point x="281.0" y="941.0" type="curve"/>
      <point x="272.3333333333333" y="941.0" type="line"/>
      <point x="272.3333333333333" y="1489.0" type="line"/>
      <point x="184.33333333333334" y="1489.0" type="line"/>
      <point x="184.33333333333334" y="0.0" type="line"/>
      <point x="272.3333333333333" y="0.0" type="line"/>
    </contour>
  </outline>
</glyph>
<glyph name="k" format="2">
  <advance height="2479.0" width="1036.6666666666667"/>
  <unicode hex="006B"/>
  <anchor x="550.6666666666666" y="0.0" name="bottom"/>
  <anchor x="228.66666666666666" y="1676.0" name="top"/>
  <outline>
    <contour>
      <point x="261.0" y="436.3333333333333" type="line"/>
      <point x="435.6666666666667" y="604.3333333333334" type="line"/>
      <point x="443.6666666666667" y="608.3333333333334" type="line"/>
      <point x="957.3333333333334" y="1117.0" type="line"/>
      <point x="842.0" y="1117.0" type="line"/>
      <point x="283.0" y="563.3333333333334" type="line"/>
      <point x="260.0" y="563.3333333333334" type="line"/>
    </contour>
    <contour>
      <point x="184.33333333333334" y="0.0" type="line"/>
      <point x="272.3333333333333" y="0.0" type="line"/>
      <point x="272.3333333333333" y="1489.0" type="line"/>
      <point x="184.33333333333334" y="1489.0" type="line"/>
    </contour>
    <contour>
      <point x="867.0" y="0.0" type="line"/>
      <point x="980.3333333333334" y="0.0" type="line"/>
      <point x="459.6666666666667" y="654.6666666666666" type="line"/>
      <point x="395.6666666666667" y="595.6666666666666" type="line"/>
    </contour>
  </outline>
</glyph>
<glyph name="m" format="2">
  <advance height="2479.0" width="1734.0"/>
  <unicode hex="006D"/>
  <anchor x="866.6666666666666" y="0.0" name="bottom"/>
  <anchor x="866.6666666666666" y="1303.0" name="top"/>
  <outline>
    <contour>
      <point x="184.33333333333334" y="0.0" type="line"/>
      <point x="272.3333333333333" y="0.0" type="line"/>
      <point x="272.3333333333333" y="733.3333333333334" type="line" smooth="yes"/>
      <point x="272.3333333333333" y="917.3333333333334"/>
      <point x="384.0" y="1049.0"/>
      <point x="560.6666666666666" y="1049.0" type="curve" smooth="yes"/>
      <point x="736.0" y="1049.0"/>
      <point x="822.3333333333334" y="929.3333333333334"/>
      <point x="822.3333333333334" y="755.6666666666666" type="curve" smooth="yes"/>
      <point x="822.3333333333334" y="0.0" type="line"/>
      <point x="911.6666666666666" y="0.0" type="line"/>
      <point x="911.6666666666666" y="743.0" type="line" smooth="yes"/>
      <point x="911.6666666666666" y="920.3333333333334"/>
      <point x="1013.3333333333334" y="1049.0"/>
      <point x="1197.6666666666667" y="1049.0" type="curve" smooth="yes"/>
      <point x="1370.3333333333333" y="1049.0"/>
      <point x="1461.3333333333333" y="936.3333333333334"/>
      <point x="1461.3333333333333" y="750.0" type="curve" smooth="yes"/>
      <point x="1461.3333333333333" y="0.0" type="line"/>
      <point x="1549.6666666666667" y="0.0" type="line"/>
      <point x="1549.6666666666667" y="750.0" type="line" smooth="yes"/>
      <point x="1549.6666666666667" y="986.6666666666666"/>
      <point x="1432.6666666666667" y="1132.0"/>
      <point x="1217.0" y="1132.0" type="curve" smooth="yes"/>
      <point x="1051.0" y="1132.0"/>
      <point x="933.3333333333334" y="1046.6666666666667"/>
      <point x="890.0" y="915.6666666666666" type="curve"/>
      <point x="882.3333333333334" y="915.6666666666666" type="line"/>
      <point x="838.3333333333334" y="1048.0"/>
      <point x="740.6666666666666" y="1132.0"/>
      <point x="579.0" y="1132.0" type="curve" smooth="yes"/>
      <point x="431.3333333333333" y="1132.0"/>
      <point x="322.0" y="1060.6666666666667"/>
      <point x="279.0" y="948.3333333333334" type="curve"/>
      <point x="270.3333333333333" y="948.3333333333334" type="line"/>
      <point x="270.3333333333333" y="1117.0" type="line"/>
      <point x="184.33333333333334" y="1117.0" type="line"/>
    </contour>
  </outline>
</glyph>
<glyph name="n" format="2">
  <advance height="2479.0" width="1175.6666666666667"/>
  <unicode hex="006E"/>
  <anchor x="587.6666666666666" y="0.0" name="bottom"/>
  <anchor x="589.6666666666666" y="1303.0" name="top"/>
  <outline>
    <contour>
      <point x="272.3333333333333" y="724.6666666666666" type="line" smooth="yes"/>
      <point x="272.3333333333333" y="919.0"/>
      <point x="407.6666666666667" y="1049.0"/>
      <point x="594.6666666666666" y="1049.0" type="curve" smooth="yes"/>
      <point x="779.6666666666666" y="1049.0"/>
      <point x="902.6666666666666" y="923.0"/>
      <point x="902.6666666666666" y="733.3333333333334" type="curve" smooth="yes"/>
      <point x="902.6666666666666" y="0.0" type="line"/>
      <point x="991.0" y="0.0" type="line"/>
      <point x="991.0" y="737.3333333333334" type="line" smooth="yes"/>
      <point x="991.0" y="981.6666666666666"/>
      <point x="835.6666666666666" y="1132.0"/>
      <point x="611.0" y="1132.0" type="curve" smooth="yes"/>
      <point x="452.3333333333333" y="1132.0"/>
      <point x="332.0" y="1056.0"/>
      <point x="279.0" y="941.0" type="curve"/>
      <point x="270.3333333333333" y="941.0" type="line"/>
      <point x="270.3333333333333" y="1117.0" type="line"/>
      <point x="184.33333333333334" y="1117.0" type="line"/>
      <point x="184.33333333333334" y="0.0" type="line"/>
      <point x="272.3333333333333" y="0.0" type="line"/>
    </contour>
  </outline>
</glyph>
<glyph name="o" format="2">
  <advance height="2479.0" width="1198.6666666666667"/>
  <unicode hex="006F"/>
  <anchor x="599.0" y="0.0" name="bottom"/>
  <anchor x="675.0" y="0.0" name="ogonek"/>
  <anchor x="599.0" y="1303.0" name="top"/>
  <outline>
    <contour>
      <point x="599.0" y="-23.0" type="curve" smooth="yes"/>
      <point x="875.6666666666666" y="-23.0"/>
      <point x="1076.3333333333333" y="219.66666666666666"/>
      <point x="1076.3333333333333" y="555.0" type="curve" smooth="yes"/>
      <point x="1076.3333333333333" y="890.0"/>
      <point x="875.0" y="1134.0"/>
      <point x="599.0" y="1134.0" type="curve" smooth="yes"/>
      <point x="322.6666666666667" y="1134.0"/>
      <point x="122.33333333333333" y="890.6666666666666"/>
      <point x="122.33333333333333" y="555.0" type="curve" smooth="yes"/>
      <point x="122.33333333333333" y="219.66666666666666"/>
      <point x="322.6666666666667" y="-23.0"/>
    </contour>
    <contour>
      <point x="599.0" y="59.0" type="curve" smooth="yes"/>
      <point x="364.3333333333333" y="59.0"/>
      <point x="210.0" y="277.6666666666667"/>
      <point x="210.0" y="555.0" type="curve" smooth="yes"/>
      <point x="210.0" y="830.3333333333334"/>
      <point x="365.6666666666667" y="1051.0"/>
      <point x="599.0" y="1051.0" type="curve" smooth="yes"/>
      <point x="833.6666666666666" y="1051.0"/>
      <point x="987.6666666666666" y="831.0"/>
      <point x="987.6666666666666" y="555.0" type="curve" smooth="yes"/>
      <point x="987.6666666666666" y="277.6666666666667"/>
      <point x="834.3333333333334" y="59.0"/>
    </contour>
  </outline>
</glyph>
<glyph name="p" format="2">
  <advance height="2479.0" width="1209.3333333333333"/>
  <unicode hex="0070"/>
  <anchor x="227.66666666666666" y="-419.0" name="bottom"/>
  <anchor x="1180.0" y="-502.3333333333333" name="bottom0315"/>
  <anchor x="228.66666666666666" y="-163.0" name="cross"/>
  <anchor x="637.6666666666666" y="1303.0" name="top"/>
  <outline>
    <contour>
      <point x="184.33333333333334" y="-419.0" type="line"/>
      <point x="272.3333333333333" y="-419.0" type="line"/>
      <point x="272.3333333333333" y="243.33333333333331" type="line"/>
      <point x="281.0" y="243.33333333333331" type="line"/>
      <point x="332.3333333333333" y="99.0"/>
      <point x="452.0" y="-23.0"/>
      <point x="641.6666666666666" y="-23.0" type="curve" smooth="yes"/>
      <point x="909.3333333333334" y="-23.0"/>
      <point x="1087.0" y="218.33333333333334"/>
      <point x="1087.0" y="556.0" type="curve" smooth="yes"/>
      <point x="1087.0" y="893.3333333333334"/>
      <point x="910.6666666666666" y="1134.0"/>
      <point x="640.6666666666666" y="1134.0" type="curve" smooth="yes"/>
      <point x="448.6666666666667" y="1134.0"/>
      <point x="334.3333333333333" y="1010.6666666666666"/>
      <point x="281.0" y="868.0" type="curve"/>
      <point x="270.3333333333333" y="868.0" type="line"/>
      <point x="270.3333333333333" y="1117.0" type="line"/>
      <point x="184.33333333333334" y="1117.0" type="line"/>
    </contour>
    <contour>
      <point x="271.3333333333333" y="557.0" type="curve" smooth="yes"/>
      <point x="271.3333333333333" y="841.6666666666666"/>
      <point x="406.0" y="1051.0"/>
      <point x="634.0" y="1051.0" type="curve" smooth="yes"/>
      <point x="864.6666666666666" y="1051.0"/>
      <point x="998.6666666666666" y="836.6666666666666"/>
      <point x="998.6666666666666" y="557.0" type="curve" smooth="yes"/>
      <point x="998.6666666666666" y="275.3333333333333"/>
      <point x="863.0" y="59.0"/>
      <point x="634.0" y="59.0" type="curve" smooth="yes"/>
      <point x="408.3333333333333" y="59.0"/>
      <point x="271.3333333333333" y="270.3333333333333"/>
    </contour>
  </outline>
</glyph>
<glyph name="q" format="2">
  <advance height="2479.0" width="1209.3333333333333"/>
  <unicode hex="0071"/>
  <anchor x="981.6666666666666" y="-419.0" name="bottom"/>
  <anchor x="980.6666666666666" y="-163.0" name="cross"/>
  <anchor x="571.0" y="1303.0" name="top"/>
  <outline>
    <contour>
      <point x="936.3333333333334" y="-419.0" type="line"/>
      <point x="1025.0" y="-419.0" type="line"/>
      <point x="1025.0" y="1117.0" type="line"/>
      <point x="938.3333333333334" y="1117.0" type="line"/>
      <point x="938.3333333333334" y="868.0" type="line"/>
      <point x="928.3333333333334" y="868.0" type="line"/>
      <point x="875.0" y="1010.6666666666666"/>
      <point x="760.6666666666666" y="1134.0"/>
      <point x="568.0" y="1134.0" type="curve" smooth="yes"/>
      <point x="298.0" y="1134.0"/>
      <point x="122.33333333333333" y="893.3333333333334"/>
      <point x="122.33333333333333" y="556.0" type="curve" smooth="yes"/>
      <point x="122.33333333333333" y="218.33333333333334"/>
      <point x="300.0" y="-23.0"/>
      <point x="567.0" y="-23.0" type="curve" smooth="yes"/>
      <point x="757.3333333333334" y="-23.0"/>
      <point x="876.3333333333334" y="99.0"/>
      <point x="928.3333333333334" y="243.33333333333331" type="curve"/>
      <point x="936.3333333333334" y="243.33333333333331" type="line"/>
    </contour>
    <contour>
      <point x="574.6666666666666" y="59.0" type="curve" smooth="yes"/>
      <point x="346.3333333333333" y="59.0"/>
      <point x="210.0" y="275.3333333333333"/>
      <point x="210.0" y="557.0" type="curve" smooth="yes"/>
      <point x="210.0" y="836.6666666666666"/>
      <point x="344.0" y="1051.0"/>
      <point x="574.6666666666666" y="1051.0" type="curve" smooth="yes"/>
      <point x="803.3333333333334" y="1051.0"/>
      <point x="937.3333333333334" y="841.6666666666666"/>
      <point x="937.3333333333334" y="557.0" type="curve" smooth="yes"/>
      <point x="937.3333333333334" y="270.3333333333333"/>
      <point x="801.0" y="59.0"/>
    </contour>
  </outline>
</glyph>
<glyph name="r" format="2">
  <advance height="2479.0" width="698.0"/>
  <unicode hex="0072"/>
  <anchor x="227.66666666666666" y="0.0" name="bottom"/>
  <anchor x="228.66666666666666" y="535.0" name="cross"/>
  <anchor x="426.0" y="1303.0" name="top"/>
  <outline>
    <contour>
      <point x="184.33333333333334" y="0.0" type="line"/>
      <point x="272.3333333333333" y="0.0" type="line"/>
      <point x="272.3333333333333" y="736.3333333333334" type="line" smooth="yes"/>
      <point x="272.3333333333333" y="916.0"/>
      <point x="407.3333333333333" y="1046.3333333333333"/>
      <point x="593.6666666666666" y="1046.3333333333333" type="curve" smooth="yes"/>
      <point x="616.3333333333334" y="1046.3333333333333"/>
      <point x="632.0" y="1043.3333333333333"/>
      <point x="644.0" y="1042.3333333333333" type="curve"/>
      <point x="644.0" y="1132.0" type="line"/>
      <point x="629.3333333333334" y="1132.3333333333333"/>
      <point x="614.3333333333334" y="1133.0"/>
      <point x="598.3333333333334" y="1133.0" type="curve" smooth="yes"/>
      <point x="451.3333333333333" y="1133.0"/>
      <point x="327.0" y="1057.0"/>
      <point x="278.3333333333333" y="942.6666666666666" type="curve"/>
      <point x="270.3333333333333" y="942.6666666666666" type="line"/>
      <point x="270.3333333333333" y="1117.0" type="line"/>
      <point x="184.33333333333334" y="1117.0" type="line"/>
    </contour>
  </outline>
</glyph>
<glyph name="s" format="2">
  <advance height="2479.0" width="1029.6666666666667"/>
  <unicode hex="0073"/>
  <anchor x="525.6666666666666" y="0.0" name="bottom"/>
  <anchor x="522.6666666666666" y="0.0" name="cedilla"/>
  <anchor x="529.6666666666666" y="1303.0" name="top"/>
  <outline>
    <contour>
      <point x="894.0" y="876.3333333333334" type="line"/>
      <point x="839.6666666666666" y="1041.0"/>
      <point x="722.0" y="1134.0"/>
      <point x="533.6666666666666" y="1134.0" type="curve" smooth="yes"/>
      <point x="319.0" y="1134.0"/>
      <point x="165.66666666666666" y="1010.0"/>
      <point x="165.66666666666666" y="830.3333333333334" type="curve" smooth="yes"/>
      <point x="165.66666666666666" y="685.6666666666666"/>
      <point x="256.6666666666667" y="584.3333333333334"/>
      <point x="439.0" y="540.3333333333334" type="curve" smooth="yes"/>
      <point x="617.6666666666666" y="496.6666666666667" type="line" smooth="yes"/>
      <point x="750.6666666666666" y="463.6666666666667"/>
      <point x="816.3333333333334" y="392.0"/>
      <point x="816.3333333333334" y="289.0" type="curve" smooth="yes"/>
      <point x="816.3333333333334" y="153.66666666666669"/>
      <point x="694.3333333333334" y="58.0"/>
      <point x="511.6666666666667" y="58.0" type="curve" smooth="yes"/>
      <point x="347.0" y="58.0"/>
      <point x="244.33333333333334" y="135.33333333333334"/>
      <point x="212.33333333333334" y="281.3333333333333" type="curve"/>
      <point x="127.33333333333333" y="260.0" type="line"/>
      <point x="166.0" y="78.0"/>
      <point x="304.6666666666667" y="-23.0"/>
      <point x="512.6666666666666" y="-23.0" type="curve" smooth="yes"/>
      <point x="745.3333333333334" y="-23.0"/>
      <point x="907.0" y="106.33333333333333"/>
      <point x="907.0" y="291.6666666666667" type="curve" smooth="yes"/>
      <point x="907.0" y="435.6666666666667"/>
      <point x="816.3333333333334" y="535.6666666666666"/>
      <point x="640.6666666666666" y="578.6666666666666" type="curve" smooth="yes"/>
      <point x="469.3333333333333" y="621.6666666666666" type="line" smooth="yes"/>
      <point x="324.0" y="657.6666666666666"/>
      <point x="254.0" y="726.6666666666666"/>
      <point x="254.0" y="833.0" type="curve" smooth="yes"/>
      <point x="254.0" y="963.6666666666666"/>
      <point x="368.6666666666667" y="1053.0"/>
      <point x="533.6666666666666" y="1053.0" type="curve" smooth="yes"/>
      <point x="685.6666666666666" y="1053.0"/>
      <point x="771.3333333333334" y="976.6666666666666"/>
      <point x="811.3333333333334" y="854.3333333333334" type="curve"/>
    </contour>
  </outline>
</glyph>
<glyph name="t" format="2">
  <advance height="2479.0" width="723.6666666666666"/>
  <unicode hex="0074"/>
  <anchor x="479.3333333333333" y="1562.0" name="raccent"/>
  <anchor x="429.3333333333333" y="0.0" name="bottom"/>
  <anchor x="473.3333333333333" y="0.0" name="cedilla"/>
  <anchor x="300.6666666666667" y="1489.0" name="top"/>
  <outline>
    <contour>
      <point x="579.0" y="1117.0" type="line"/>
      <point x="91.33333333333333" y="1117.0" type="line"/>
      <point x="91.33333333333333" y="1038.0" type="line"/>
      <point x="579.0" y="1038.0" type="line"/>
    </contour>
    <component base="_part.t_base"/>
  </outline>
</glyph>
<glyph name="u" format="2">
  <advance height="2479.0" width="1172.6666666666667"/>
  <unicode hex="0075"/>
  <anchor x="586.6666666666666" y="0.0" name="bottom"/>
  <anchor x="988.3333333333334" y="0.0" name="ogonek"/>
  <anchor x="586.6666666666666" y="1303.0" name="top"/>
  <outline>
    <contour>
      <point x="899.6666666666666" y="397.0" type="line" smooth="yes"/>
      <point x="899.6666666666666" y="197.0"/>
      <point x="751.6666666666666" y="71.66666666666667"/>
      <point x="577.0" y="71.66666666666667" type="curve" smooth="yes"/>
      <point x="397.6666666666667" y="71.66666666666667"/>
      <point x="272.3333333333333" y="198.0"/>
      <point x="272.3333333333333" y="384.3333333333333" type="curve" smooth="yes"/>
      <point x="272.3333333333333" y="1117.0" type="line"/>
      <point x="184.33333333333334" y="1117.0" type="line"/>
      <point x="184.33333333333334" y="380.3333333333333" type="line" smooth="yes"/>
      <point x="184.33333333333334" y="136.0"/>
      <point x="339.3333333333333" y="-15.0"/>
      <point x="558.6666666666666" y="-15.0" type="curve" smooth="yes"/>
      <point x="717.6666666666666" y="-15.0"/>
      <point x="839.6666666666666" y="66.0"/>
      <point x="891.6666666666666" y="181.0" type="curve"/>
      <point x="899.6666666666666" y="181.0" type="line"/>
      <point x="899.6666666666666" y="0.0" type="line"/>
      <point x="988.3333333333334" y="0.0" type="line"/>
      <point x="988.3333333333334" y="1117.0" type="line"/>
      <point x="899.6666666666666" y="1117.0" type="line"/>
    </contour>
  </outline>
</glyph>
<glyph name="w" format="2">
  <advance height="2479.0" width="1632.6666666666667"/>
  <unicode hex="0077"/>
  <anchor x="816.6666666666666" y="0.0" name="bottom"/>
  <anchor x="816.6666666666666" y="1303.0" name="top"/>
  <outline>
    <contour>
      <point x="427.3333333333333" y="0.0" type="line"/>
      <point x="526.3333333333334" y="0.0" type="line"/>
      <point x="811.6666666666666" y="972.6666666666666" type="line"/>
      <point x="821.6666666666666" y="972.6666666666666" type="line"/>
      <point x="1106.3333333333333" y="0.0" type="line"/>
      <point x="1205.3333333333333" y="0.0" type="line"/>
      <point x="1540.0" y="1117.0" type="line"/>
      <point x="1446.6666666666667" y="1117.0" type="line"/>
      <point x="1158.6666666666667" y="131.0" type="line"/>
      <point x="1151.0" y="131.0" type="line"/>
      <point x="863.0" y="1117.0" type="line"/>
      <point x="770.6666666666666" y="1117.0" type="line"/>
      <point x="481.6666666666667" y="130.0" type="line"/>
      <point x="474.0" y="130.0" type="line"/>
      <point x="186.0" y="1117.0" type="line"/>
      <point x="93.33333333333333" y="1117.0" type="line"/>
    </contour>
  </outline>
</glyph>
<glyph name="x" format="2">
  <advance height="2479.0" width="1051.0"/>
  <unicode hex="0078"/>
  <anchor x="525.6666666666666" y="0.0" name="bottom"/>
  <anchor x="525.6666666666666" y="559.0" name="cross"/>
  <anchor x="923.0" y="25.333333333333336" name="cyrtic"/>
  <anchor x="810.3333333333334" y="0.0" name="right"/>
  <anchor x="525.6666666666666" y="1303.0" name="top"/>
  <outline>
    <contour>
      <point x="217.0" y="1117.0" type="line"/>
      <point x="114.33333333333333" y="1117.0" type="line"/>
      <point x="470.0" y="559.0" type="line"/>
      <point x="114.33333333333333" y="0.0" type="line"/>
      <point x="217.0" y="0.0" type="line"/>
      <point x="525.6666666666666" y="488.3333333333333" type="line"/>
      <point x="834.0" y="0.0" type="line"/>
      <point x="936.6666666666666" y="0.0" type="line"/>
      <point x="579.0" y="559.0" type="line"/>
      <point x="936.6666666666666" y="1117.0" type="line"/>
      <point x="834.0" y="1117.0" type="line"/>
      <point x="525.6666666666666" y="620.6666666666666" type="line"/>
    </contour>
  </outline>
</glyph>
<glyph name="y" format="2">
  <advance height="2479.0" width="1094.0"/>
  <unicode hex="0079"/>
  <anchor x="775.0" y="-73.66666666666666" name="bottom"/>
  <anchor x="614.3333333333334" y="-419.0" name="ogonek"/>
  <anchor x="546.6666666666666" y="1303.0" name="top"/>
  <outline>
    <contour>
      <point x="255.33333333333334" y="-419.0" type="curve" smooth="yes"/>
      <point x="379.6666666666667" y="-419.0"/>
      <point x="474.6666666666667" y="-341.6666666666667"/>
      <point x="529.3333333333334" y="-190.33333333333334" type="curve" smooth="yes"/>
      <point x="1001.0" y="1117.0" type="line"/>
      <point x="905.3333333333334" y="1117.0" type="line"/>
      <point x="550.6666666666666" y="114.33333333333334" type="line"/>
      <point x="542.6666666666666" y="114.33333333333334" type="line"/>
      <point x="188.0" y="1117.0" type="line"/>
      <point x="93.33333333333333" y="1117.0" type="line"/>
      <point x="502.3333333333333" y="-15.333333333333332" type="line"/>
      <point x="451.6666666666667" y="-155.0" type="line" smooth="yes"/>
      <point x="390.6666666666667" y="-323.0"/>
      <point x="293.6666666666667" y="-367.0"/>
      <point x="156.0" y="-315.0" type="curve"/>
      <point x="130.33333333333334" y="-393.0" type="line"/>
      <point x="164.66666666666666" y="-408.3333333333333"/>
      <point x="210.33333333333334" y="-419.0"/>
    </contour>
  </outline>
</glyph>
<glyph name="z" format="2">
  <advance height="2479.0" width="1063.3333333333333"/>
  <unicode hex="007A"/>
  <anchor x="517.6666666666666" y="0.0" name="bottom"/>
  <anchor x="531.6666666666666" y="559.0" name="cross"/>
  <anchor x="531.6666666666666" y="1303.0" name="top"/>
  <outline>
    <contour>
      <point x="146.33333333333334" y="0.0" type="line"/>
      <point x="942.3333333333334" y="0.0" type="line"/>
      <point x="942.3333333333334" y="84.66666666666667" type="line"/>
      <point x="264.6666666666667" y="84.66666666666667" type="line"/>
      <point x="264.6666666666667" y="92.0" type="line"/>
      <point x="916.0" y="1040.6666666666667" type="line"/>
      <point x="916.0" y="1117.0" type="line"/>
      <point x="182.33333333333331" y="1117.0" type="line"/>
      <point x="182.33333333333331" y="1033.0" type="line"/>
      <point x="803.6666666666666" y="1033.0" type="line"/>
      <point x="803.6666666666666" y="1025.0" type="line"/>
      <point x="146.33333333333334" y="75.0" type="line"/>
    </contour>
  </outline>
</glyph>
<glyph name="braceleft" format="2">
  <advance height="2479.0" width="678.0"/>
  <unicode hex="007B"/>
  <outline>
    <contour>
      <point x="114.66666666666666" y="611.6666666666666" type="line"/>
      <point x="348.6666666666667" y="612.3333333333334"/>
      <point x="414.3333333333333" y="692.3333333333334"/>
      <point x="414.3333333333333" y="871.0" type="curve" smooth="yes"/>
      <point x="414.3333333333333" y="1221.6666666666667" type="line" smooth="yes"/>
      <point x="414.3333333333333" y="1402.6666666666667"/>
      <point x="475.6666666666667" y="1481.0"/>
      <point x="633.3333333333334" y="1481.0" type="curve"/>
      <point x="633.3333333333334" y="1559.0" type="line"/>
      <point x="418.3333333333333" y="1559.6666666666667"/>
      <point x="330.6666666666667" y="1451.6666666666667"/>
      <point x="330.6666666666667" y="1221.6666666666667" type="curve" smooth="yes"/>
      <point x="330.6666666666667" y="890.3333333333334" type="line" smooth="yes"/>
      <point x="330.6666666666667" y="725.6666666666666"/>
      <point x="280.6666666666667" y="673.3333333333334"/>
      <point x="114.66666666666666" y="673.3333333333334" type="curve"/>
    </contour>
    <contour>
      <point x="633.3333333333334" y="-303.0" type="curve"/>
      <point x="633.3333333333334" y="-224.0" type="line"/>
      <point x="475.6666666666667" y="-224.66666666666666"/>
      <point x="414.3333333333333" y="-145.66666666666666"/>
      <point x="414.3333333333333" y="35.0" type="curve" smooth="yes"/>
      <point x="414.3333333333333" y="386.0" type="line" smooth="yes"/>
      <point x="414.3333333333333" y="563.6666666666666"/>
      <point x="348.6666666666667" y="643.6666666666666"/>
      <point x="114.66666666666666" y="645.0" type="curve"/>
      <point x="114.66666666666666" y="583.6666666666666" type="line"/>
      <point x="280.6666666666667" y="583.0"/>
      <point x="330.6666666666667" y="530.3333333333334"/>
      <point x="330.6666666666667" y="366.6666666666667" type="curve" smooth="yes"/>
      <point x="330.6666666666667" y="35.0" type="line" smooth="yes"/>
      <point x="330.6666666666667" y="-194.66666666666666"/>
      <point x="418.3333333333333" y="-303.0"/>
    </contour>
    <contour>
      <point x="114.66666666666666" y="583.6666666666666" type="line"/>
      <point x="276.3333333333333" y="583.6666666666666" type="line"/>
      <point x="276.3333333333333" y="673.3333333333334" type="line"/>
      <point x="114.66666666666666" y="673.3333333333334" type="line"/>
    </contour>
  </outline>
</glyph>
<glyph name="bar" format="2">
  <advance height="2479.0" width="595.6666666666666"/>
  <unicode hex="007C"/>
  <outline>
    <contour>
      <point x="337.6666666666667" y="1969.0" type="line"/>
      <point x="258.0" y="1969.0" type="line"/>
      <point x="258.0" y="-480.0" type="line"/>
      <point x="337.6666666666667" y="-480.0" type="line"/>
    </contour>
  </outline>
</glyph>
<glyph name="asciitilde" format="2">
  <advance height="2479.0" width="1318.6666666666667"/>
  <unicode hex="007E"/>
  <outline>
    <contour>
      <point x="184.33333333333334" y="473.3333333333333" type="curve"/>
      <point x="268.0" y="469.3333333333333" type="line"/>
      <point x="276.0" y="574.3333333333334"/>
      <point x="352.3333333333333" y="636.0"/>
      <point x="456.0" y="635.3333333333334" type="curve" smooth="yes"/>
      <point x="529.6666666666666" y="634.6666666666666"/>
      <point x="578.3333333333334" y="601.6666666666666"/>
      <point x="642.3333333333334" y="554.3333333333334" type="curve" smooth="yes"/>
      <point x="716.3333333333334" y="497.6666666666667"/>
      <point x="779.3333333333334" y="456.3333333333333"/>
      <point x="869.6666666666666" y="455.6666666666667" type="curve" smooth="yes"/>
      <point x="1001.0" y="455.0"/>
      <point x="1115.6666666666667" y="539.0"/>
      <point x="1134.3333333333333" y="695.3333333333334" type="curve"/>
      <point x="1051.3333333333333" y="703.3333333333334" type="line"/>
      <point x="1036.0" y="602.6666666666666"/>
      <point x="964.3333333333334" y="539.0"/>
      <point x="868.6666666666666" y="539.0" type="curve" smooth="yes"/>
      <point x="804.3333333333334" y="539.6666666666666"/>
      <point x="760.0" y="569.6666666666666"/>
      <point x="698.3333333333334" y="615.6666666666666" type="curve" smooth="yes"/>
      <point x="623.0" y="673.0"/>
      <point x="554.0" y="718.3333333333334"/>
      <point x="455.0" y="718.3333333333334" type="curve" smooth="yes"/>
      <point x="313.3333333333333" y="719.0"/>
      <point x="194.0" y="632.6666666666666"/>
    </contour>
  </outline>
</glyph>
<glyph name="cent" format="2">
  <advance height="2479.0" width="1135.6666666666667"/>
  <unicode hex="00A2"/>
  <anchor x="593.6666666666666" y="189.66666666666666" name="cedilla"/>
  <anchor x="593.6666666666666" y="1492.6666666666667" name="top"/>
  <outline>
    <contour>
      <point x="561.6666666666666" y="0.0" type="line"/>
      <point x="632.0" y="0.0" type="line"/>
      <point x="632.0" y="1489.0" type="line"/>
      <point x="561.6666666666666" y="1489.0" type="line"/>
    </contour>
    <component base="c" yOffset="189.66666666666666"/>
  </outline>
</glyph>
<glyph name="sterling" format="2">
  <advance height="2479.0" width="1292.0"/>
  <unicode hex="00A3"/>
  <outline>
    <contour>
      <point x="1087.3333333333333" y="0.0" type="line"/>
      <point x="1087.3333333333333" y="84.66666666666667" type="line"/>
      <point x="153.33333333333334" y="84.66666666666667" type="line"/>
      <point x="153.33333333333334" y="0.0" type="line"/>
    </contour>
    <contour>
      <point x="796.0" y="606.3333333333334" type="line"/>
      <point x="796.0" y="692.3333333333334" type="line"/>
      <point x="151.33333333333334" y="692.3333333333334" type="line"/>
      <point x="151.33333333333334" y="606.3333333333334" type="line"/>
    </contour>
    <contour>
      <point x="419.6666666666667" y="1077.6666666666667" type="line"/>
      <point x="415.6666666666667" y="1294.0"/>
      <point x="556.0" y="1425.3333333333333"/>
      <point x="739.0" y="1425.3333333333333" type="curve" smooth="yes"/>
      <point x="912.6666666666666" y="1426.0"/>
      <point x="1051.3333333333333" y="1301.0"/>
      <point x="1022.0" y="1141.3333333333333" type="curve"/>
      <point x="1109.6666666666667" y="1118.0" type="line"/>
      <point x="1153.3333333333333" y="1323.0"/>
      <point x="977.6666666666666" y="1510.6666666666667"/>
      <point x="736.3333333333334" y="1510.0" type="curve" smooth="yes"/>
      <point x="506.0" y="1509.3333333333333"/>
      <point x="325.0" y="1345.3333333333333"/>
      <point x="332.6666666666667" y="1077.6666666666667" type="curve" smooth="yes"/>
      <point x="353.0" y="329.6666666666667" type="line" smooth="yes"/>
      <point x="356.6666666666667" y="210.66666666666669"/>
      <point x="323.0" y="84.66666666666667"/>
      <point x="223.33333333333334" y="84.66666666666667" type="curve"/>
      <point x="294.6666666666667" y="41.66666666666667" type="line"/>
      <point x="404.3333333333333" y="69.66666666666667"/>
      <point x="446.0" y="182.33333333333334"/>
      <point x="441.3333333333333" y="329.6666666666667" type="curve" smooth="yes"/>
    </contour>
  </outline>
</glyph>
<glyph name="currency" format="2">
  <advance height="2479.0" width="1423.6666666666667"/>
  <unicode hex="00A4"/>
  <outline>
    <contour>
      <point x="708.0" y="-20.0" type="curve" smooth="yes"/>
      <point x="1037.0" y="-20.0"/>
      <point x="1293.3333333333333" y="253.0"/>
      <point x="1293.3333333333333" y="608.0" type="curve" smooth="yes"/>
      <point x="1293.3333333333333" y="963.0"/>
      <point x="1037.0" y="1233.0"/>
      <point x="708.0" y="1233.0" type="curve" smooth="yes"/>
      <point x="381.6666666666667" y="1233.0"/>
      <point x="125.0" y="963.0"/>
      <point x="125.0" y="608.0" type="curve"/>
      <point x="125.0" y="253.0"/>
      <point x="381.6666666666667" y="-20.0"/>
    </contour>
    <contour>
      <point x="708.0" y="64.0" type="curve" smooth="yes"/>
      <point x="429.6666666666667" y="64.0"/>
      <point x="209.66666666666669" y="303.3333333333333"/>
      <point x="209.66666666666669" y="608.0" type="curve"/>
      <point x="209.66666666666669" y="914.3333333333334"/>
      <point x="430.33333333333337" y="1150.0"/>
      <point x="708.0" y="1150.0" type="curve" smooth="yes"/>
      <point x="987.0" y="1150.0"/>
      <point x="1208.3333333333333" y="914.3333333333334"/>
      <point x="1207.6666666666667" y="608.0" type="curve" smooth="yes"/>
      <point x="1206.3333333333333" y="303.3333333333333"/>
      <point x="988.3333333333334" y="64.0"/>
    </contour>
    <contour>
      <point x="1126.0" y="977.6666666666666" type="line"/>
      <point x="1309.6666666666667" y="1166.6666666666667" type="line"/>
      <point x="1250.0" y="1229.3333333333333" type="line"/>
      <point x="1066.3333333333333" y="1040.3333333333333" type="line"/>
    </contour>
    <contour>
      <point x="1250.0" y="-5.0" type="line"/>
      <point x="1309.6666666666667" y="58.0" type="line"/>
      <point x="1126.0" y="246.33333333333334" type="line"/>
      <point x="1066.3333333333333" y="184.0" type="line"/>
    </contour>
    <contour>
      <point x="168.66666666666669" y="-5.0" type="line"/>
      <point x="353.0" y="184.0" type="line"/>
      <point x="292.6666666666667" y="246.33333333333334" type="line"/>
      <point x="109.66666666666667" y="58.0" type="line"/>
    </contour>
    <contour>
      <point x="292.6666666666667" y="977.6666666666666" type="line"/>
      <point x="353.0" y="1040.3333333333333" type="line"/>
      <point x="168.66666666666669" y="1229.3333333333333" type="line"/>
      <point x="109.66666666666667" y="1166.6666666666667" type="line"/>
    </contour>
  </outline>
</glyph>
<glyph name="yen" format="2">
  <advance height="2479.0" width="1088.3333333333333"/>
  <unicode hex="00A5"/>
  <outline>
    <contour>
      <point x="140.66666666666669" y="1489.0" type="line"/>
      <point x="39.0" y="1489.0" type="line"/>
      <point x="494.3333333333333" y="629.3333333333334" type="line"/>
      <point x="576.3333333333334" y="648.6666666666666" type="line"/>
    </contour>
    <contour>
      <point x="512.0" y="648.6666666666666" type="line"/>
      <point x="593.3333333333334" y="629.3333333333334" type="line"/>
      <point x="1049.3333333333333" y="1489.0" type="line"/>
      <point x="947.6666666666666" y="1489.0" type="line"/>
    </contour>
    <contour>
      <point x="590.0" y="722.3333333333334" type="line"/>
      <point x="498.3333333333333" y="722.3333333333334" type="line"/>
      <point x="498.3333333333333" y="0.0" type="line"/>
      <point x="590.0" y="0.0" type="line"/>
    </contour>
    <contour>
      <point x="931.0" y="691.3333333333334" type="line"/>
      <point x="157.0" y="691.3333333333334" type="line"/>
      <point x="157.0" y="617.0" type="line"/>
      <point x="931.0" y="617.0" type="line"/>
    </contour>
    <contour>
      <point x="931.0" y="477.3333333333333" type="line"/>
      <point x="157.0" y="477.3333333333333" type="line"/>
      <point x="157.0" y="402.3333333333333" type="line"/>
      <point x="931.0" y="402.3333333333333" type="line"/>
    </contour>
  </outline>
</glyph>
<glyph name="brokenbar" format="2">
  <advance height="2479.0" width="436.0"/>
  <unicode hex="00A6"/>
  <outline>
    <contour>
      <point x="175.33333333333334" y="391.6666666666667" type="line"/>
      <point x="175.33333333333334" y="-279.0" type="line"/>
      <point x="260.0" y="-279.0" type="line"/>
      <point x="260.0" y="391.6666666666667" type="line"/>
    </contour>
    <contour>
      <point x="260.0" y="1489.0" type="line"/>
      <point x="175.33333333333334" y="1489.0" type="line"/>
      <point x="175.33333333333334" y="821.3333333333334" type="line"/>
      <point x="260.0" y="821.3333333333334" type="line"/>
    </contour>
  </outline>
</glyph>
<glyph name="section" format="2">
  <advance height="2479.0" width="1099.6666666666667"/>
  <unicode hex="00A7"/>
  <outline>
    <contour>
      <point x="886.3333333333334" y="1172.3333333333333" type="line"/>
      <point x="878.3333333333334" y="1369.3333333333333"/>
      <point x="750.3333333333334" y="1510.0"/>
      <point x="549.6666666666666" y="1510.0" type="curve" smooth="yes"/>
      <point x="355.0" y="1510.0"/>
      <point x="216.33333333333334" y="1373.0"/>
      <point x="216.33333333333334" y="1199.0" type="curve" smooth="yes"/>
      <point x="216.33333333333334" y="1089.6666666666667"/>
      <point x="270.3333333333333" y="1016.0"/>
      <point x="358.6666666666667" y="949.6666666666666" type="curve"/>
      <point x="358.6666666666667" y="943.6666666666666" type="line"/>
      <point x="216.33333333333334" y="938.0"/>
      <point x="124.33333333333333" y="826.3333333333334"/>
      <point x="124.33333333333333" y="702.0" type="curve" smooth="yes"/>
      <point x="124.33333333333333" y="554.6666666666666"/>
      <point x="231.66666666666666" y="467.6666666666667"/>
      <point x="423.66666666666663" y="355.6666666666667" type="curve" smooth="yes"/>
      <point x="601.0" y="252.66666666666666" type="line" smooth="yes"/>
      <point x="756.3333333333334" y="162.0"/>
      <point x="816.6666666666666" y="104.66666666666667"/>
      <point x="816.6666666666666" y="4.0" type="curve" smooth="yes"/>
      <point x="816.6666666666666" y="-138.66666666666666"/>
      <point x="695.3333333333334" y="-220.0"/>
      <point x="545.0" y="-220.0" type="curve" smooth="yes"/>
      <point x="379.3333333333333" y="-220.0"/>
      <point x="266.0" y="-118.66666666666666"/>
      <point x="258.0" y="39.66666666666667" type="curve"/>
      <point x="170.33333333333334" y="39.66666666666667" type="line"/>
      <point x="178.33333333333334" y="-168.0"/>
      <point x="332.3333333333333" y="-303.0"/>
      <point x="545.0" y="-303.0" type="curve" smooth="yes"/>
      <point x="745.0" y="-303.0"/>
      <point x="902.6666666666666" y="-192.0"/>
      <point x="902.6666666666666" y="4.0" type="curve" smooth="yes"/>
      <point x="902.6666666666666" y="99.0"/>
      <point x="864.6666666666666" y="172.66666666666666"/>
      <point x="736.6666666666666" y="263.0" type="curve"/>
      <point x="736.6666666666666" y="265.3333333333333" type="line"/>
      <point x="867.6666666666666" y="277.0"/>
      <point x="975.3333333333334" y="379.3333333333333"/>
      <point x="975.3333333333334" y="502.0" type="curve" smooth="yes"/>
      <point x="975.3333333333334" y="676.6666666666666"/>
      <point x="813.6666666666666" y="766.6666666666666"/>
      <point x="682.0" y="845.3333333333334" type="curve" smooth="yes"/>
      <point x="506.3333333333333" y="949.3333333333334" type="line" smooth="yes"/>
      <point x="401.3333333333333" y="1011.6666666666666"/>
      <point x="302.6666666666667" y="1074.3333333333333"/>
      <point x="302.6666666666667" y="1199.0" type="curve" smooth="yes"/>
      <point x="302.6666666666667" y="1319.6666666666667"/>
      <point x="395.6666666666667" y="1427.3333333333333"/>
      <point x="549.6666666666666" y="1427.3333333333333" type="curve" smooth="yes"/>
      <point x="708.0" y="1427.3333333333333"/>
      <point x="794.3333333333334" y="1315.0"/>
      <point x="799.6666666666666" y="1172.3333333333333" type="curve"/>
    </contour>
    <contour>
      <point x="891.3333333333334" y="502.0" type="curve"/>
      <point x="891.3333333333334" y="375.6666666666667"/>
      <point x="759.3333333333334" y="306.6666666666667"/>
      <point x="641.6666666666666" y="325.6666666666667" type="curve" smooth="yes"/>
      <point x="464.6666666666667" y="428.6666666666667" type="line" smooth="yes"/>
      <point x="294.6666666666667" y="527.3333333333334"/>
      <point x="208.33333333333334" y="595.6666666666666"/>
      <point x="208.33333333333334" y="706.0" type="curve" smooth="yes"/>
      <point x="208.33333333333334" y="822.0"/>
      <point x="302.6666666666667" y="909.0"/>
      <point x="446.0" y="888.3333333333334" type="curve" smooth="yes"/>
      <point x="641.6666666666666" y="773.0" type="line" smooth="yes"/>
      <point x="760.3333333333334" y="702.6666666666666"/>
      <point x="891.3333333333334" y="625.3333333333334"/>
    </contour>
  </outline>
</glyph>
<glyph name="dieresis" format="2">
  <advance height="2479.0" width="1303.3333333333333"/>
  <unicode hex="00A8"/>
  <anchor x="651.6666666666666" y="1303.0" name="_top"/>
  <anchor x="651.6666666666666" y="1676.0" name="top"/>
  <outline>
    <contour>
      <point x="488.66666666666663" y="1315.0" type="curve" smooth="yes"/>
      <point x="528.3333333333334" y="1315.0"/>
      <point x="558.6666666666666" y="1347.6666666666667"/>
      <point x="558.6666666666666" y="1384.6666666666667" type="curve" smooth="yes"/>
      <point x="558.6666666666666" y="1424.3333333333333"/>
      <point x="528.3333333333334" y="1454.6666666666667"/>
      <point x="488.66666666666663" y="1454.6666666666667" type="curve" smooth="yes"/>
      <point x="451.66666666666663" y="1454.6666666666667"/>
      <point x="419.0" y="1424.3333333333333"/>
      <point x="419.0" y="1384.6666666666667" type="curve" smooth="yes"/>
      <point x="419.0" y="1347.6666666666667"/>
      <point x="451.66666666666663" y="1315.0"/>
    </contour>
    <contour>
      <point x="815.0" y="1315.0" type="curve" smooth="yes"/>
      <point x="853.6666666666666" y="1315.0"/>
      <point x="884.3333333333334" y="1347.6666666666667"/>
      <point x="884.3333333333334" y="1384.6666666666667" type="curve" smooth="yes"/>
      <point x="884.3333333333334" y="1424.3333333333333"/>
      <point x="853.6666666666666" y="1454.6666666666667"/>
      <point x="815.0" y="1454.6666666666667" type="curve" smooth="yes"/>
      <point x="777.0" y="1454.6666666666667"/>
      <point x="744.6666666666666" y="1424.3333333333333"/>
      <point x="744.6666666666666" y="1384.6666666666667" type="curve" smooth="yes"/>
      <point x="744.6666666666666" y="1347.6666666666667"/>
      <point x="777.0" y="1315.0"/>
    </contour>
  </outline>
</glyph>
<glyph name="copyright" format="2">
  <advance height="2479.0" width="1873.0"/>
  <unicode hex="00A9"/>
  <outline>
    <contour>
      <point x="520.6666666666666" y="745.0" type="curve" smooth="yes"/>
      <point x="520.6666666666666" y="506.0"/>
      <point x="714.3333333333334" y="313.0"/>
      <point x="952.6666666666666" y="313.0" type="curve" smooth="yes"/>
      <point x="1136.3333333333333" y="313.0"/>
      <point x="1278.3333333333333" y="428.0"/>
      <point x="1324.3333333333333" y="590.0" type="curve"/>
      <point x="1230.3333333333333" y="590.0" type="line"/>
      <point x="1190.0" y="476.6666666666667"/>
      <point x="1087.3333333333333" y="399.6666666666667"/>
      <point x="952.6666666666666" y="399.6666666666667" type="curve" smooth="yes"/>
      <point x="763.0" y="399.6666666666667"/>
      <point x="608.3333333333334" y="554.3333333333334"/>
      <point x="608.3333333333334" y="745.0" type="curve" smooth="yes"/>
      <point x="608.3333333333334" y="936.0"/>
      <point x="763.0" y="1089.3333333333333"/>
      <point x="952.6666666666666" y="1089.3333333333333" type="curve" smooth="yes"/>
      <point x="1087.3333333333333" y="1089.3333333333333"/>
      <point x="1195.3333333333333" y="1012.3333333333334"/>
      <point x="1235.0" y="900.0" type="curve"/>
      <point x="1329.0" y="900.0" type="line"/>
      <point x="1283.3333333333333" y="1061.0"/>
      <point x="1136.3333333333333" y="1177.0"/>
      <point x="952.6666666666666" y="1177.0" type="curve" smooth="yes"/>
      <point x="714.3333333333334" y="1177.0"/>
      <point x="520.6666666666666" y="983.0"/>
    </contour>
    <component base="whiteCircle"/>
  </outline>
</glyph>
<glyph name="ordfeminine" format="2">
  <advance height="2479.0" width="799.0"/>
  <unicode hex="00AA"/>
  <outline>
    <contour>
      <point x="569.3333333333334" y="861.0" type="line"/>
      <point x="568.0" y="809.6666666666666"/>
      <point x="575.6666666666666" y="754.3333333333334"/>
      <point x="590.3333333333334" y="709.0" type="curve"/>
      <point x="683.0" y="709.0" type="line"/>
      <point x="664.6666666666666" y="762.3333333333334"/>
      <point x="658.0" y="819.0"/>
      <point x="658.0" y="887.0" type="curve" smooth="yes"/>
      <point x="658.0" y="1201.0" type="line"/>
      <point x="657.3333333333334" y="1389.0"/>
      <point x="571.3333333333334" y="1478.0"/>
      <point x="409.0" y="1478.0" type="curve" smooth="yes"/>
      <point x="242.66666666666669" y="1478.0"/>
      <point x="134.0" y="1385.0"/>
      <point x="130.0" y="1247.0" type="curve"/>
      <point x="218.0" y="1239.6666666666667" type="line"/>
      <point x="224.66666666666669" y="1343.0"/>
      <point x="291.33333333333337" y="1397.0"/>
      <point x="409.0" y="1397.0" type="curve" smooth="yes"/>
      <point x="518.0" y="1397.0"/>
      <point x="568.0" y="1336.0"/>
      <point x="569.3333333333334" y="1201.0" type="curve"/>
    </contour>
    <contour>
      <point x="589.6666666666666" y="1134.6666666666667" type="line"/>
      <point x="426.6666666666667" y="1134.6666666666667" type="line"/>
      <point x="222.0" y="1134.6666666666667"/>
      <point x="116.33333333333334" y="1055.3333333333333"/>
      <point x="115.66666666666667" y="909.6666666666666" type="curve" smooth="yes"/>
      <point x="115.66666666666667" y="779.0"/>
      <point x="202.33333333333334" y="692.0"/>
      <point x="341.6666666666667" y="692.0" type="curve" smooth="yes"/>
      <point x="447.33333333333337" y="692.0"/>
      <point x="522.3333333333334" y="743.0"/>
      <point x="599.3333333333334" y="827.0" type="curve"/>
      <point x="581.6666666666666" y="886.3333333333334" type="line"/>
      <point x="531.6666666666666" y="818.6666666666666"/>
      <point x="441.33333333333337" y="770.6666666666666"/>
      <point x="356.33333333333337" y="772.0" type="curve" smooth="yes"/>
      <point x="260.33333333333337" y="772.6666666666666"/>
      <point x="206.0" y="826.0"/>
      <point x="206.66666666666669" y="911.6666666666666" type="curve" smooth="yes"/>
      <point x="206.0" y="1009.0"/>
      <point x="278.6666666666667" y="1066.6666666666667"/>
      <point x="426.6666666666667" y="1066.6666666666667" type="curve"/>
      <point x="589.6666666666666" y="1066.6666666666667" type="line"/>
    </contour>
  </outline>
</glyph>
<glyph name="logicalnot" format="2">
  <advance height="2479.0" width="1050.3333333333333"/>
  <unicode hex="00AC"/>
  <outline>
    <contour>
      <point x="936.6666666666666" y="806.0" type="line"/>
      <point x="117.66666666666667" y="806.0" type="line"/>
      <point x="117.66666666666667" y="717.3333333333334" type="line"/>
      <point x="936.6666666666666" y="717.3333333333334" type="line"/>
    </contour>
    <contour>
      <point x="936.6666666666666" y="765.6666666666666" type="line"/>
      <point x="839.0" y="765.6666666666666" type="line"/>
      <point x="839.0" y="375.0" type="line"/>
      <point x="936.6666666666666" y="375.0" type="line"/>
    </contour>
  </outline>
</glyph>
<glyph name="registered" format="2">
  <advance height="2479.0" width="1373.0"/>
  <unicode hex="00AE"/>
  <outline>
    <contour>
      <point x="495.6666666666667" y="666.0" type="line"/>
      <point x="565.6666666666666" y="666.0" type="line"/>
      <point x="565.6666666666666" y="1142.6666666666667" type="line"/>
      <point x="724.3333333333334" y="1142.6666666666667" type="line" smooth="yes"/>
      <point x="790.0" y="1142.6666666666667"/>
      <point x="834.6666666666666" y="1108.3333333333333"/>
      <point x="834.6666666666666" y="1039.0" type="curve" smooth="yes"/>
      <point x="834.6666666666666" y="970.3333333333334"/>
      <point x="790.6666666666666" y="929.6666666666666"/>
      <point x="723.3333333333334" y="929.6666666666666" type="curve" smooth="yes"/>
      <point x="534.6666666666666" y="929.6666666666666" type="line"/>
      <point x="534.6666666666666" y="869.3333333333334" type="line"/>
      <point x="736.6666666666666" y="869.3333333333334" type="line" smooth="yes"/>
      <point x="833.6666666666666" y="869.3333333333334"/>
      <point x="908.3333333333334" y="937.6666666666666"/>
      <point x="908.3333333333334" y="1039.0" type="curve" smooth="yes"/>
      <point x="908.3333333333334" y="1140.0"/>
      <point x="834.6666666666666" y="1203.0"/>
      <point x="739.6666666666666" y="1203.0" type="curve" smooth="yes"/>
      <point x="495.6666666666667" y="1203.0" type="line"/>
    </contour>
    <contour>
      <point x="797.6666666666666" y="911.6666666666666" type="line"/>
      <point x="721.6666666666666" y="911.6666666666666" type="line"/>
      <point x="851.3333333333334" y="666.0" type="line"/>
      <point x="930.3333333333334" y="666.0" type="line"/>
    </contour>
    <contour>
      <point x="687.0" y="346.0" type="curve" smooth="yes"/>
      <point x="1008.0" y="346.0"/>
      <point x="1268.0" y="607.0"/>
      <point x="1268.0" y="928.0" type="curve" smooth="yes"/>
      <point x="1268.0" y="1249.0"/>
      <point x="1008.0" y="1510.0"/>
      <point x="687.0" y="1510.0" type="curve" smooth="yes"/>
      <point x="365.0" y="1510.0"/>
      <point x="105.0" y="1249.0"/>
      <point x="105.0" y="928.0" type="curve" smooth="yes"/>
      <point x="105.0" y="607.0"/>
      <point x="365.0" y="346.0"/>
    </contour>
    <contour>
      <point x="687.0" y="424.0" type="curve" smooth="yes"/>
      <point x="408.0" y="424.0"/>
      <point x="182.0" y="649.3333333333334"/>
      <point x="182.0" y="928.0" type="curve" smooth="yes"/>
      <point x="182.0" y="1206.6666666666667"/>
      <point x="408.0" y="1432.0"/>
      <point x="687.0" y="1432.0" type="curve" smooth="yes"/>
      <point x="965.6666666666666" y="1432.0"/>
      <point x="1191.0" y="1206.6666666666667"/>
      <point x="1191.0" y="928.0" type="curve" smooth="yes"/>
      <point x="1191.0" y="649.3333333333334"/>
      <point x="965.6666666666666" y="424.0"/>
    </contour>
  </outline>
</glyph>
<glyph name="macron" format="2">
  <advance height="2479.0" width="705.6666666666667"/>
  <unicode hex="00AF"/>
  <anchor x="353.33333333333337" y="1303.0" name="_top"/>
  <outline>
    <contour>
      <point x="621.3333333333334" y="1423.6666666666667" type="line"/>
      <point x="84.33333333333334" y="1423.6666666666667" type="line"/>
      <point x="84.33333333333334" y="1344.0" type="line"/>
      <point x="621.3333333333334" y="1344.0" type="line"/>
    </contour>
  </outline>
</glyph>
<glyph name="plusminus" format="2">
  <advance height="2479.0" width="1318.6666666666667"/>
  <unicode hex="00B1"/>
  <outline>
    <contour>
      <point x="222.33333333333334" y="116.66666666666666" type="line"/>
      <point x="1096.3333333333333" y="116.66666666666666" type="line"/>
      <point x="1096.3333333333333" y="201.66666666666666" type="line"/>
      <point x="222.33333333333334" y="201.66666666666666" type="line"/>
    </contour>
    <contour>
      <point x="222.33333333333334" y="684.3333333333334" type="line"/>
      <point x="1096.3333333333333" y="684.3333333333334" type="line"/>
      <point x="1096.3333333333333" y="770.0" type="line"/>
      <point x="222.33333333333334" y="770.0" type="line"/>
    </contour>
    <contour>
      <point x="616.3333333333334" y="337.6666666666667" type="line"/>
      <point x="702.0" y="337.6666666666667" type="line"/>
      <point x="702.0" y="1117.0" type="line"/>
      <point x="616.3333333333334" y="1117.0" type="line"/>
    </contour>
  </outline>
</glyph>
<glyph name="twosuperior" format="2">
  <advance height="2479.0" width="849.6666666666666"/>
  <unicode hex="00B2"/>
  <anchor x="557.6666666666666" y="1203.6666666666667" name="cross"/>
  <outline>
    <contour>
      <point x="115.33333333333333" y="745.0" type="line"/>
      <point x="740.6666666666666" y="745.0" type="line"/>
      <point x="740.6666666666666" y="816.3333333333334" type="line"/>
      <point x="235.66666666666669" y="816.3333333333334" type="line"/>
      <point x="235.66666666666669" y="820.3333333333334" type="line"/>
      <point x="486.6666666666667" y="1069.3333333333333" type="line" smooth="yes"/>
      <point x="644.6666666666666" y="1224.6666666666667"/>
      <point x="699.3333333333334" y="1300.3333333333333"/>
      <point x="699.3333333333334" y="1406.3333333333333" type="curve" smooth="yes"/>
      <point x="699.3333333333334" y="1544.0"/>
      <point x="579.6666666666666" y="1649.0"/>
      <point x="413.0" y="1649.0" type="curve" smooth="yes"/>
      <point x="244.33333333333334" y="1649.0"/>
      <point x="123.33333333333333" y="1543.0"/>
      <point x="123.33333333333333" y="1396.3333333333333" type="curve"/>
      <point x="204.33333333333334" y="1396.3333333333333" type="line"/>
      <point x="204.33333333333334" y="1500.3333333333333"/>
      <point x="287.6666666666667" y="1580.6666666666667"/>
      <point x="412.0" y="1580.6666666666667" type="curve" smooth="yes"/>
      <point x="530.3333333333334" y="1580.6666666666667"/>
      <point x="617.3333333333334" y="1507.6666666666667"/>
      <point x="617.3333333333334" y="1405.3333333333333" type="curve" smooth="yes"/>
      <point x="617.3333333333334" y="1318.0"/>
      <point x="567.3333333333334" y="1255.0"/>
      <point x="442.0" y="1129.6666666666667" type="curve" smooth="yes"/>
      <point x="115.33333333333333" y="806.0" type="line"/>
    </contour>
  </outline>
</glyph>
<glyph name="threesuperior" format="2">
  <advance height="2479.0" width="854.3333333333334"/>
  <unicode hex="00B3"/>
  <outline>
    <contour>
      <point x="429.6666666666667" y="733.0" type="curve" smooth="yes"/>
      <point x="615.6666666666666" y="733.0"/>
      <point x="748.3333333333334" y="842.0"/>
      <point x="748.3333333333334" y="984.0" type="curve" smooth="yes"/>
      <point x="748.3333333333334" y="1094.0"/>
      <point x="668.3333333333334" y="1180.0"/>
      <point x="535.3333333333334" y="1204.0" type="curve"/>
      <point x="535.3333333333334" y="1210.0" type="line"/>
      <point x="642.3333333333334" y="1233.3333333333333"/>
      <point x="717.3333333333334" y="1309.0"/>
      <point x="717.3333333333334" y="1414.0" type="curve" smooth="yes"/>
      <point x="717.3333333333334" y="1549.0"/>
      <point x="598.3333333333334" y="1649.0"/>
      <point x="428.6666666666667" y="1649.0" type="curve" smooth="yes"/>
      <point x="262.0" y="1649.0"/>
      <point x="133.66666666666666" y="1550.3333333333333"/>
      <point x="132.66666666666666" y="1406.3333333333333" type="curve"/>
      <point x="212.33333333333334" y="1406.3333333333333" type="line"/>
      <point x="215.33333333333334" y="1510.6666666666667"/>
      <point x="308.3333333333333" y="1580.6666666666667"/>
      <point x="428.6666666666667" y="1580.6666666666667" type="curve" smooth="yes"/>
      <point x="551.0" y="1580.6666666666667"/>
      <point x="635.3333333333334" y="1507.6666666666667"/>
      <point x="635.3333333333334" y="1411.0" type="curve" smooth="yes"/>
      <point x="635.3333333333334" y="1304.0"/>
      <point x="534.3333333333334" y="1238.6666666666667"/>
      <point x="403.6666666666667" y="1238.6666666666667" type="curve" smooth="yes"/>
      <point x="361.3333333333333" y="1238.6666666666667" type="line"/>
      <point x="361.3333333333333" y="1170.3333333333333" type="line"/>
      <point x="403.6666666666667" y="1170.3333333333333" type="line" smooth="yes"/>
      <point x="559.3333333333334" y="1170.3333333333333"/>
      <point x="665.3333333333334" y="1095.0"/>
      <point x="665.3333333333334" y="988.0" type="curve" smooth="yes"/>
      <point x="665.3333333333334" y="885.3333333333334"/>
      <point x="568.3333333333334" y="806.0"/>
      <point x="429.6666666666667" y="806.0" type="curve" smooth="yes"/>
      <point x="298.6666666666667" y="806.0"/>
      <point x="196.0" y="875.3333333333334"/>
      <point x="195.0" y="977.6666666666666" type="curve"/>
      <point x="110.33333333333333" y="977.6666666666666" type="line"/>
      <point x="111.33333333333333" y="835.0"/>
      <point x="248.33333333333334" y="733.0"/>
    </contour>
  </outline>
</glyph>
<glyph name="micro" format="2">
  <advance height="2479.0" width="1194.6666666666667"/>
  <unicode hex="00B5"/>
  <outline>
    <contour>
      <point x="180.33333333333334" y="-428.3333333333333" type="line"/>
      <point x="269.0" y="-428.3333333333333" type="line"/>
      <point x="269.0" y="173.33333333333334" type="line"/>
      <point x="275.0" y="173.33333333333334" type="line"/>
      <point x="331.0" y="56.666666666666664"/>
      <point x="454.3333333333333" y="-15.0"/>
      <point x="598.3333333333334" y="-15.0" type="curve" smooth="yes"/>
      <point x="742.3333333333334" y="-15.0"/>
      <point x="866.0" y="56.666666666666664"/>
      <point x="921.0" y="173.33333333333334" type="curve"/>
      <point x="927.6666666666666" y="173.33333333333334" type="line"/>
      <point x="927.6666666666666" y="0.0" type="line"/>
      <point x="1016.3333333333334" y="0.0" type="line"/>
      <point x="1016.3333333333334" y="1117.0" type="line"/>
      <point x="927.6666666666666" y="1117.0" type="line"/>
      <point x="927.6666666666666" y="397.0" type="line" smooth="yes"/>
      <point x="927.6666666666666" y="206.66666666666669"/>
      <point x="792.3333333333334" y="71.66666666666667"/>
      <point x="598.3333333333334" y="71.66666666666667" type="curve" smooth="yes"/>
      <point x="404.3333333333333" y="71.66666666666667"/>
      <point x="269.0" y="206.33333333333334"/>
      <point x="269.0" y="397.0" type="curve" smooth="yes"/>
      <point x="269.0" y="1117.0" type="line"/>
      <point x="180.33333333333334" y="1117.0" type="line"/>
    </contour>
  </outline>
</glyph>
<glyph name="paragraph" format="2">
  <advance height="2479.0" width="1166.0"/>
  <unicode hex="00B6"/>
  <outline>
    <contour>
      <point x="950.3333333333334" y="1405.0" type="line"/>
      <point x="950.3333333333334" y="1489.0" type="line"/>
      <point x="621.3333333333334" y="1489.0" type="line" smooth="yes"/>
      <point x="304.3333333333333" y="1489.0"/>
      <point x="130.33333333333334" y="1289.0"/>
      <point x="130.33333333333334" y="1021.0" type="curve" smooth="yes"/>
      <point x="130.33333333333334" y="751.0"/>
      <point x="304.3333333333333" y="553.0"/>
      <point x="621.3333333333334" y="553.0" type="curve" smooth="yes"/>
      <point x="706.3333333333334" y="553.0" type="line"/>
      <point x="706.3333333333334" y="1405.0" type="line"/>
    </contour>
    <contour>
      <point x="859.0" y="0.0" type="line"/>
      <point x="950.3333333333334" y="0.0" type="line"/>
      <point x="950.3333333333334" y="1489.0" type="line"/>
      <point x="859.0" y="1489.0" type="line"/>
    </contour>
  </outline>
</glyph>
<glyph name="cedilla" format="2">
  <advance height="2479.0" width="461.6666666666667"/>
  <unicode hex="00B8"/>
  <anchor x="235.66666666666669" y="0.0" name="_cedilla"/>
  <outline>
    <contour>
      <point x="195.33333333333334" y="6.0" type="line"/>
      <point x="171.66666666666666" y="-109.66666666666667" type="line"/>
      <point x="279.0" y="-111.0"/>
      <point x="331.3333333333333" y="-145.66666666666666"/>
      <point x="332.0" y="-224.0" type="curve" smooth="yes"/>
      <point x="331.3333333333333" y="-293.6666666666667"/>
      <point x="281.0" y="-324.3333333333333"/>
      <point x="178.33333333333334" y="-327.0" type="curve"/>
      <point x="181.33333333333334" y="-395.3333333333333" type="line"/>
      <point x="333.6666666666667" y="-392.6666666666667"/>
      <point x="413.33333333333337" y="-332.3333333333333"/>
      <point x="414.0" y="-222.0" type="curve" smooth="yes"/>
      <point x="413.33333333333337" y="-124.33333333333333"/>
      <point x="354.0" y="-66.66666666666667"/>
      <point x="263.0" y="-52.0" type="curve"/>
      <point x="273.33333333333337" y="6.0" type="line"/>
    </contour>
  </outline>
</glyph>
<glyph name="onesuperior" format="2">
  <advance height="2479.0" width="586.3333333333334"/>
  <unicode hex="00B9"/>
  <outline>
    <contour>
      <point x="311.6666666666667" y="745.0" type="line"/>
      <point x="393.33333333333337" y="745.0" type="line"/>
      <point x="393.33333333333337" y="1638.0" type="line"/>
      <point x="300.3333333333333" y="1638.0" type="line"/>
      <point x="88.33333333333333" y="1497.0" type="line"/>
      <point x="88.33333333333333" y="1409.0" type="line"/>
      <point x="303.6666666666667" y="1551.6666666666667" type="line"/>
      <point x="311.6666666666667" y="1551.6666666666667" type="line"/>
    </contour>
  </outline>
</glyph>
<glyph name="ordmasculine" format="2">
  <advance height="2479.0" width="839.6666666666666"/>
  <unicode hex="00BA"/>
  <outline>
    <contour>
      <point x="95.66666666666667" y="1045.3333333333333" type="line"/>
      <point x="95.66666666666667" y="828.6666666666666"/>
      <point x="217.66666666666666" y="694.0"/>
      <point x="420.3333333333333" y="694.0" type="curve" smooth="yes"/>
      <point x="624.3333333333334" y="694.6666666666666"/>
      <point x="744.0" y="828.0"/>
      <point x="744.0" y="1045.3333333333333" type="curve"/>
      <point x="744.0" y="1127.6666666666667" type="line"/>
      <point x="744.0" y="1342.3333333333333"/>
      <point x="623.6666666666666" y="1478.0"/>
      <point x="420.6666666666667" y="1478.0" type="curve" smooth="yes"/>
      <point x="217.66666666666666" y="1478.0"/>
      <point x="95.66666666666667" y="1343.0"/>
      <point x="95.66666666666667" y="1127.6666666666667" type="curve"/>
    </contour>
    <contour>
      <point x="183.33333333333334" y="1127.6666666666667" type="line"/>
      <point x="183.33333333333334" y="1293.0"/>
      <point x="270.0" y="1399.0"/>
      <point x="420.6666666666667" y="1399.0" type="curve" smooth="yes"/>
      <point x="570.6666666666666" y="1399.0"/>
      <point x="656.3333333333334" y="1292.3333333333333"/>
      <point x="656.3333333333334" y="1127.6666666666667" type="curve"/>
      <point x="656.3333333333334" y="1045.3333333333333" type="line"/>
      <point x="656.3333333333334" y="876.3333333333334"/>
      <point x="571.3333333333334" y="771.3333333333334"/>
      <point x="420.3333333333333" y="772.0" type="curve" smooth="yes"/>
      <point x="269.33333333333337" y="772.6666666666666"/>
      <point x="183.33333333333334" y="878.3333333333334"/>
      <point x="183.33333333333334" y="1045.3333333333333" type="curve"/>
    </contour>
  </outline>
</glyph>
<glyph name="AE" format="2">
  <advance height="2479.0" width="1985.3333333333333"/>
  <unicode hex="00C6"/>
  <anchor x="1279.3333333333333" y="1676.0" name="top"/>
  <outline>
    <contour>
      <point x="62.0" y="0.0" type="line"/>
      <point x="162.66666666666669" y="0.0" type="line"/>
      <point x="862.0" y="1405.0" type="line"/>
      <point x="995.0" y="1405.0" type="line"/>
      <point x="995.0" y="0.0" type="line"/>
      <point x="1841.3333333333333" y="0.0" type="line"/>
      <point x="1841.3333333333333" y="84.66666666666667" type="line"/>
      <point x="1086.0" y="84.66666666666667" type="line"/>
      <point x="1086.0" y="702.6666666666666" type="line"/>
      <point x="1779.3333333333333" y="702.6666666666666" type="line"/>
      <point x="1779.3333333333333" y="787.3333333333334" type="line"/>
      <point x="1086.0" y="787.3333333333334" type="line"/>
      <point x="1086.0" y="1405.0" type="line"/>
      <point x="1824.0" y="1405.0" type="line"/>
      <point x="1824.0" y="1489.0" type="line"/>
      <point x="808.6666666666666" y="1489.0" type="line"/>
    </contour>
    <contour>
      <point x="361.6666666666667" y="476.0" type="line"/>
      <point x="1042.3333333333333" y="476.0" type="line"/>
      <point x="1042.3333333333333" y="560.6666666666666" type="line"/>
      <point x="361.6666666666667" y="560.6666666666666" type="line"/>
    </contour>
  </outline>
</glyph>
<glyph name="multiply" format="2">
  <advance height="2479.0" width="1318.6666666666667"/>
  <unicode hex="00D7"/>
  <outline>
    <contour>
      <point x="1040.0" y="142.0" type="line"/>
      <point x="1099.3333333333333" y="201.0" type="line"/>
      <point x="278.6666666666667" y="1021.6666666666666" type="line"/>
      <point x="219.66666666666666" y="962.3333333333334" type="line"/>
    </contour>
    <contour>
      <point x="278.6666666666667" y="142.0" type="line"/>
      <point x="1099.3333333333333" y="962.3333333333334" type="line"/>
      <point x="1040.0" y="1021.6666666666666" type="line"/>
      <point x="219.66666666666666" y="201.0" type="line"/>
    </contour>
  </outline>
</glyph>
<glyph name="Thorn" format="2">
  <advance height="2479.0" width="1236.6666666666667"/>
  <unicode hex="00DE"/>
  <outline>
    <contour>
      <point x="197.66666666666666" y="1489.0" type="line"/>
      <point x="197.66666666666666" y="0.0" type="line"/>
      <point x="287.0" y="0.0" type="line"/>
      <point x="287.0" y="1489.0" type="line"/>
    </contour>
    <contour>
      <point x="241.66666666666666" y="1148.3333333333333" type="line"/>
      <point x="241.66666666666666" y="1063.6666666666667" type="line"/>
      <point x="621.6666666666666" y="1063.6666666666667" type="line" smooth="yes"/>
      <point x="851.3333333333334" y="1063.6666666666667"/>
      <point x="985.0" y="945.6666666666666"/>
      <point x="986.3333333333334" y="747.0" type="curve" smooth="yes"/>
      <point x="985.0" y="547.3333333333334"/>
      <point x="854.6666666666666" y="434.6666666666667"/>
      <point x="621.6666666666666" y="434.6666666666667" type="curve" smooth="yes"/>
      <point x="241.66666666666666" y="434.6666666666667" type="line"/>
      <point x="241.66666666666666" y="350.0" type="line"/>
      <point x="621.6666666666666" y="350.0" type="line" smooth="yes"/>
      <point x="908.6666666666666" y="350.0"/>
      <point x="1074.3333333333333" y="509.3333333333333"/>
      <point x="1074.3333333333333" y="749.6666666666666" type="curve" smooth="yes"/>
      <point x="1074.3333333333333" y="985.6666666666666"/>
      <point x="904.6666666666666" y="1148.3333333333333"/>
      <point x="621.6666666666666" y="1148.3333333333333" type="curve" smooth="yes"/>
    </contour>
  </outline>
</glyph>
<glyph name="germandbls" format="2">
  <advance height="2479.0" width="1200.6666666666667"/>
  <unicode hex="00DF"/>
  <outline>
    <contour>
      <point x="215.33333333333331" y="0.0" type="line"/>
      <point x="303.3333333333333" y="0.0" type="line"/>
      <point x="303.3333333333333" y="1108.0" type="line" smooth="yes"/>
      <point x="303.3333333333333" y="1304.3333333333333"/>
      <point x="422.3333333333333" y="1426.6666666666667"/>
      <point x="606.0" y="1425.3333333333333" type="curve" smooth="yes"/>
      <point x="780.6666666666666" y="1425.3333333333333"/>
      <point x="894.3333333333334" y="1309.0"/>
      <point x="894.3333333333334" y="1134.6666666666667" type="curve" smooth="yes"/>
      <point x="894.3333333333334" y="948.3333333333334"/>
      <point x="760.3333333333334" y="806.6666666666666"/>
      <point x="554.6666666666666" y="806.6666666666666" type="curve" smooth="yes"/>
      <point x="508.3333333333333" y="806.6666666666666" type="line"/>
      <point x="508.3333333333333" y="721.6666666666666" type="line"/>
      <point x="566.0" y="721.6666666666666" type="line" smooth="yes"/>
      <point x="813.6666666666666" y="721.6666666666666"/>
      <point x="970.0" y="590.6666666666666"/>
      <point x="970.0" y="390.6666666666667" type="curve" smooth="yes"/>
      <point x="970.0" y="210.0"/>
      <point x="835.0" y="84.66666666666667"/>
      <point x="633.0" y="84.66666666666667" type="curve" smooth="yes"/>
      <point x="502.3333333333333" y="84.66666666666667" type="line"/>
      <point x="502.3333333333333" y="0.0" type="line"/>
      <point x="624.6666666666666" y="0.0" type="line" smooth="yes"/>
      <point x="887.3333333333334" y="0.0"/>
      <point x="1057.3333333333333" y="160.33333333333334"/>
      <point x="1057.3333333333333" y="396.6666666666667" type="curve" smooth="yes"/>
      <point x="1057.3333333333333" y="598.3333333333334"/>
      <point x="932.6666666666666" y="731.0"/>
      <point x="717.6666666666666" y="770.6666666666666" type="curve"/>
      <point x="717.6666666666666" y="779.3333333333334" type="line"/>
      <point x="882.0" y="831.6666666666666"/>
      <point x="981.3333333333334" y="964.6666666666666"/>
      <point x="982.0" y="1143.3333333333333" type="curve" smooth="yes"/>
      <point x="983.3333333333334" y="1365.3333333333333"/>
      <point x="827.3333333333334" y="1510.0"/>
      <point x="604.3333333333334" y="1510.0" type="curve" smooth="yes"/>
      <point x="372.6666666666667" y="1510.0"/>
      <point x="215.33333333333331" y="1357.0"/>
      <point x="215.33333333333331" y="1116.0" type="curve" smooth="yes"/>
    </contour>
  </outline>
</glyph>
<glyph name="ae" format="2">
  <advance height="2479.0" width="1890.0"/>
  <unicode hex="00E6"/>
  <anchor x="941.3333333333334" y="1303.0" name="top"/>
  <outline>
    <contour>
      <point x="1325.0" y="-23.0" type="curve"/>
      <point x="1545.6666666666667" y="-23.0"/>
      <point x="1680.3333333333333" y="105.33333333333333"/>
      <point x="1731.3333333333333" y="218.33333333333334" type="curve"/>
      <point x="1650.6666666666667" y="251.0" type="line"/>
      <point x="1608.6666666666667" y="167.66666666666666"/>
      <point x="1507.0" y="59.0"/>
      <point x="1325.0" y="59.0" type="curve" smooth="yes"/>
      <point x="1067.3333333333333" y="59.0"/>
      <point x="915.0" y="269.0"/>
      <point x="915.0" y="548.6666666666666" type="curve" smooth="yes"/>
      <point x="915.0" y="585.6666666666666" type="line" smooth="yes"/>
      <point x="919.0" y="844.6666666666666"/>
      <point x="1081.6666666666667" y="1051.0"/>
      <point x="1303.0" y="1051.0" type="curve"/>
      <point x="1516.3333333333333" y="1051.0"/>
      <point x="1679.0" y="861.3333333333334"/>
      <point x="1679.0" y="619.6666666666666" type="curve"/>
      <point x="889.3333333333334" y="619.6666666666666" type="line"/>
      <point x="889.3333333333334" y="539.3333333333334" type="line"/>
      <point x="1767.6666666666667" y="539.3333333333334" type="line"/>
      <point x="1767.6666666666667" y="594.3333333333334" type="line" smooth="yes"/>
      <point x="1767.6666666666667" y="925.0"/>
      <point x="1553.3333333333333" y="1134.0"/>
      <point x="1303.0" y="1134.0" type="curve" smooth="yes"/>
      <point x="1111.6666666666667" y="1134.0"/>
      <point x="962.6666666666666" y="1015.3333333333334"/>
      <point x="889.0" y="831.6666666666666" type="curve"/>
      <point x="869.0" y="325.0" type="line"/>
      <point x="926.3333333333334" y="118.33333333333333"/>
      <point x="1093.0" y="-23.0"/>
    </contour>
    <contour>
      <point x="488.6666666666667" y="58.0" type="curve" smooth="yes"/>
      <point x="332.3333333333333" y="58.0"/>
      <point x="214.0" y="152.33333333333334"/>
      <point x="214.0" y="304.6666666666667" type="curve" smooth="yes"/>
      <point x="214.0" y="443.0"/>
      <point x="316.0" y="516.6666666666666"/>
      <point x="560.3333333333334" y="545.6666666666666" type="curve" smooth="yes"/>
      <point x="670.0" y="558.6666666666666"/>
      <point x="801.0" y="579.0"/>
      <point x="847.3333333333334" y="617.6666666666666" type="curve"/>
      <point x="847.3333333333334" y="452.6666666666667" type="line" smooth="yes"/>
      <point x="847.3333333333334" y="226.33333333333334"/>
      <point x="698.0" y="58.0"/>
    </contour>
    <contour>
      <point x="480.0" y="-24.0" type="curve" smooth="yes"/>
      <point x="657.6666666666666" y="-24.0"/>
      <point x="836.6666666666666" y="80.33333333333333"/>
      <point x="896.0" y="300.66666666666663" type="curve"/>
      <point x="907.0" y="300.66666666666663" type="line"/>
      <point x="929.0" y="831.0" type="line"/>
      <point x="907.0" y="1029.0"/>
      <point x="746.6666666666666" y="1134.0"/>
      <point x="555.6666666666666" y="1134.0" type="curve" smooth="yes"/>
      <point x="383.3333333333333" y="1134.0"/>
      <point x="222.0" y="1055.6666666666667"/>
      <point x="158.33333333333334" y="895.3333333333334" type="curve"/>
      <point x="241.33333333333334" y="864.0" type="line"/>
      <point x="285.0" y="974.3333333333334"/>
      <point x="398.6666666666667" y="1052.0"/>
      <point x="557.6666666666666" y="1052.0" type="curve" smooth="yes"/>
      <point x="738.0" y="1052.0"/>
      <point x="847.3333333333334" y="948.6666666666666"/>
      <point x="847.3333333333334" y="786.3333333333334" type="curve" smooth="yes"/>
      <point x="847.3333333333334" y="740.0" type="line" smooth="yes"/>
      <point x="847.3333333333334" y="654.6666666666666"/>
      <point x="722.6666666666666" y="644.6666666666666"/>
      <point x="552.0" y="624.6666666666666" type="curve" smooth="yes"/>
      <point x="254.0" y="588.6666666666666"/>
      <point x="126.33333333333333" y="493.6666666666667"/>
      <point x="126.33333333333333" y="307.6666666666667" type="curve" smooth="yes"/>
      <point x="126.33333333333333" y="95.0"/>
      <point x="287.0" y="-24.0"/>
    </contour>
  </outline>
</glyph>
<glyph name="eth" format="2">
  <advance height="2479.0" width="1205.6666666666667"/>
  <unicode hex="00F0"/>
  <outline>
    <contour>
      <point x="975.3333333333334" y="1447.0" type="line"/>
      <point x="951.3333333333334" y="1512.6666666666667" type="line"/>
      <point x="372.6666666666667" y="1244.0" type="line"/>
      <point x="396.3333333333333" y="1178.3333333333333" type="line"/>
    </contour>
    <contour>
      <point x="603.0" y="-23.0" type="curve" smooth="yes"/>
      <point x="879.6666666666666" y="-23.0"/>
      <point x="1084.0" y="195.33333333333334"/>
      <point x="1083.3333333333333" y="547.6666666666666" type="curve" smooth="yes"/>
      <point x="1082.0" y="992.6666666666666"/>
      <point x="799.6666666666666" y="1382.6666666666667"/>
      <point x="421.6666666666667" y="1583.0" type="curve"/>
      <point x="387.3333333333333" y="1510.6666666666667" type="line"/>
      <point x="696.6666666666666" y="1345.6666666666667"/>
      <point x="882.3333333333334" y="1092.3333333333333"/>
      <point x="965.6666666666666" y="832.6666666666666" type="curve"/>
      <point x="956.3333333333334" y="832.6666666666666" type="line"/>
      <point x="879.6666666666666" y="968.3333333333334"/>
      <point x="756.3333333333334" y="1057.0"/>
      <point x="588.6666666666666" y="1057.0" type="curve" smooth="yes"/>
      <point x="327.6666666666667" y="1057.0"/>
      <point x="122.33333333333333" y="825.6666666666666"/>
      <point x="122.33333333333333" y="516.6666666666666" type="curve" smooth="yes"/>
      <point x="122.33333333333333" y="210.33333333333334"/>
      <point x="324.6666666666667" y="-23.0"/>
    </contour>
    <contour>
      <point x="603.0" y="59.0" type="curve" smooth="yes"/>
      <point x="367.6666666666667" y="59.0"/>
      <point x="210.0" y="265.3333333333333"/>
      <point x="210.0" y="516.6666666666666" type="curve" smooth="yes"/>
      <point x="210.0" y="771.0"/>
      <point x="372.3333333333333" y="978.3333333333334"/>
      <point x="603.0" y="978.3333333333334" type="curve" smooth="yes"/>
      <point x="840.3333333333334" y="978.3333333333334"/>
      <point x="998.0" y="761.0"/>
      <point x="998.0" y="512.6666666666666" type="curve" smooth="yes"/>
      <point x="998.0" y="258.6666666666667"/>
      <point x="834.6666666666666" y="59.0"/>
    </contour>
  </outline>
</glyph>
<glyph name="divide" format="2">
  <advance height="2479.0" width="1318.6666666666667"/>
  <unicode hex="00F7"/>
  <outline>
    <contour>
      <point x="1095.3333333333333" y="624.3333333333334" type="line"/>
      <point x="223.0" y="624.3333333333334" type="line"/>
      <point x="223.0" y="539.3333333333334" type="line"/>
      <point x="1095.3333333333333" y="539.3333333333334" type="line"/>
    </contour>
    <contour>
      <point x="659.6666666666666" y="157.33333333333331" type="curve" smooth="yes"/>
      <point x="702.3333333333334" y="157.33333333333331"/>
      <point x="737.0" y="192.0"/>
      <point x="737.0" y="235.66666666666666" type="curve" smooth="yes"/>
      <point x="737.0" y="278.0"/>
      <point x="702.3333333333334" y="313.6666666666667"/>
      <point x="659.6666666666666" y="313.6666666666667" type="curve" smooth="yes"/>
      <point x="616.0" y="313.6666666666667"/>
      <point x="580.6666666666666" y="278.0"/>
      <point x="580.6666666666666" y="235.66666666666666" type="curve" smooth="yes"/>
      <point x="580.6666666666666" y="192.0"/>
      <point x="616.0" y="157.33333333333331"/>
    </contour>
    <contour>
      <point x="659.6666666666666" y="850.3333333333334" type="curve" smooth="yes"/>
      <point x="702.3333333333334" y="850.3333333333334"/>
      <point x="737.0" y="885.0"/>
      <point x="737.0" y="928.6666666666666" type="curve" smooth="yes"/>
      <point x="737.0" y="972.0"/>
      <point x="702.3333333333334" y="1006.6666666666666"/>
      <point x="659.6666666666666" y="1006.6666666666666" type="curve" smooth="yes"/>
      <point x="616.0" y="1006.6666666666666"/>
      <point x="580.6666666666666" y="972.0"/>
      <point x="580.6666666666666" y="928.6666666666666" type="curve" smooth="yes"/>
      <point x="580.6666666666666" y="885.0"/>
      <point x="616.0" y="850.3333333333334"/>
    </contour>
  </outline>
</glyph>
<glyph name="oslash" format="2">
  <advance height="2479.0" width="1198.6666666666667"/>
  <unicode hex="00F8"/>
  <anchor x="599.0" y="2.0" name="bottom"/>
  <anchor x="675.0" y="2.0" name="ogonek"/>
  <anchor x="599.0" y="1305.0" name="top"/>
  <outline>
    <contour>
      <point x="243.33333333333334" y="-39.66666666666667" type="line"/>
      <point x="1019.3333333333334" y="1111.3333333333333" type="line"/>
      <point x="955.0" y="1153.6666666666667" type="line"/>
      <point x="179.33333333333334" y="3.0" type="line"/>
    </contour>
    <component base="o" yOffset="2.0"/>
  </outline>
</glyph>
<glyph name="thorn" format="2">
  <advance height="2479.0" width="1202.6666666666667"/>
  <unicode hex="00FE"/>
  <outline>
    <contour>
      <point x="180.33333333333334" y="1489.0" type="line"/>
      <point x="180.33333333333334" y="-419.0" type="line"/>
      <point x="269.0" y="-419.0" type="line"/>
      <point x="269.0" y="353.0" type="line"/>
      <point x="244.33333333333334" y="562.6666666666666" type="line"/>
      <point x="269.0" y="742.0" type="line"/>
      <point x="269.0" y="1489.0" type="line"/>
    </contour>
    <contour>
      <point x="231.0" y="868.0" type="line"/>
      <point x="231.0" y="243.33333333333331" type="line"/>
      <point x="277.0" y="243.33333333333331" type="line"/>
      <point x="329.0" y="99.0"/>
      <point x="448.0" y="-23.0"/>
      <point x="638.3333333333334" y="-23.0" type="curve" smooth="yes"/>
      <point x="905.3333333333334" y="-23.0"/>
      <point x="1083.0" y="218.33333333333334"/>
      <point x="1083.0" y="556.0" type="curve" smooth="yes"/>
      <point x="1083.0" y="893.3333333333334"/>
      <point x="907.3333333333334" y="1134.0"/>
      <point x="637.3333333333334" y="1134.0" type="curve" smooth="yes"/>
      <point x="444.6666666666667" y="1134.0"/>
      <point x="330.3333333333333" y="1010.6666666666666"/>
      <point x="277.0" y="868.0" type="curve"/>
    </contour>
    <contour>
      <point x="995.3333333333334" y="557.0" type="curve" smooth="yes"/>
      <point x="995.3333333333334" y="275.3333333333333"/>
      <point x="859.0" y="59.0"/>
      <point x="630.6666666666666" y="59.0" type="curve" smooth="yes"/>
      <point x="404.3333333333333" y="59.0"/>
      <point x="268.0" y="270.3333333333333"/>
      <point x="268.0" y="557.0" type="curve" smooth="yes"/>
      <point x="268.0" y="841.6666666666666"/>
      <point x="402.0" y="1051.0"/>
      <point x="630.6666666666666" y="1051.0" type="curve" smooth="yes"/>
      <point x="861.3333333333334" y="1051.0"/>
      <point x="995.3333333333334" y="836.6666666666666"/>
    </contour>
  </outline>
</glyph>
<glyph name="dcroat" format="2">
  <advance height="2479.0" width="1240.6666666666667"/>
  <unicode hex="0111"/>
  <anchor x="602.3333333333334" y="0.0" name="bottom"/>
  <anchor x="981.0" y="1280.0" name="cross"/>
  <anchor x="1159.6666666666667" y="1489.0" name="raccent"/>
  <anchor x="583.6666666666666" y="1489.0" name="top"/>
  <outline>
    <contour>
      <point x="626.3333333333334" y="1242.6666666666667" type="line"/>
      <point x="1208.3333333333333" y="1242.6666666666667" type="line"/>
      <point x="1208.3333333333333" y="1318.3333333333333" type="line"/>
      <point x="626.3333333333334" y="1318.3333333333333" type="line"/>
    </contour>
    <component base="d"/>
  </outline>
</glyph>
<glyph name="Hbar" format="2">
  <advance height="2479.0" width="1546.3333333333333"/>
  <unicode hex="0126"/>
  <anchor x="774.6666666666666" y="0.0" name="bottom"/>
  <anchor x="289.3333333333333" y="-5.0" name="cedilla"/>
  <anchor x="1351.3333333333333" y="25.333333333333336" name="cyrtic"/>
  <anchor x="1315.0" y="0.0" name="right"/>
  <anchor x="201.0" y="1489.0" name="tonos"/>
  <anchor x="777.6666666666666" y="1677.0" name="top"/>
  <outline>
    <contour>
      <point x="1430.0" y="1111.0" type="line"/>
      <point x="116.33333333333333" y="1111.0" type="line"/>
      <point x="116.33333333333333" y="1030.0" type="line"/>
      <point x="1430.0" y="1030.0" type="line"/>
    </contour>
    <component base="H" xOffset="20.666666666666668"/>
  </outline>
</glyph>
<glyph name="idotless" format="2">
  <advance height="2479.0" width="464.6666666666667"/>
  <unicode hex="0131"/>
  <anchor x="232.66666666666666" y="0.0" name="bottom"/>
  <anchor x="232.66666666666666" y="585.6666666666666" name="cross"/>
  <anchor x="276.3333333333333" y="0.0" name="ogonek"/>
  <anchor x="232.66666666666666" y="1303.0" name="top"/>
  <outline>
    <contour>
      <point x="188.33333333333334" y="0.0" type="line"/>
      <point x="276.3333333333333" y="0.0" type="line"/>
      <point x="276.3333333333333" y="1117.0" type="line"/>
      <point x="188.33333333333334" y="1117.0" type="line"/>
    </contour>
  </outline>
</glyph>
<glyph name="Lslash" format="2">
  <advance height="2479.0" width="1120.6666666666667"/>
  <unicode hex="0141"/>
  <anchor x="581.6666666666666" y="0.0" name="bottom"/>
  <anchor x="218.33333333333334" y="768.0" name="cross"/>
  <anchor x="562.3333333333334" y="763.3333333333334" name="dot"/>
  <anchor x="578.6666666666666" y="1489.0" name="raccent"/>
  <anchor x="218.33333333333334" y="1676.0" name="top"/>
  <outline>
    <contour>
      <point x="548.6666666666666" y="884.3333333333334" type="line"/>
      <point x="14.666666666666668" y="700.3333333333334" type="line"/>
      <point x="14.666666666666668" y="622.6666666666666" type="line"/>
      <point x="548.6666666666666" y="808.6666666666666" type="line"/>
    </contour>
    <component base="L" xOffset="-42.666666666666664"/>
  </outline>
</glyph>
<glyph name="lslash" format="2">
  <advance height="2479.0" width="431.3333333333333"/>
  <unicode hex="0142"/>
  <anchor x="215.0" y="0.0" name="bottom"/>
  <anchor x="215.0" y="768.0" name="cross"/>
  <anchor x="397.6666666666667" y="1489.0" name="raccent"/>
  <anchor x="214.33333333333334" y="1676.0" name="top"/>
  <outline>
    <contour>
      <point x="429.6666666666667" y="894.3333333333334" type="line"/>
      <point x="1.666666666666666" y="709.6666666666666" type="line"/>
      <point x="1.666666666666666" y="633.0" type="line"/>
      <point x="429.6666666666667" y="817.6666666666666" type="line"/>
    </contour>
    <component base="l" xOffset="-13.333333333333332"/>
  </outline>
</glyph>
<glyph name="Eng" format="2">
  <advance height="2479.0" width="1569.3333333333333"/>
  <unicode hex="014A"/>
  <anchor x="784.3333333333334" y="0.0" name="bottom"/>
  <anchor x="1319.6666666666667" y="0.0" name="right"/>
  <anchor x="784.3333333333334" y="1676.0" name="top"/>
  <outline>
    <contour>
      <point x="1264.3333333333333" y="0.0" type="line"/>
      <point x="1264.3333333333333" y="-151.33333333333331" type="line" smooth="yes"/>
      <point x="1264.3333333333333" y="-280.3333333333333"/>
      <point x="1206.0" y="-335.3333333333333"/>
      <point x="1105.6666666666667" y="-335.3333333333333" type="curve" smooth="yes"/>
      <point x="1084.3333333333333" y="-335.3333333333333"/>
      <point x="1065.3333333333333" y="-333.0"/>
      <point x="1052.0" y="-330.0" type="curve"/>
      <point x="1052.0" y="-410.0" type="line"/>
      <point x="1070.0" y="-415.6666666666667"/>
      <point x="1096.6666666666667" y="-417.0"/>
      <point x="1123.0" y="-417.0" type="curve" smooth="yes"/>
      <point x="1262.6666666666667" y="-417.0"/>
      <point x="1353.6666666666667" y="-323.0"/>
      <point x="1353.6666666666667" y="-152.33333333333331" type="curve" smooth="yes"/>
      <point x="1353.6666666666667" y="0.0" type="line"/>
    </contour>
    <component base="N"/>
  </outline>
</glyph>
<glyph name="eng" format="2">
  <advance height="2479.0" width="1179.3333333333333"/>
  <unicode hex="014B"/>
  <anchor x="587.6666666666666" y="0.0" name="bottom"/>
  <anchor x="589.6666666666666" y="1303.0" name="top"/>
  <outline>
    <contour>
      <point x="902.6666666666666" y="0.0" type="line"/>
      <point x="902.6666666666666" y="-154.33333333333331" type="line" smooth="yes"/>
      <point x="902.6666666666666" y="-284.0"/>
      <point x="844.6666666666666" y="-338.3333333333333"/>
      <point x="745.6666666666666" y="-338.3333333333333" type="curve" smooth="yes"/>
      <point x="721.0" y="-338.3333333333333"/>
      <point x="698.0" y="-334.66666666666663"/>
      <point x="680.6666666666666" y="-331.0" type="curve"/>
      <point x="680.6666666666666" y="-407.3333333333333" type="line"/>
      <point x="701.3333333333334" y="-416.3333333333333"/>
      <point x="731.3333333333334" y="-419.0"/>
      <point x="762.3333333333334" y="-419.0" type="curve" smooth="yes"/>
      <point x="901.0" y="-419.0"/>
      <point x="991.0" y="-325.6666666666667"/>
      <point x="991.0" y="-154.33333333333331" type="curve" smooth="yes"/>
      <point x="991.0" y="0.0" type="line"/>
    </contour>
    <component base="n"/>
  </outline>
</glyph>
<glyph name="OE" format="2">
  <advance height="2479.0" width="1909.3333333333333"/>
  <unicode hex="0152"/>
  <anchor x="1307.6666666666667" y="0.0" name="bottom"/>
  <anchor x="1310.6666666666667" y="0.0" name="cedilla"/>
  <anchor x="1765.3333333333333" y="0.0" name="ogonek"/>
  <anchor x="868.3333333333334" y="1489.0" name="tonos"/>
  <anchor x="1335.6666666666667" y="1676.0" name="top"/>
  <outline>
    <contour>
      <point x="770.0" y="0.0" type="curve" smooth="yes"/>
      <point x="958.6666666666666" y="0.0" type="line"/>
      <point x="958.6666666666666" y="84.66666666666667" type="line"/>
      <point x="770.0" y="84.66666666666667" type="line" smooth="yes"/>
      <point x="446.0" y="84.66666666666667"/>
      <point x="229.0" y="353.3333333333333"/>
      <point x="229.0" y="745.0" type="curve" smooth="yes"/>
      <point x="229.0" y="1141.6666666666667"/>
      <point x="449.3333333333333" y="1405.6666666666667"/>
      <point x="770.0" y="1405.0" type="curve" smooth="yes"/>
      <point x="958.6666666666666" y="1405.0" type="line"/>
      <point x="958.6666666666666" y="1489.0" type="line"/>
      <point x="770.0" y="1489.0" type="line" smooth="yes"/>
      <point x="394.3333333333333" y="1489.0"/>
      <point x="139.33333333333334" y="1189.6666666666667"/>
      <point x="139.33333333333334" y="745.0" type="curve" smooth="yes"/>
      <point x="139.33333333333334" y="302.0"/>
      <point x="393.6666666666667" y="0.0"/>
    </contour>
    <component base="E" xOffset="703.6666666666666"/>
  </outline>
</glyph>
<glyph name="tbar" format="2">
  <advance height="2479.0" width="737.0"/>
  <unicode hex="0167"/>
  <anchor x="442.6666666666667" y="0.0" name="bottom"/>
  <anchor x="486.6666666666667" y="0.0" name="cedilla"/>
  <anchor x="492.6666666666667" y="1562.0" name="raccent"/>
  <anchor x="314.0" y="1489.0" name="top"/>
  <outline>
    <contour>
      <point x="91.33333333333333" y="670.3333333333334" type="line"/>
      <point x="606.3333333333334" y="670.3333333333334" type="line"/>
      <point x="606.3333333333334" y="745.6666666666666" type="line"/>
      <point x="91.33333333333333" y="745.6666666666666" type="line"/>
    </contour>
    <component base="t" xOffset="13.333333333333332"/>
  </outline>
</glyph>
<glyph name="Bhook" format="2">
  <advance height="2479.0" width="1556.3333333333333"/>
  <unicode hex="0181"/>
  <anchor x="877.6666666666666" y="0.0" name="bottom"/>
  <anchor x="863.3333333333334" y="1676.0" name="top"/>
  <outline>
    <contour>
      <point x="483.0" y="1405.0" type="line"/>
      <point x="483.0" y="1489.0" type="line"/>
      <point x="347.3333333333333" y="1489.0" type="line" smooth="yes"/>
      <point x="198.0" y="1489.0"/>
      <point x="117.0" y="1396.0"/>
      <point x="116.33333333333333" y="1251.0" type="curve" smooth="yes"/>
      <point x="116.33333333333333" y="1183.3333333333333" type="line"/>
      <point x="204.0" y="1183.3333333333333" type="line"/>
      <point x="204.0" y="1219.0" type="line" smooth="yes"/>
      <point x="204.0" y="1341.3333333333333"/>
      <point x="237.33333333333334" y="1405.0"/>
      <point x="350.3333333333333" y="1405.0" type="curve" smooth="yes"/>
    </contour>
    <component base="B" xOffset="237.66666666666669"/>
  </outline>
</glyph>
<glyph name="Btopbar" format="2">
  <advance height="2479.0" width="1337.6666666666667"/>
  <unicode hex="0182"/>
  <outline>
    <contour>
      <point x="215.33333333333331" y="0.0" type="line"/>
      <point x="773.6666666666666" y="0.0" type="line" smooth="yes"/>
      <point x="1051.6666666666667" y="0.0"/>
      <point x="1215.6666666666667" y="163.33333333333334"/>
      <point x="1215.6666666666667" y="415.6666666666667" type="curve" smooth="yes"/>
      <point x="1215.6666666666667" y="653.3333333333334"/>
      <point x="1049.0" y="806.0"/>
      <point x="773.6666666666666" y="806.0" type="curve" smooth="yes"/>
      <point x="306.3333333333333" y="806.0" type="line"/>
      <point x="306.3333333333333" y="1405.0" type="line"/>
      <point x="1053.6666666666667" y="1405.0" type="line"/>
      <point x="1053.6666666666667" y="1489.0" type="line"/>
      <point x="215.33333333333331" y="1489.0" type="line"/>
    </contour>
    <contour>
      <point x="306.3333333333333" y="83.66666666666667" type="line"/>
      <point x="306.3333333333333" y="721.3333333333334" type="line"/>
      <point x="773.6666666666666" y="721.3333333333334" type="line" smooth="yes"/>
      <point x="991.0" y="721.3333333333334"/>
      <point x="1126.0" y="596.3333333333334"/>
      <point x="1126.0" y="418.6666666666667" type="curve" smooth="yes"/>
      <point x="1125.3333333333333" y="219.0"/>
      <point x="997.0" y="83.66666666666667"/>
      <point x="773.6666666666666" y="83.66666666666667" type="curve" smooth="yes"/>
    </contour>
  </outline>
</glyph>
<glyph name="btopbar" format="2">
  <advance height="2479.0" width="1240.3333333333333"/>
  <unicode hex="0183"/>
  <anchor x="671.6666666666666" y="0.0" name="bottom"/>
  <anchor x="260.0" y="1280.0" name="cross"/>
  <anchor x="671.0" y="1303.0" name="top"/>
  <outline>
    <contour>
      <point x="990.6666666666666" y="1489.0" type="line"/>
      <point x="280.3333333333333" y="1489.0" type="line"/>
      <point x="280.3333333333333" y="1405.0" type="line"/>
      <point x="990.6666666666666" y="1405.0" type="line"/>
    </contour>
    <component base="b"/>
  </outline>
</glyph>
<glyph name="Tonesix" format="2">
  <advance height="2479.0" width="1347.6666666666667"/>
  <unicode hex="0184"/>
  <outline>
    <contour>
      <point x="450.6666666666667" y="1489.0" type="line"/>
      <point x="17.333333333333332" y="1489.0" type="line"/>
      <point x="17.333333333333332" y="1405.0" type="line"/>
      <point x="450.6666666666667" y="1405.0" type="line"/>
    </contour>
    <contour>
      <point x="421.6666666666667" y="806.0" type="line"/>
      <point x="421.6666666666667" y="721.3333333333334" type="line"/>
      <point x="918.0" y="721.3333333333334" type="line"/>
      <point x="1135.3333333333333" y="721.3333333333334"/>
      <point x="1271.0" y="596.3333333333334"/>
      <point x="1270.3333333333333" y="418.6666666666667" type="curve"/>
      <point x="1269.6666666666667" y="219.0"/>
      <point x="1141.3333333333333" y="83.66666666666667"/>
      <point x="918.0" y="83.66666666666667" type="curve"/>
      <point x="450.6666666666667" y="83.66666666666667" type="line"/>
      <point x="450.6666666666667" y="1489.0" type="line"/>
      <point x="359.6666666666667" y="1489.0" type="line"/>
      <point x="359.6666666666667" y="0.0" type="line"/>
      <point x="918.0" y="0.0" type="line"/>
      <point x="1196.0" y="0.0"/>
      <point x="1360.3333333333333" y="163.33333333333334"/>
      <point x="1360.3333333333333" y="415.6666666666667" type="curve"/>
      <point x="1360.3333333333333" y="653.3333333333334"/>
      <point x="1193.3333333333333" y="806.0"/>
      <point x="918.0" y="806.0" type="curve"/>
    </contour>
  </outline>
</glyph>
<glyph name="tonesix" format="2">
  <advance height="2479.0" width="1162.3333333333333"/>
  <unicode hex="0185"/>
  <outline>
    <contour>
      <point x="712.6666666666666" y="-23.0" type="curve" smooth="yes"/>
      <point x="910.3333333333334" y="-23.0"/>
      <point x="1040.3333333333333" y="164.0"/>
      <point x="1040.3333333333333" y="416.6666666666667" type="curve" smooth="yes"/>
      <point x="1040.3333333333333" y="673.6666666666666"/>
      <point x="906.3333333333334" y="848.3333333333334"/>
      <point x="712.6666666666666" y="848.0" type="curve" smooth="yes"/>
      <point x="573.6666666666666" y="848.3333333333334"/>
      <point x="484.3333333333333" y="767.6666666666666"/>
      <point x="443.3333333333333" y="656.3333333333334" type="curve"/>
      <point x="438.0" y="656.3333333333334" type="line"/>
      <point x="438.0" y="1117.0" type="line"/>
      <point x="351.6666666666667" y="1117.0" type="line"/>
      <point x="351.6666666666667" y="1065.3333333333333" type="line"/>
      <point x="349.6666666666667" y="1053.3333333333333" type="line"/>
      <point x="349.6666666666667" y="0.6666666666666666" type="line"/>
      <point x="436.3333333333333" y="0.6666666666666666" type="line"/>
      <point x="436.3333333333333" y="174.66666666666666" type="line"/>
      <point x="443.3333333333333" y="174.66666666666666" type="line"/>
      <point x="486.0" y="59.33333333333333"/>
      <point x="581.6666666666666" y="-23.0"/>
    </contour>
    <contour>
      <point x="693.0" y="59.0" type="curve" smooth="yes"/>
      <point x="534.3333333333334" y="59.66666666666667"/>
      <point x="436.3333333333333" y="214.0"/>
      <point x="437.0" y="417.0" type="curve" smooth="yes"/>
      <point x="436.3333333333333" y="620.6666666666666"/>
      <point x="534.3333333333334" y="765.6666666666666"/>
      <point x="693.6666666666666" y="765.6666666666666" type="curve" smooth="yes"/>
      <point x="853.3333333333334" y="765.6666666666666"/>
      <point x="952.6666666666666" y="619.3333333333334"/>
      <point x="952.6666666666666" y="417.6666666666667" type="curve" smooth="yes"/>
      <point x="952.6666666666666" y="218.0"/>
      <point x="853.3333333333334" y="59.66666666666667"/>
    </contour>
    <contour>
      <point x="95.66666666666667" y="745.6666666666666" type="line"/>
      <point x="410.0" y="1058.6666666666667" type="line"/>
      <point x="351.6666666666667" y="1117.0" type="line"/>
      <point x="36.66666666666667" y="803.3333333333334" type="line"/>
    </contour>
  </outline>
</glyph>
<glyph name="Chook" format="2">
  <advance height="2479.0" width="1489.3333333333333"/>
  <unicode hex="0187"/>
  <anchor x="770.0" y="-4.0" name="cedilla"/>
  <anchor x="770.0" y="1676.0" name="top"/>
  <outline>
    <contour>
      <point x="1349.6666666666667" y="1024.0" type="line"/>
      <point x="1349.6666666666667" y="1250.6666666666667" type="line" smooth="yes"/>
      <point x="1349.6666666666667" y="1371.0"/>
      <point x="1396.3333333333333" y="1413.6666666666667"/>
      <point x="1488.6666666666667" y="1413.6666666666667" type="curve" smooth="yes"/>
      <point x="1504.6666666666667" y="1413.6666666666667"/>
      <point x="1520.3333333333333" y="1412.3333333333333"/>
      <point x="1531.0" y="1410.0" type="curve"/>
      <point x="1531.0" y="1489.6666666666667" type="line"/>
      <point x="1516.3333333333333" y="1494.0"/>
      <point x="1495.0" y="1494.6666666666667"/>
      <point x="1474.0" y="1494.6666666666667" type="curve" smooth="yes"/>
      <point x="1340.3333333333333" y="1494.6666666666667"/>
      <point x="1261.6666666666667" y="1413.3333333333333"/>
      <point x="1261.6666666666667" y="1250.6666666666667" type="curve" smooth="yes"/>
      <point x="1261.6666666666667" y="1024.0" type="line"/>
    </contour>
    <component base="C"/>
  </outline>
</glyph>
<glyph name="chook" format="2">
  <advance height="2479.0" width="1207.0"/>
  <unicode hex="0188"/>
  <anchor x="593.6666666666666" y="0.0" name="cedilla"/>
  <anchor x="593.6666666666666" y="1303.0" name="top"/>
  <outline>
    <contour>
      <point x="1015.3333333333334" y="788.3333333333334" type="line"/>
      <point x="1015.3333333333334" y="951.3333333333334" type="line" smooth="yes"/>
      <point x="1015.3333333333334" y="1072.0"/>
      <point x="1062.0" y="1114.3333333333333"/>
      <point x="1161.6666666666667" y="1114.3333333333333" type="curve" smooth="yes"/>
      <point x="1181.0" y="1114.3333333333333"/>
      <point x="1206.0" y="1112.0"/>
      <point x="1227.3333333333333" y="1109.0" type="curve"/>
      <point x="1227.3333333333333" y="1189.0" type="line"/>
      <point x="1202.6666666666667" y="1194.0"/>
      <point x="1172.0" y="1194.6666666666667"/>
      <point x="1147.0" y="1194.6666666666667" type="curve" smooth="yes"/>
      <point x="1007.6666666666666" y="1194.6666666666667"/>
      <point x="927.0" y="1115.3333333333333"/>
      <point x="927.0" y="951.3333333333334" type="curve" smooth="yes"/>
      <point x="927.0" y="788.3333333333334" type="line"/>
    </contour>
    <component base="c"/>
  </outline>
</glyph>
<glyph name="Dtopbar" format="2">
  <advance height="2479.0" width="1359.6666666666667"/>
  <unicode hex="018B"/>
  <outline>
    <contour>
      <point x="585.6666666666666" y="0.0" type="curve" smooth="yes"/>
      <point x="1144.3333333333333" y="0.0" type="line"/>
      <point x="1144.3333333333333" y="1489.0" type="line"/>
      <point x="305.6666666666667" y="1489.0" type="line"/>
      <point x="305.6666666666667" y="1405.0" type="line"/>
      <point x="1053.0" y="1405.0" type="line"/>
      <point x="1053.0" y="806.0" type="line"/>
      <point x="585.6666666666666" y="806.0" type="line" smooth="yes"/>
      <point x="311.0" y="806.0"/>
      <point x="143.33333333333334" y="652.6666666666666"/>
      <point x="143.33333333333334" y="415.6666666666667" type="curve" smooth="yes"/>
      <point x="143.33333333333334" y="164.0"/>
      <point x="307.6666666666667" y="0.0"/>
    </contour>
    <contour>
      <point x="585.6666666666666" y="83.66666666666667" type="line" smooth="yes"/>
      <point x="362.3333333333333" y="83.66666666666667"/>
      <point x="234.0" y="219.0"/>
      <point x="234.0" y="418.6666666666667" type="curve" smooth="yes"/>
      <point x="234.0" y="596.3333333333334"/>
      <point x="368.3333333333333" y="721.3333333333334"/>
      <point x="585.6666666666666" y="721.3333333333334" type="curve" smooth="yes"/>
      <point x="1053.0" y="721.3333333333334" type="line"/>
      <point x="1053.0" y="83.66666666666667" type="line"/>
    </contour>
  </outline>
</glyph>
<glyph name="dtopbar" format="2">
  <advance height="2479.0" width="1240.6666666666667"/>
  <unicode hex="018C"/>
  <anchor x="568.0" y="0.0" name="bottom"/>
  <anchor x="980.6666666666666" y="1280.0" name="cross"/>
  <anchor x="569.0" y="1303.0" name="top"/>
  <outline>
    <contour>
      <point x="249.0" y="1489.0" type="line"/>
      <point x="249.0" y="1405.0" type="line"/>
      <point x="960.3333333333334" y="1405.0" type="line"/>
      <point x="960.3333333333334" y="1489.0" type="line"/>
    </contour>
    <contour>
      <point x="1025.0" y="0.0" type="line"/>
      <point x="1025.0" y="1489.0" type="line"/>
      <point x="936.3333333333334" y="1489.0" type="line"/>
      <point x="936.3333333333334" y="868.0" type="line"/>
      <point x="928.3333333333334" y="868.0" type="line"/>
      <point x="876.3333333333334" y="1011.3333333333334"/>
      <point x="759.3333333333334" y="1134.0"/>
      <point x="568.0" y="1134.0" type="curve" smooth="yes"/>
      <point x="300.0" y="1134.0"/>
      <point x="122.33333333333333" y="892.0"/>
      <point x="122.33333333333333" y="556.0" type="curve" smooth="yes"/>
      <point x="122.33333333333333" y="217.0"/>
      <point x="298.0" y="-23.0"/>
      <point x="567.0" y="-23.0" type="curve" smooth="yes"/>
      <point x="758.6666666666666" y="-23.0"/>
      <point x="875.0" y="99.66666666666667"/>
      <point x="928.3333333333334" y="243.33333333333331" type="curve"/>
      <point x="938.3333333333334" y="243.33333333333331" type="line"/>
      <point x="938.3333333333334" y="0.0" type="line"/>
    </contour>
    <contour>
      <point x="937.3333333333334" y="557.0" type="curve" smooth="yes"/>
      <point x="937.3333333333334" y="270.3333333333333"/>
      <point x="802.3333333333334" y="59.0"/>
      <point x="574.6666666666666" y="59.0" type="curve" smooth="yes"/>
      <point x="345.0" y="59.0"/>
      <point x="210.0" y="275.3333333333333"/>
      <point x="210.0" y="557.0" type="curve" smooth="yes"/>
      <point x="210.0" y="836.6666666666666"/>
      <point x="345.3333333333333" y="1051.0"/>
      <point x="574.6666666666666" y="1051.0" type="curve" smooth="yes"/>
      <point x="802.0" y="1051.0"/>
      <point x="937.3333333333334" y="841.6666666666666"/>
    </contour>
  </outline>
</glyph>
<glyph name="deltaturned" format="2">
  <advance height="2479.0" width="1145.3333333333333"/>
  <unicode hex="018D"/>
  <outline>
    <contour>
      <point x="557.3333333333334" y="-449.0" type="curve" smooth="yes"/>
      <point x="770.6666666666666" y="-449.0"/>
      <point x="904.3333333333334" y="-343.6666666666667"/>
      <point x="904.3333333333334" y="-174.66666666666666" type="curve" smooth="yes"/>
      <point x="904.3333333333334" y="-47.666666666666664"/>
      <point x="825.0" y="47.333333333333336"/>
      <point x="661.3333333333334" y="115.0" type="curve"/>
      <point x="661.3333333333334" y="119.0" type="line"/>
      <point x="893.3333333333334" y="172.33333333333334"/>
      <point x="1023.0" y="362.3333333333333"/>
      <point x="1023.0" y="614.6666666666666" type="curve" smooth="yes"/>
      <point x="1023.0" y="904.3333333333334"/>
      <point x="857.0" y="1131.3333333333333"/>
      <point x="572.3333333333334" y="1131.3333333333333" type="curve" smooth="yes"/>
      <point x="287.0" y="1131.3333333333333"/>
      <point x="122.33333333333333" y="905.6666666666666"/>
      <point x="122.33333333333333" y="621.0" type="curve" smooth="yes"/>
      <point x="122.33333333333333" y="363.0"/>
      <point x="269.3333333333333" y="188.66666666666666"/>
      <point x="526.0" y="88.0" type="curve" smooth="yes"/>
      <point x="733.0" y="5.0"/>
      <point x="816.6666666666666" y="-68.33333333333334"/>
      <point x="816.6666666666666" y="-173.0" type="curve" smooth="yes"/>
      <point x="816.6666666666666" y="-294.3333333333333"/>
      <point x="719.6666666666666" y="-366.3333333333333"/>
      <point x="561.0" y="-366.3333333333333" type="curve" smooth="yes"/>
      <point x="469.6666666666667" y="-366.3333333333333"/>
      <point x="375.0" y="-343.66666666666663"/>
      <point x="284.0" y="-301.66666666666663" type="curve"/>
      <point x="284.0" y="-391.6666666666667" type="line"/>
      <point x="359.6666666666667" y="-427.3333333333333"/>
      <point x="461.6666666666667" y="-449.0"/>
    </contour>
    <contour>
      <point x="556.6666666666666" y="167.33333333333334" type="curve"/>
      <point x="337.3333333333333" y="248.33333333333334"/>
      <point x="210.0" y="387.6666666666667"/>
      <point x="210.0" y="615.6666666666666" type="curve" smooth="yes"/>
      <point x="210.0" y="854.6666666666666"/>
      <point x="339.3333333333333" y="1048.6666666666667"/>
      <point x="572.0" y="1048.6666666666667" type="curve" smooth="yes"/>
      <point x="807.6666666666666" y="1048.6666666666667"/>
      <point x="934.6666666666666" y="853.3333333333334"/>
      <point x="934.6666666666666" y="609.3333333333334" type="curve" smooth="yes"/>
      <point x="934.6666666666666" y="353.0"/>
      <point x="792.3333333333334" y="192.66666666666666"/>
    </contour>
  </outline>
</glyph>
<glyph name="Schwa" format="2">
  <advance height="2479.0" width="1515.0"/>
  <unicode hex="018F"/>
  <outline>
    <contour>
      <point x="740.0" y="-20.0" type="curve" smooth="yes"/>
      <point x="1124.0" y="-20.0"/>
      <point x="1375.6666666666667" y="283.6666666666667"/>
      <point x="1375.6666666666667" y="745.0" type="curve" smooth="yes"/>
      <point x="1375.6666666666667" y="1207.3333333333333"/>
      <point x="1121.0" y="1510.0"/>
      <point x="748.0" y="1510.0" type="curve" smooth="yes"/>
      <point x="410.3333333333333" y="1510.0"/>
      <point x="205.33333333333334" y="1261.3333333333333"/>
      <point x="163.66666666666666" y="1024.0" type="curve"/>
      <point x="257.0" y="1024.0" type="line"/>
      <point x="302.0" y="1224.6666666666667"/>
      <point x="471.3333333333333" y="1422.3333333333333"/>
      <point x="748.0" y="1422.3333333333333" type="curve" smooth="yes"/>
      <point x="1063.3333333333333" y="1422.3333333333333"/>
      <point x="1287.0" y="1160.6666666666667"/>
      <point x="1287.0" y="745.0" type="curve" smooth="yes"/>
      <point x="1287.0" y="332.0"/>
      <point x="1066.6666666666667" y="66.66666666666667"/>
      <point x="740.0" y="66.66666666666667" type="curve" smooth="yes"/>
      <point x="447.3333333333333" y="66.66666666666667"/>
      <point x="239.0" y="278.0"/>
      <point x="242.33333333333334" y="629.3333333333334" type="curve"/>
      <point x="210.33333333333334" y="613.6666666666666" type="line"/>
      <point x="1332.3333333333333" y="613.6666666666666" type="line"/>
      <point x="1332.3333333333333" y="698.3333333333334" type="line"/>
      <point x="153.33333333333334" y="698.3333333333334" type="line"/>
      <point x="153.33333333333334" y="613.6666666666666" type="line" smooth="yes"/>
      <point x="153.33333333333334" y="219.33333333333334"/>
      <point x="398.3333333333333" y="-20.0"/>
    </contour>
  </outline>
</glyph>
